<svg width="38" height="16" viewBox="0 0 38 16" fill="none" xmlns="http://www.w3.org/2000/svg">
<path d="M1.84375 7C1.29147 7 0.84375 7.44772 0.84375 8C0.84375 8.55228 1.29147 9 1.84375 9V7ZM37.1509 8.70711C37.5414 8.31658 37.5414 7.68342 37.1509 7.29289L30.7869 0.928932C30.3964 0.538408 29.7632 0.538408 29.3727 0.928932C28.9822 1.31946 28.9822 1.95262 29.3727 2.34315L35.0295 8L29.3727 13.6569C28.9822 14.0474 28.9822 14.6805 29.3727 15.0711C29.7632 15.4616 30.3964 15.4616 30.7869 15.0711L37.1509 8.70711ZM1.84375 9H36.4437V7H1.84375V9Z" fill="#19D4EE"/>
</svg>
