<svg width="675" height="884" viewBox="0 0 675 884" fill="none" xmlns="http://www.w3.org/2000/svg">
<g clip-path="url(#clip0_1711_8010)">
<path fill-rule="evenodd" clip-rule="evenodd" d="M1224.86 -532C1182.84 -532 1142.54 -515.309 1112.83 -485.598C1087.28 -460.041 1071.35 -426.651 1067.4 -391.071C1081.7 -389.302 1095.74 -385.61 1109.11 -380.071C1128.57 -372.009 1146.26 -360.192 1161.15 -345.295C1176.05 -330.398 1187.87 -312.713 1195.93 -293.249C1203.99 -273.785 1208.14 -252.923 1208.14 -231.856V-126.956C1214.8 -156.18 1229.58 -183.204 1251.12 -204.736C1281.2 -234.822 1322.01 -251.725 1364.56 -251.725C1369.72 -251.725 1374.86 -251.476 1379.95 -250.984C1382.16 -262.191 1383.29 -273.613 1383.29 -285.09V-373.573C1383.29 -415.59 1366.59 -455.887 1336.88 -485.598C1307.17 -515.309 1266.88 -532 1224.86 -532ZM1205.11 -109.031C1205.39 -111.577 1205.74 -114.112 1206.14 -116.633V-118.942C1205.68 -115.646 1205.14 -112.364 1204.5 -109.1C1204.68 -109.08 1204.86 -109.059 1205.05 -109.039L1205.11 -109.031ZM1204.13 -91.2971C1204.13 -96.5154 1204.38 -101.707 1204.88 -106.857H1204.04C1201.78 -96.0512 1198.51 -85.4537 1194.26 -75.2049C1185.31 -53.581 1172.18 -33.933 1155.63 -17.3828C1139.08 -0.832642 1119.43 12.2958 1097.8 21.2527C1079.4 28.8774 1059.86 33.3521 1040.02 34.5145C1050.73 36.5576 1061.23 39.6918 1071.35 43.8837C1090.81 51.9459 1108.5 63.7629 1123.4 78.66C1138.29 93.5571 1150.11 111.242 1158.17 130.706C1163.84 144.391 1167.57 158.767 1169.29 173.419H1204.13V-91.2971ZM1347.84 175.412C1370.88 175.272 1393.67 170.667 1414.96 161.848C1436.58 152.891 1456.23 139.763 1472.78 123.213C1489.33 106.663 1502.46 87.0147 1511.42 65.3909C1520.37 43.767 1524.98 20.5906 1524.98 -2.81488V-91.2971C1524.98 -133.845 1508.08 -174.651 1478 -204.736C1452.04 -230.693 1418.1 -246.837 1381.95 -250.779C1384.16 -262.055 1385.29 -273.545 1385.29 -285.09V-373.573C1385.29 -416.121 1368.38 -456.926 1338.3 -487.012C1308.21 -517.098 1267.41 -534 1224.86 -534C1182.31 -534 1141.51 -517.098 1111.42 -487.012C1085.54 -461.136 1069.42 -427.33 1065.41 -391.306C1059.46 -391.979 1053.45 -392.32 1047.4 -392.32C1004.85 -392.32 964.049 -375.418 933.963 -345.332C908.086 -319.456 891.962 -285.649 887.957 -249.625C882.005 -250.297 875.991 -250.639 869.943 -250.639C827.395 -250.639 786.59 -233.737 756.504 -203.651C730.627 -177.774 714.503 -143.967 710.498 -107.943C709.952 -108.003 709.405 -108.061 708.858 -108.116C703.443 -108.671 697.979 -108.953 692.486 -108.953C649.938 -108.953 609.133 -92.051 579.047 -61.965C553.171 -36.0898 537.048 -2.28583 533.042 33.7365C527.09 33.0641 521.077 32.7227 515.029 32.7227C472.481 32.7227 431.676 49.6248 401.59 79.7108C375.714 105.586 359.591 139.39 355.585 175.412C349.633 174.74 343.62 174.398 337.572 174.398C295.024 174.398 254.218 191.301 224.133 221.387C198.256 247.263 182.132 281.07 178.127 317.095C172.261 316.443 166.352 316.115 160.427 316.115C117.879 316.115 77.074 333.017 46.988 363.103C16.9021 393.189 0 433.995 0 476.543V529.685C0 548.743 7.57058 567.02 21.0463 580.495C34.522 593.971 52.799 601.542 71.8565 601.542H269.309C238.233 607.625 209.404 622.826 186.687 645.543C156.601 675.629 139.699 716.434 139.699 758.982V812.125C139.699 831.182 147.27 849.459 160.746 862.935C174.221 876.411 192.498 883.981 211.556 883.981H459.554H460.554V883.974C483.59 883.834 506.384 879.229 527.674 870.411C549.298 861.454 568.946 848.326 585.496 831.775C602.046 815.225 615.174 795.577 624.131 773.953C628.398 763.653 631.678 753 633.944 742.138H637.013H638.013V742.131C661.049 741.99 683.843 737.386 705.133 728.567C726.757 719.61 746.405 706.482 762.955 689.932C779.505 673.381 792.633 653.733 801.59 632.11C805.835 621.861 809.104 611.265 811.368 600.46H814.464H815.464V600.453C838.5 600.313 861.294 595.708 882.584 586.889C904.208 577.932 923.856 564.804 940.406 548.254C956.956 531.704 970.084 512.056 979.041 490.432C983.287 480.182 986.556 469.583 988.82 458.776H991.921H992.921V458.769C1015.96 458.629 1038.75 454.024 1060.04 445.206C1081.66 436.249 1101.31 423.12 1117.86 406.57C1134.41 390.02 1147.54 370.372 1156.5 348.748C1160.74 338.5 1164.01 327.903 1166.28 317.099H1169.38H1170.38V317.092C1193.42 316.951 1216.21 312.346 1237.5 303.528C1259.13 294.571 1278.78 281.443 1295.33 264.893C1311.88 248.342 1325 228.694 1333.96 207.071C1338.21 196.822 1341.48 186.224 1343.74 175.419H1346.84H1347.84V175.412ZM1341.7 175.419H1169.51C1170.09 180.95 1170.38 186.517 1170.38 192.099V315.092C1193.16 314.951 1215.69 310.398 1236.74 301.68C1258.12 292.824 1277.55 279.843 1293.91 263.478C1310.28 247.114 1323.26 227.686 1332.11 206.305C1336.26 196.301 1339.46 185.961 1341.7 175.419ZM1166.97 173.419C1162.8 138.267 1146.95 105.318 1121.66 80.0352C1096.73 55.1036 1064.35 39.3397 1029.74 34.9133C1029.24 40.0445 1028.98 45.2189 1028.98 50.4197V103.562C1028.98 122.089 1036.34 139.858 1049.44 152.958C1062.55 166.059 1080.31 173.419 1098.84 173.419H1166.97ZM1217.48 -107.165C1237.32 -108.327 1256.85 -112.802 1275.26 -120.427C1296.89 -129.384 1316.53 -142.512 1333.08 -159.062C1349.63 -175.613 1362.76 -195.261 1371.72 -216.885C1376 -227.22 1379.29 -237.91 1381.55 -248.811C1417.32 -244.952 1450.9 -228.999 1476.58 -203.322C1506.29 -173.611 1522.98 -133.315 1522.98 -91.2971V-2.81488C1522.98 20.328 1518.43 43.2443 1509.57 64.6255C1500.71 86.0067 1487.73 105.434 1471.37 121.799C1455 138.163 1435.57 151.144 1414.19 160.001C1393.15 168.719 1370.61 173.272 1347.84 173.412V50.4197C1347.84 29.3521 1343.69 8.49066 1335.63 -10.9733C1327.56 -30.4373 1315.75 -48.1227 1300.85 -63.0197C1285.95 -77.9168 1268.27 -89.7338 1248.8 -97.796C1238.68 -101.988 1228.19 -105.122 1217.48 -107.165ZM1345.84 163.347V173.415H1344.15C1344.81 170.077 1345.37 166.719 1345.84 163.347ZM1168.34 -106.857H1202C1199.76 -96.3144 1196.56 -85.9743 1192.41 -75.9702C1183.56 -54.589 1170.58 -35.1615 1154.21 -18.797C1137.85 -2.43256 1118.42 10.5485 1097.04 19.4049C1075.99 28.1228 1053.46 32.676 1030.68 32.8162V27.2681C1035.63 -6.18555 1051.19 -37.4067 1075.39 -61.6055C1100.57 -86.7861 1133.35 -102.615 1168.34 -106.857ZM1028.67 119.053C1031.6 132.327 1038.27 144.61 1048.03 154.372C1061.51 167.848 1079.78 175.419 1098.84 175.419H1167.19C1167.77 180.922 1168.07 186.476 1168.07 192.06V280.543C1168.07 292.173 1166.91 303.745 1164.64 315.095H1028.67V119.053ZM1206.13 173.415H1342.11C1344.38 162.066 1345.53 150.494 1345.53 138.865V50.3826C1345.53 8.36499 1328.84 -31.9317 1299.13 -61.6426C1274.12 -86.6506 1241.61 -102.435 1206.89 -106.805C1206.38 -101.673 1206.13 -96.4984 1206.13 -91.2971V173.415ZM1369.87 -217.65C1374.08 -227.805 1377.31 -238.306 1379.55 -249.014C1374.59 -249.486 1369.59 -249.725 1364.56 -249.725C1322.54 -249.725 1282.24 -233.033 1252.53 -203.322C1228.82 -179.612 1213.4 -149.161 1208.14 -116.474V-108.863C1230.92 -109.004 1253.45 -113.557 1274.5 -122.275C1295.88 -131.131 1315.31 -144.112 1331.67 -160.477C1348.03 -176.841 1361.01 -196.269 1369.87 -217.65ZM1187.1 -110.045C1192.26 -110.045 1197.4 -109.796 1202.5 -109.305C1204.71 -120.511 1205.83 -131.933 1205.83 -143.411V-231.893C1205.83 -273.91 1189.14 -314.207 1159.43 -343.918C1134.42 -368.926 1101.91 -384.709 1067.19 -389.08C1066.69 -383.948 1066.43 -378.774 1066.43 -373.573V-108.86H1167.63C1174.06 -109.645 1180.56 -110.045 1187.1 -110.045ZM815.464 598.453C838.237 598.313 860.772 593.76 881.819 585.042C903.2 576.185 922.627 563.204 938.992 546.84C955.356 530.475 968.337 511.048 977.194 489.667C981.338 479.661 984.541 469.32 986.776 458.776H814.594C815.172 464.308 815.464 469.877 815.464 475.461V598.453ZM813.464 588.414V598.456H811.776C812.434 595.126 812.997 591.778 813.464 588.414ZM674.826 318.274C674.954 318.29 675.082 318.306 675.209 318.323C709.671 322.814 741.913 338.554 766.755 363.396C792.037 388.679 807.892 421.626 812.057 456.776H743.923C725.396 456.776 707.628 449.416 694.527 436.316C681.426 423.215 674.066 405.447 674.066 386.92V333.777C674.066 328.577 674.322 323.404 674.826 318.274ZM498.311 452.296C503.255 418.847 518.816 387.631 543.012 363.436C568.181 338.267 600.946 322.441 635.919 318.19H669.622C667.387 328.731 664.185 339.07 660.041 349.073C651.185 370.454 638.204 389.881 621.839 406.246C605.475 422.61 586.047 435.591 564.666 444.448C543.619 453.166 521.085 457.719 498.311 457.859V452.296ZM814.372 456.776C812.654 442.125 808.92 427.751 803.252 414.068C795.19 394.604 783.373 376.918 768.476 362.021C753.579 347.124 735.893 335.307 716.429 327.245C706.317 323.056 695.827 319.924 685.127 317.88C704.962 316.716 724.487 312.242 742.889 304.62C764.513 295.663 784.161 282.535 800.711 265.984C817.261 249.434 830.389 229.786 839.346 208.162C843.592 197.912 846.861 187.312 849.125 176.505H849.966C849.465 181.653 849.211 186.843 849.211 192.06V456.776H814.372ZM496.303 544.112C499.236 557.379 505.897 569.655 515.656 579.413C529.131 592.889 547.408 600.46 566.466 600.46H634.805C635.397 606.016 635.698 611.625 635.698 617.265V705.748C635.698 717.321 634.558 728.838 632.311 740.134H496.303V544.112ZM634.579 598.46H566.466C547.939 598.46 530.171 591.1 517.07 577.999C503.969 564.899 496.609 547.13 496.609 528.603V475.461C496.609 470.314 496.86 465.194 497.354 460.115C531.964 464.538 564.359 480.303 589.296 505.24C614.54 530.484 630.385 563.37 634.579 598.46ZM636.922 598.46C635.204 583.807 631.469 569.431 625.801 555.745C617.739 536.281 605.922 518.596 591.025 503.699C576.128 488.802 558.442 476.985 538.978 468.923C528.863 464.733 518.37 461.6 507.667 459.556C527.502 458.392 547.029 453.918 565.432 446.296C587.056 437.339 606.703 424.21 623.254 407.66C639.804 391.11 652.932 371.462 661.889 349.838C666.134 339.591 669.402 328.994 671.666 318.19H672.509C672.008 323.338 671.754 328.528 671.754 333.744V598.46H636.922ZM637.143 600.46H809.324C807.089 611.001 803.886 621.341 799.742 631.344C790.886 652.725 777.905 672.153 761.541 688.517C745.176 704.882 725.749 717.863 704.367 726.719C683.321 735.437 660.786 739.99 638.013 740.131V617.138C638.013 611.557 637.721 605.99 637.143 600.46ZM990.921 456.773H989.228C989.888 453.431 990.453 450.07 990.921 446.694V456.773ZM990.608 333.744C990.608 328.158 990.313 322.603 989.732 317.099H921.386C902.328 317.099 884.051 309.528 870.576 296.052C860.804 286.281 854.138 273.985 851.211 260.698V456.773H987.189C989.458 445.425 990.608 433.854 990.608 422.226V333.744ZM944.206 221.719C919.275 196.788 886.89 181.024 852.289 176.597C851.785 181.727 851.529 186.9 851.529 192.099V245.242C851.529 263.769 858.889 281.537 871.99 294.638C885.09 307.739 902.859 315.099 921.386 315.099H989.508C985.343 279.948 969.488 247.001 944.206 221.719ZM672.737 316.007C673.02 313.458 673.364 310.92 673.768 308.396V306.101C673.312 309.396 672.763 312.676 672.123 315.939C672.328 315.962 672.532 315.984 672.737 316.007ZM718.742 220.305C741.213 197.834 769.663 182.717 800.353 176.505H674.898C675.477 182.038 675.768 187.607 675.768 193.191V298.077C682.432 268.856 697.211 241.835 718.742 220.305ZM832.181 173.316C837.346 173.316 842.485 173.565 847.582 174.057C849.792 162.852 850.913 151.432 850.913 139.957V51.4744C850.913 45.8865 850.618 40.3292 850.036 34.8231H781.687C762.629 34.8231 744.352 27.2525 730.876 13.7767C721.109 4.00977 714.444 -8.27942 711.516 -21.5599V174.501H812.715C819.141 173.716 825.64 173.316 832.181 173.316ZM673.754 598.456H809.737C812.006 587.107 813.157 575.534 813.157 563.904V475.422C813.157 469.836 812.862 464.28 812.281 458.776H743.923C724.865 458.776 706.588 451.206 693.113 437.73C683.348 427.965 676.684 415.679 673.754 402.402V598.456ZM1168.38 304.969V315.095H1166.68C1167.35 311.737 1167.91 308.36 1168.38 304.969ZM853.225 168.974C858.163 135.511 873.726 104.279 897.932 80.0742C923.112 54.8937 955.896 39.0649 990.887 34.8231H1024.54C1022.3 45.366 1019.1 55.7067 1014.96 65.7114C1006.1 87.0927 993.118 106.52 976.753 122.885C960.389 139.249 940.962 152.23 919.58 161.087C898.534 169.804 875.999 174.358 853.225 174.498V168.974ZM991.83 315.099C990.112 300.446 986.378 286.069 980.709 272.384C972.647 252.92 960.83 235.235 945.933 220.338C931.036 205.441 913.35 193.624 893.886 185.561C883.771 181.372 873.279 178.239 862.577 176.195C882.414 175.032 901.942 170.557 920.346 162.934C941.97 153.977 961.618 140.849 978.168 124.299C994.718 107.749 1007.85 88.1006 1016.8 66.4768C1021.05 56.2274 1024.32 45.6292 1026.58 34.8231H1027.43C1026.93 39.9724 1026.67 45.1644 1026.67 50.3826V315.099H991.83ZM992.051 317.099H1164.23C1162 327.64 1158.79 337.979 1154.65 347.983C1145.79 369.364 1132.81 388.792 1116.45 405.156C1100.08 421.521 1080.66 434.502 1059.28 443.358C1038.23 452.076 1015.69 456.629 992.921 456.769V333.777C992.921 328.196 992.63 322.629 992.051 317.099ZM1027.66 32.6473C1027.94 30.1061 1028.28 27.5759 1028.68 25.0588V22.7251C1028.23 26.025 1027.68 29.3109 1027.04 32.5786L1027.33 32.6107C1027.44 32.6228 1027.55 32.635 1027.66 32.6473ZM1030.68 -90.176V14.7325C1037.35 -14.4946 1052.13 -41.5217 1073.66 -63.0568C1096.13 -85.5276 1124.58 -100.644 1155.27 -106.857H1029.81C1030.39 -101.326 1030.68 -95.7581 1030.68 -90.176ZM320.854 594.013C325.791 560.55 341.355 529.318 365.56 505.113C380.716 489.958 398.626 478.19 418.114 470.297C431.243 465.012 445.083 461.485 459.277 459.863H492.166C489.931 470.405 486.728 480.745 482.584 490.749C473.728 512.13 460.747 531.557 444.382 547.922C428.018 564.286 408.59 577.267 387.209 586.124C366.162 594.842 343.628 599.395 320.854 599.535V594.013ZM445.939 459.863C436.15 461.832 426.588 464.708 417.374 468.439C397.514 476.432 379.263 488.395 363.832 503.826C342.297 525.361 327.516 552.388 320.854 581.615V476.543C320.854 470.961 320.563 465.393 319.985 459.862L354.602 459.863H355.602H445.939ZM492.666 457.421C487.662 456.949 482.629 456.711 477.585 456.711C471.137 456.711 464.729 457.099 458.393 457.863H356.602V261.816C359.531 275.093 366.196 287.379 375.96 297.144C389.436 310.62 407.713 318.19 426.771 318.19H495.124C495.704 323.691 495.999 329.243 495.999 334.826V423.308C495.999 434.788 494.877 446.212 492.666 457.421ZM495.285 457.69C495.078 457.667 494.871 457.645 494.664 457.623C495.305 454.357 495.854 451.074 496.311 447.776V450.11C495.91 452.624 495.567 455.152 495.285 457.69ZM318.844 685.755C321.773 699.035 328.438 711.324 338.204 721.091C351.68 734.567 369.957 742.138 389.015 742.138H457.656C458.253 747.722 458.554 753.344 458.554 758.982V881.978H318.844V685.755ZM457.429 740.138H389.015C370.488 740.138 352.719 732.778 339.619 719.677C326.518 706.576 319.158 688.808 319.158 670.281V617.138C319.158 611.992 319.409 606.872 319.903 601.794C333.912 603.556 347.654 607.188 360.754 612.614C379.975 620.576 397.44 632.246 412.151 646.957C426.863 661.668 438.532 679.133 446.494 698.355C452.041 711.745 455.712 725.805 457.429 740.138ZM459.667 742.138C460.256 747.722 460.554 753.345 460.554 758.982V881.974C483.327 881.834 505.862 877.281 526.909 868.563C548.29 859.707 567.717 846.726 584.082 830.361C600.446 813.997 613.427 794.569 622.283 773.188C626.449 763.132 629.663 752.737 631.9 742.138H459.667ZM494.303 740.138H459.443C457.717 725.542 453.989 711.223 448.342 697.589C440.28 678.125 428.463 660.44 413.566 645.543C398.669 630.646 380.983 618.829 361.519 610.766C351.188 606.487 340.464 603.31 329.524 601.271C349.595 600.171 369.36 595.682 387.975 587.971C409.599 579.015 429.246 565.886 445.797 549.336C462.347 532.786 475.475 513.138 484.432 491.514C488.677 481.265 491.946 470.668 494.21 459.863H495.059C494.557 465.012 494.303 470.204 494.303 475.422V740.138ZM636.013 740.134H634.35C634.997 736.84 635.552 733.528 636.013 730.202V740.134ZM654.73 314.994C659.893 314.994 665.03 315.243 670.125 315.734C672.335 304.529 673.456 293.109 673.456 281.632V193.15C673.456 187.564 673.161 182.009 672.58 176.505H604.228C585.17 176.505 566.893 168.934 553.417 155.458C543.653 145.694 536.988 133.408 534.059 120.131V316.187H635.2C641.646 315.396 648.167 314.994 654.73 314.994ZM541.291 361.982C563.752 339.521 592.188 324.408 622.863 318.19H497.443C498.02 323.719 498.311 329.284 498.311 334.863V439.78C504.973 410.55 519.754 383.519 541.291 361.982ZM849.58 174.262C850.22 171 850.769 167.719 851.225 164.425V166.712C850.821 169.239 850.477 171.778 850.193 174.329L849.941 174.301C849.821 174.288 849.7 174.275 849.58 174.262ZM675.768 310.612C680.712 277.164 696.273 245.948 720.469 221.752C745.641 196.579 778.413 180.752 813.392 176.505H847.081C844.846 187.049 841.643 197.391 837.498 207.397C828.642 228.778 815.661 248.206 799.296 264.57C782.932 280.935 763.505 293.916 742.123 302.772C721.076 311.49 698.542 316.043 675.768 316.183V310.612ZM896.199 78.6209C918.667 56.1525 947.114 41.037 977.8 34.8231H852.356C852.934 40.3547 853.225 45.9229 853.225 51.5056V156.393C859.889 127.173 874.668 100.152 896.199 78.6209ZM1009.64 31.6328C1014.8 31.6328 1019.94 31.8819 1025.04 32.3733C1027.25 21.168 1028.37 9.74738 1028.37 -1.72894V-90.2112C1028.37 -95.797 1028.07 -101.352 1027.49 -106.857H959.144C940.086 -106.857 921.809 -114.427 908.333 -127.903C898.569 -137.668 891.904 -149.954 888.975 -163.231V32.8196H990.156C996.587 32.0329 1003.09 31.6328 1009.64 31.6328ZM282.463 601.542H317.616C317.103 606.745 316.844 611.992 316.844 617.265V881.981H211.556C193.029 881.981 175.26 874.621 162.16 861.521C149.059 848.42 141.699 830.652 141.699 812.125V758.982C141.699 716.965 158.391 676.668 188.101 646.957C213.619 621.439 246.945 605.526 282.463 601.542ZM317.826 599.534C318.109 596.992 318.452 594.46 318.854 591.942V476.543C318.854 470.96 318.559 465.393 317.974 459.862H249.314C230.256 459.862 211.979 452.292 198.503 438.816C188.738 429.051 182.074 416.765 179.145 403.488V599.538H282.383C288.247 598.886 294.17 598.555 300.126 598.555C306.051 598.555 311.96 598.883 317.826 599.534ZM1065.21 -389.315C1064.69 -384.106 1064.43 -378.852 1064.43 -373.573V-108.857H1029.59C1027.88 -123.509 1024.14 -137.884 1018.47 -151.569C1010.41 -171.033 998.594 -188.718 983.696 -203.615C968.799 -218.512 951.114 -230.329 931.65 -238.392C918.376 -243.89 904.452 -247.569 890.256 -249.352C894.208 -284.933 910.132 -318.323 935.689 -343.881C965.4 -373.592 1005.7 -390.283 1047.71 -390.283C1053.57 -390.283 1059.41 -389.959 1065.21 -389.315ZM1027.27 -108.857H959.144C940.617 -108.857 922.848 -116.216 909.748 -129.317C896.647 -142.418 889.287 -160.186 889.287 -178.713V-231.856C889.287 -237.055 889.543 -242.228 890.047 -247.358C924.649 -242.932 957.036 -227.168 981.968 -202.236C1007.25 -176.954 1023.1 -144.007 1027.27 -108.857ZM535.131 36.0045C535.458 36.0457 535.785 36.0878 536.111 36.131C570.345 40.727 602.357 56.428 627.054 81.125C652.336 106.407 668.191 139.354 672.355 174.505H604.228C585.701 174.505 567.932 167.145 554.832 154.044C541.731 140.944 534.371 123.175 534.371 104.648V51.5056C534.371 46.3066 534.627 41.134 535.131 36.0045ZM357.883 175.687C361.838 140.109 377.761 106.722 403.316 81.166C433.027 51.4551 473.324 34.7637 515.341 34.7637C521.196 34.7637 527.036 35.0883 532.832 35.7322C532.319 40.9413 532.059 46.1944 532.059 51.4744V316.19H497.221C495.504 301.535 491.769 287.157 486.1 273.47C478.037 254.006 466.22 236.321 451.323 221.424C436.426 206.527 418.741 194.71 399.277 186.647C386.003 181.149 372.079 177.471 357.883 175.687ZM674.676 174.505C672.958 159.855 669.224 145.481 663.557 131.798C655.494 112.334 643.677 94.6489 628.78 79.7518C613.883 64.8547 596.198 53.0377 576.734 44.9755C563.78 39.6099 550.208 35.9773 536.368 34.1475C536.208 34.1261 536.049 34.105 535.889 34.084C535.706 34.06 535.523 34.0363 535.339 34.0129C539.291 -1.56927 555.215 -34.9612 580.773 -60.5196C610.484 -90.2305 650.781 -106.922 692.798 -106.922C698.105 -106.922 703.398 -106.655 708.658 -106.126C708.948 -106.096 709.238 -106.066 709.528 -106.034C709.782 -106.007 710.036 -105.979 710.289 -105.95C709.776 -100.742 709.516 -95.4901 709.516 -90.2112V174.505H674.676ZM494.9 316.19H426.771C408.243 316.19 390.475 308.83 377.375 295.73C364.274 282.629 356.914 264.861 356.914 246.334V193.191C356.914 187.988 357.17 182.812 357.675 177.678C392.278 182.104 424.664 197.868 449.597 222.801C474.881 248.085 490.737 281.036 494.9 316.19ZM804.511 -60.5508C779.578 -85.4831 747.192 -101.247 712.589 -105.673C712.085 -100.545 711.83 -95.3736 711.83 -90.176V-37.0336C711.83 -18.5064 719.19 -0.738098 732.291 12.3625C745.391 25.4633 763.159 32.8231 781.687 32.8231H849.812C845.646 -2.32495 829.791 -35.27 804.511 -60.5508ZM887.748 -247.635C887.235 -242.426 886.975 -237.173 886.975 -231.893V32.8231H852.134C850.416 18.1715 846.682 3.79675 841.014 -9.88733C832.951 -29.3513 821.135 -47.0367 806.237 -61.9338C791.34 -76.8308 773.655 -88.6478 754.191 -96.7101C740.917 -102.208 726.994 -105.887 712.798 -107.67C716.751 -143.252 732.674 -176.643 758.232 -202.201C787.943 -231.912 828.24 -248.604 870.257 -248.604C876.112 -248.604 881.952 -248.279 887.748 -247.635ZM180.426 317.367C184.378 281.786 200.302 248.395 225.859 222.838C255.57 193.127 295.867 176.436 337.884 176.436C343.74 176.436 349.579 176.76 355.376 177.404C354.862 182.615 354.602 187.869 354.602 193.15V457.862H319.763C318.045 443.21 314.311 428.834 308.643 415.15C300.58 395.686 288.763 378 273.866 363.103C258.969 348.206 241.284 336.389 221.82 328.327C208.546 322.829 194.622 319.15 180.426 317.367ZM317.749 457.862H249.314C230.786 457.862 213.018 450.502 199.918 437.402C186.817 424.301 179.457 406.533 179.457 388.006V334.863C179.457 329.662 179.713 324.488 180.217 319.356C194.222 321.119 207.959 324.75 221.055 330.175C240.276 338.137 257.741 349.806 272.452 364.518C287.163 379.229 298.833 396.694 306.795 415.915C312.363 429.357 316.041 443.473 317.749 457.862ZM177.145 599.542H71.8565C53.3294 599.542 35.5611 592.182 22.4605 579.081C9.35986 565.981 2 548.212 2 529.685V476.543C2 434.525 18.6914 394.228 48.4022 364.518C78.1131 334.807 118.41 318.115 160.427 318.115C166.282 318.115 172.122 318.44 177.918 319.084C177.405 324.293 177.145 329.546 177.145 334.826V599.542Z" fill="url(#paint0_radial_1711_8010)"/>
</g>
<defs>
<radialGradient id="paint0_radial_1711_8010" cx="0" cy="0" r="1" gradientUnits="userSpaceOnUse" gradientTransform="translate(303 516) rotate(-16.3611) scale(454.401 487.315)">
<stop offset="0.0208333" stop-color="#D2DDE8"/>
<stop offset="1" stop-color="#D2DDE8" stop-opacity="0"/>
</radialGradient>
<clipPath id="clip0_1711_8010">
<rect width="675" height="884" fill="white"/>
</clipPath>
</defs>
</svg>
