<svg width="878" height="787" viewBox="0 0 878 787" fill="none" xmlns="http://www.w3.org/2000/svg">
<g clip-path="url(#clip0_1711_7972)">
<path fill-rule="evenodd" clip-rule="evenodd" d="M1012.86 -629C970.841 -629 930.545 -612.309 900.834 -582.598C875.277 -557.041 859.353 -523.651 855.4 -488.071C869.705 -486.302 883.736 -482.61 897.107 -477.071C916.571 -469.009 934.256 -457.192 949.153 -442.295C964.051 -427.398 975.867 -409.713 983.93 -390.249C991.992 -370.785 996.141 -349.923 996.141 -328.856V-223.956C1002.8 -253.18 1017.58 -280.204 1039.12 -301.736C1069.2 -331.822 1110.01 -348.725 1152.56 -348.725C1157.72 -348.725 1162.86 -348.476 1167.95 -347.984C1170.16 -359.191 1171.29 -370.613 1171.29 -382.09V-470.573C1171.29 -512.59 1154.59 -552.887 1124.88 -582.598C1095.17 -612.309 1054.88 -629 1012.86 -629ZM993.112 -206.031C993.395 -208.577 993.738 -211.112 994.141 -213.633V-215.942C993.685 -212.646 993.136 -209.364 992.495 -206.1C992.679 -206.08 992.863 -206.059 993.046 -206.039L993.112 -206.031ZM992.129 -188.297C992.129 -193.515 992.383 -198.707 992.885 -203.857H992.04C989.776 -193.051 986.507 -182.454 982.262 -172.205C973.305 -150.581 960.177 -130.933 943.627 -114.383C927.077 -97.8326 907.429 -84.7042 885.805 -75.7473C867.397 -68.1226 847.864 -63.6479 828.023 -62.4855C838.731 -60.4424 849.229 -57.3082 859.349 -53.1163C878.813 -45.0541 896.499 -33.2371 911.396 -18.34C926.293 -3.44293 938.11 14.2424 946.172 33.7064C951.84 47.3911 955.575 61.7665 957.292 76.4188H992.129V-188.297ZM1135.84 78.412C1158.88 78.2717 1181.67 73.6668 1202.96 64.8484C1224.58 55.8915 1244.23 42.7631 1260.78 26.2129C1277.33 9.66272 1290.46 -9.98529 1299.42 -31.6091C1308.37 -53.233 1312.98 -76.4094 1312.98 -99.8149V-188.297C1312.98 -230.845 1296.08 -271.651 1266 -301.736C1240.04 -327.693 1206.1 -343.837 1169.95 -347.779C1172.16 -359.055 1173.29 -370.545 1173.29 -382.09V-470.573C1173.29 -513.121 1156.38 -553.926 1126.3 -584.012C1096.21 -614.098 1055.41 -631 1012.86 -631C970.311 -631 929.506 -614.098 899.42 -584.012C873.544 -558.136 857.42 -524.33 853.414 -488.306C847.463 -488.979 841.45 -489.32 835.402 -489.32C792.854 -489.32 752.049 -472.418 721.963 -442.332C696.086 -416.456 679.962 -382.649 675.957 -346.625C670.005 -347.297 663.991 -347.639 657.943 -347.639C615.395 -347.639 574.59 -330.737 544.504 -300.651C518.627 -274.774 502.503 -240.967 498.498 -204.943C497.952 -205.003 497.405 -205.061 496.858 -205.116C491.443 -205.671 485.979 -205.953 480.486 -205.953C437.938 -205.953 397.133 -189.051 367.047 -158.965C341.171 -133.09 325.048 -99.2858 321.042 -63.2635C315.09 -63.9359 309.077 -64.2773 303.029 -64.2773C260.481 -64.2773 219.676 -47.3752 189.59 -17.2892C163.714 8.586 147.591 42.39 143.585 78.4124C137.633 77.74 131.62 77.3984 125.572 77.3984C83.0238 77.3984 42.2185 94.3005 12.1326 124.387C-13.7442 150.263 -29.868 184.07 -33.8731 220.095C-39.739 219.443 -45.6478 219.115 -51.5728 219.115C-94.1208 219.115 -134.926 236.017 -165.012 266.103C-195.098 296.189 -212 336.995 -212 379.543V432.685C-212 451.743 -204.429 470.02 -190.954 483.495C-177.478 496.971 -159.201 504.542 -140.143 504.542H57.3086C26.2329 510.625 -2.59564 525.826 -25.3127 548.543C-55.3987 578.629 -72.3008 619.434 -72.3008 661.982V715.125C-72.3008 734.182 -64.7302 752.459 -51.2545 765.935C-37.7788 779.411 -19.5018 786.981 -0.444244 786.981H247.554H248.554V786.974C271.59 786.834 294.384 782.229 315.674 773.411C337.298 764.454 356.946 751.326 373.496 734.775C390.046 718.225 403.174 698.577 412.131 676.953C416.398 666.653 419.678 656 421.944 645.138H425.013H426.013V645.131C449.049 644.99 471.843 640.386 493.133 631.567C514.757 622.61 534.405 609.482 550.955 592.932C567.505 576.381 580.633 556.733 589.59 535.11C593.835 524.861 597.104 514.265 599.368 503.46H602.464H603.464V503.453C626.5 503.313 649.294 498.708 670.584 489.889C692.208 480.932 711.856 467.804 728.406 451.254C744.956 434.704 758.084 415.056 767.041 393.432C771.287 383.182 774.556 372.583 776.82 361.776H779.921H780.921V361.769C803.957 361.629 826.751 357.024 848.041 348.206C869.665 339.249 889.313 326.12 905.863 309.57C922.413 293.02 935.542 273.372 944.498 251.748C948.743 241.5 952.012 230.903 954.276 220.099H957.384H958.384V220.092C981.42 219.951 1004.21 215.346 1025.5 206.528C1047.13 197.571 1066.78 184.443 1083.33 167.893C1099.88 151.342 1113 131.694 1121.96 110.071C1126.21 99.8217 1129.48 89.2242 1131.74 78.4188H1134.84H1135.84V78.412ZM1129.7 78.4188H957.514C958.092 83.9498 958.384 89.5173 958.384 95.0994V218.092C981.157 217.951 1003.69 213.398 1024.74 204.68C1046.12 195.824 1065.55 182.843 1081.91 166.478C1098.28 150.114 1111.26 130.686 1120.11 109.305C1124.26 99.3011 1127.46 88.961 1129.7 78.4188ZM954.965 76.4188C950.801 41.2671 934.946 8.31824 909.663 -16.9648C884.732 -41.8964 852.346 -57.6603 817.745 -62.0867C817.24 -56.9555 816.984 -51.7811 816.984 -46.5803V6.56213C816.984 25.0893 824.344 42.8576 837.445 55.9583C850.546 69.059 868.314 76.4188 886.841 76.4188H954.965ZM1005.48 -204.165C1025.32 -205.327 1044.85 -209.802 1063.26 -217.427C1084.89 -226.384 1104.53 -239.512 1121.08 -256.062C1137.63 -272.613 1150.76 -292.261 1159.72 -313.885C1164 -324.22 1167.29 -334.91 1169.55 -345.811C1205.32 -341.952 1238.9 -325.999 1264.58 -300.322C1294.29 -270.611 1310.98 -230.315 1310.98 -188.297V-99.8149C1310.98 -76.672 1306.43 -53.7557 1297.57 -32.3745C1288.71 -10.9933 1275.73 8.4342 1259.37 24.7987C1243 41.1631 1223.57 54.1442 1202.19 63.0006C1181.15 71.7185 1158.61 76.2717 1135.84 76.4119V-46.5803C1135.84 -67.6479 1131.69 -88.5093 1123.63 -107.973C1115.56 -127.437 1103.75 -145.123 1088.85 -160.02C1073.95 -174.917 1056.27 -186.734 1036.8 -194.796C1026.68 -198.988 1016.19 -202.122 1005.48 -204.165ZM1133.84 66.3472V76.4153H1132.15C1132.81 73.0768 1133.37 69.7194 1133.84 66.3472ZM956.343 -203.857H989.996C987.761 -193.314 984.558 -182.974 980.414 -172.97C971.558 -151.589 958.577 -132.162 942.212 -115.797C925.848 -99.4326 906.421 -86.4515 885.039 -77.5951C863.992 -68.8772 841.458 -64.324 818.684 -64.1838V-69.7319C823.626 -103.186 839.188 -134.407 863.387 -158.605C888.567 -183.786 921.351 -199.615 956.343 -203.857ZM816.674 22.0535C819.605 35.3272 826.268 47.6098 836.031 57.3724C849.506 70.8482 867.783 78.4188 886.841 78.4188H955.189C955.77 83.9217 956.065 89.4758 956.065 95.0603V183.543C956.065 195.173 954.914 206.745 952.645 218.095H816.674V22.0535ZM994.129 76.4153H1130.11C1132.38 65.0663 1133.53 53.4942 1133.53 41.8648V-46.6174C1133.53 -88.635 1116.84 -128.932 1087.13 -158.643C1062.12 -183.651 1029.61 -199.435 994.889 -203.805C994.385 -198.673 994.129 -193.498 994.129 -188.297V76.4153ZM1157.87 -314.65C1162.08 -324.805 1165.31 -335.306 1167.55 -346.014C1162.59 -346.486 1157.59 -346.725 1152.56 -346.725C1110.54 -346.725 1070.24 -330.033 1040.53 -300.322C1016.82 -276.612 1001.4 -246.161 996.141 -213.474V-205.863C1018.92 -206.004 1041.45 -210.557 1062.5 -219.275C1083.88 -228.131 1103.31 -241.112 1119.67 -257.477C1136.03 -273.841 1149.01 -293.269 1157.87 -314.65ZM975.101 -207.045C980.264 -207.045 985.402 -206.796 990.497 -206.305C992.708 -217.511 993.829 -228.933 993.829 -240.411V-328.893C993.829 -370.91 977.138 -411.207 947.427 -440.918C922.419 -465.926 889.912 -481.709 855.192 -486.08C854.687 -480.948 854.432 -475.774 854.432 -470.573V-205.86H955.634C962.06 -206.645 968.56 -207.045 975.101 -207.045ZM603.464 501.453C626.237 501.313 648.772 496.76 669.819 488.042C691.2 479.185 710.627 466.204 726.992 449.84C743.356 433.475 756.337 414.048 765.194 392.667C769.338 382.661 772.541 372.32 774.776 361.776H602.594C603.172 367.308 603.464 372.877 603.464 378.461V501.453ZM601.464 491.414V501.456H599.776C600.434 498.126 600.997 494.778 601.464 491.414ZM462.826 221.274C462.954 221.29 463.082 221.306 463.209 221.323C497.671 225.814 529.913 241.554 554.755 266.396C580.037 291.679 595.892 324.626 600.057 359.776H531.923C513.396 359.776 495.628 352.416 482.527 339.316C469.426 326.215 462.066 308.447 462.066 289.92V236.777C462.066 231.577 462.322 226.404 462.826 221.274ZM286.311 355.296C291.255 321.847 306.816 290.631 331.012 266.436C356.181 241.267 388.946 225.441 423.919 221.19H457.622C455.387 231.731 452.185 242.07 448.041 252.073C439.185 273.454 426.204 292.881 409.839 309.246C393.475 325.61 374.047 338.591 352.666 347.448C331.619 356.166 309.085 360.719 286.311 360.859V355.296ZM602.372 359.776C600.654 345.125 596.92 330.751 591.252 317.068C583.19 297.604 571.373 279.918 556.476 265.021C541.579 250.124 523.893 238.307 504.429 230.245C494.317 226.056 483.827 222.924 473.127 220.88C492.962 219.716 512.487 215.242 530.889 207.62C552.513 198.663 572.161 185.535 588.711 168.984C605.261 152.434 618.389 132.786 627.346 111.162C631.592 100.912 634.861 90.3122 637.125 79.5048H637.966C637.465 84.6527 637.211 89.8434 637.211 95.0603V359.776H602.372ZM284.303 447.112C287.236 460.379 293.897 472.655 303.656 482.413C317.131 495.889 335.408 503.46 354.466 503.46H422.805C423.397 509.016 423.698 514.625 423.698 520.265V608.748C423.698 620.321 422.558 631.838 420.311 643.134H284.303V447.112ZM422.579 501.46H354.466C335.939 501.46 318.171 494.1 305.07 480.999C291.969 467.899 284.609 450.13 284.609 431.603V378.461C284.609 373.314 284.86 368.194 285.354 363.115C319.964 367.538 352.359 383.303 377.296 408.24C402.54 433.484 418.385 466.37 422.579 501.46ZM424.922 501.46C423.204 486.807 419.469 472.431 413.801 458.745C405.739 439.281 393.922 421.596 379.025 406.699C364.128 391.802 346.442 379.985 326.978 371.923C316.863 367.733 306.37 364.6 295.667 362.556C315.502 361.392 335.029 356.918 353.432 349.296C375.056 340.339 394.703 327.21 411.254 310.66C427.804 294.11 440.932 274.462 449.889 252.838C454.134 242.591 457.402 231.994 459.666 221.19H460.509C460.008 226.338 459.754 231.528 459.754 236.744V501.46H424.922ZM425.143 503.46H597.324C595.089 514.001 591.886 524.341 587.742 534.344C578.886 555.725 565.905 575.153 549.541 591.517C533.176 607.882 513.749 620.863 492.367 629.719C471.321 638.437 448.786 642.99 426.013 643.131V520.138C426.013 514.557 425.721 508.99 425.143 503.46ZM778.921 359.773H777.228C777.888 356.431 778.453 353.07 778.921 349.694V359.773ZM778.608 236.744C778.608 231.158 778.313 225.603 777.732 220.099H709.386C690.328 220.099 672.051 212.528 658.576 199.052C648.804 189.281 642.138 176.985 639.211 163.698V359.773H775.189C777.458 348.425 778.608 336.854 778.608 325.226V236.744ZM732.206 124.719C707.275 99.7875 674.89 84.0237 640.289 79.597C639.785 84.7269 639.529 89.9 639.529 95.0994V148.242C639.529 166.769 646.889 184.537 659.99 197.638C673.09 210.739 690.859 218.099 709.386 218.099H777.508C773.343 182.948 757.488 150.001 732.206 124.719ZM460.737 219.007C461.02 216.458 461.364 213.92 461.768 211.396V209.101C461.312 212.396 460.763 215.676 460.123 218.939C460.328 218.962 460.532 218.984 460.737 219.007ZM506.742 123.305C529.213 100.834 557.663 85.7175 588.353 79.5048H462.898C463.477 85.0376 463.768 90.6071 463.768 96.1912V201.077C470.432 171.856 485.211 144.835 506.742 123.305ZM620.181 76.3164C625.346 76.3164 630.485 76.5654 635.582 77.0569C637.792 65.8522 638.913 54.4323 638.913 42.9566V-45.5256C638.913 -51.1135 638.618 -56.6708 638.036 -62.1769H569.687C550.629 -62.1769 532.352 -69.7475 518.876 -83.2233C509.109 -92.9902 502.444 -105.279 499.516 -118.56V77.5012H600.715C607.141 76.7158 613.64 76.3164 620.181 76.3164ZM461.754 501.456H597.737C600.006 490.107 601.157 478.534 601.157 466.904V378.422C601.157 372.836 600.862 367.28 600.281 361.776H531.923C512.865 361.776 494.588 354.206 481.113 340.73C471.348 330.965 464.684 318.679 461.754 305.402V501.456ZM956.384 207.969V218.095H954.684C955.348 214.737 955.914 211.36 956.384 207.969ZM641.225 71.9742C646.163 38.5106 661.726 7.27936 685.932 -16.9258C711.112 -42.1063 743.896 -57.9351 778.887 -62.1769H812.538C810.302 -51.634 807.099 -41.2933 802.955 -31.2886C794.099 -9.90735 781.118 9.52014 764.753 25.8846C748.389 42.2491 728.962 55.2301 707.58 64.0865C686.534 72.8044 663.999 77.3576 641.225 77.4979V71.9742ZM779.83 218.099C778.112 203.446 774.378 189.069 768.709 175.384C760.647 155.92 748.83 138.235 733.933 123.338C719.036 108.441 701.35 96.6237 681.886 88.5614C671.771 84.3716 661.279 81.2386 650.577 79.1954C670.414 78.0319 689.942 73.5574 708.346 65.9343C729.97 56.9774 749.618 43.849 766.168 27.2988C782.718 10.7487 795.846 -8.89935 804.803 -30.5232C809.049 -40.7726 812.317 -51.3708 814.582 -62.1769H815.43C814.928 -57.0276 814.674 -51.8356 814.674 -46.6174V218.099H779.83ZM780.051 220.099H952.232C949.997 230.64 946.794 240.979 942.651 250.983C933.794 272.364 920.813 291.792 904.449 308.156C888.084 324.521 868.657 337.502 847.276 346.358C826.229 355.076 803.694 359.629 780.921 359.769V236.777C780.921 231.196 780.63 225.629 780.051 220.099ZM815.657 -64.3527C815.939 -66.8939 816.282 -69.4241 816.684 -71.9412V-74.2749C816.227 -70.975 815.678 -67.6891 815.037 -64.4214L815.329 -64.3893C815.438 -64.3772 815.548 -64.365 815.657 -64.3527ZM818.684 -187.176V-82.2675C825.346 -111.495 840.127 -138.522 861.662 -160.057C884.133 -182.528 912.583 -197.644 943.273 -203.857H817.815C818.393 -198.326 818.684 -192.758 818.684 -187.176ZM108.854 497.013C113.791 463.55 129.355 432.318 153.56 408.113C168.716 392.958 186.626 381.19 206.114 373.297C219.243 368.012 233.083 364.485 247.277 362.863H280.166C277.931 373.405 274.728 383.745 270.584 393.749C261.728 415.13 248.747 434.557 232.382 450.922C216.018 467.286 196.59 480.267 175.209 489.124C154.162 497.842 131.628 502.395 108.854 502.535V497.013ZM233.939 362.863C224.15 364.832 214.588 367.708 205.374 371.439C185.514 379.432 167.263 391.395 151.832 406.826C130.297 428.361 115.516 455.388 108.854 484.615V379.543C108.854 373.961 108.563 368.393 107.985 362.862H142.602V362.863H143.602H233.939ZM280.666 360.421C275.662 359.949 270.629 359.711 265.585 359.711C259.139 359.711 252.732 360.099 246.397 360.862H144.602V164.816C147.531 178.093 154.196 190.379 163.96 200.144C177.436 213.62 195.713 221.19 214.771 221.19H283.124C283.704 226.691 283.999 232.243 283.999 237.826V326.308C283.999 337.788 282.877 349.212 280.666 360.421ZM283.285 360.69C283.078 360.667 282.871 360.645 282.664 360.623C283.305 357.357 283.854 354.074 284.311 350.776V353.11C283.91 355.624 283.567 358.152 283.285 360.69ZM106.844 588.755C109.773 602.035 116.438 614.324 126.204 624.091C139.68 637.567 157.957 645.138 177.015 645.138H245.656C246.253 650.722 246.554 656.344 246.554 661.982V784.978H106.844V588.755ZM245.429 643.138H177.015C158.488 643.138 140.719 635.778 127.619 622.677C114.518 609.576 107.158 591.808 107.158 573.281V520.138C107.158 514.992 107.409 509.872 107.903 504.794C121.912 506.556 135.654 510.188 148.754 515.614C167.975 523.576 185.44 535.246 200.151 549.957C214.863 564.668 226.532 582.133 234.494 601.355C240.041 614.745 243.712 628.805 245.429 643.138ZM247.667 645.138C248.256 650.722 248.554 656.345 248.554 661.982V784.974C271.327 784.834 293.862 780.281 314.909 771.563C336.29 762.707 355.717 749.726 372.082 733.361C388.446 716.997 401.427 697.569 410.283 676.188C414.449 666.132 417.663 655.737 419.9 645.138H247.667ZM282.303 643.138H247.443C245.717 628.542 241.989 614.223 236.342 600.589C228.28 581.125 216.463 563.44 201.566 548.543C186.669 533.646 168.983 521.829 149.519 513.766C139.188 509.487 128.464 506.31 117.524 504.271C137.595 503.171 157.36 498.682 175.975 490.971C197.599 482.015 217.246 468.886 233.797 452.336C250.347 435.786 263.475 416.138 272.432 394.514C276.677 384.265 279.946 373.668 282.21 362.863H283.059C282.557 368.012 282.303 373.204 282.303 378.422V643.138ZM424.013 643.134H422.35C422.997 639.84 423.552 636.528 424.013 633.202V643.134ZM442.73 217.994C447.893 217.994 453.03 218.243 458.125 218.734C460.335 207.529 461.456 196.109 461.456 184.632V96.1501C461.456 90.5643 461.161 85.0089 460.58 79.5048H392.228C373.17 79.5048 354.893 71.9341 341.417 58.4584C331.653 48.6935 324.988 36.4077 322.059 23.1306V219.187H423.2C429.646 218.396 436.167 217.994 442.73 217.994ZM329.291 264.982C351.752 242.521 380.188 227.408 410.863 221.19H285.443C286.02 226.719 286.311 232.284 286.311 237.863V342.78C292.973 313.55 307.754 286.519 329.291 264.982ZM637.58 77.2621C638.22 73.9997 638.769 70.7192 639.225 67.4247V69.7121C638.821 72.2386 638.477 74.7782 638.193 77.329L637.941 77.3011C637.821 77.288 637.7 77.275 637.58 77.2621ZM463.768 213.612C468.712 180.164 484.273 148.948 508.469 124.752C533.641 99.5791 566.413 83.7523 601.392 79.5048H635.081C632.846 90.049 629.643 100.391 625.498 110.397C616.642 131.778 603.661 151.206 587.296 167.57C570.932 183.935 551.505 196.916 530.123 205.772C509.076 214.49 486.542 219.043 463.768 219.183V213.612ZM684.199 -18.3791C706.667 -40.8475 735.114 -55.963 765.8 -62.1769H640.356C640.934 -56.6453 641.225 -51.0771 641.225 -45.4944V59.3931C647.889 30.1725 662.668 3.15179 684.199 -18.3791ZM797.638 -65.3672C802.803 -65.3672 807.942 -65.1181 813.039 -64.6267C815.249 -75.832 816.37 -87.2526 816.37 -98.7289V-187.211C816.37 -192.797 816.075 -198.352 815.494 -203.857H747.144C728.086 -203.857 709.809 -211.427 696.333 -224.903C686.569 -234.668 679.904 -246.954 676.975 -260.231V-64.1804H778.156C784.587 -64.9671 791.092 -65.3672 797.638 -65.3672ZM70.4631 504.542H105.616C105.103 509.745 104.844 514.992 104.844 520.265V784.981H-0.444244C-18.9714 784.981 -36.7396 777.621 -49.8403 764.521C-62.9409 751.42 -70.3008 733.652 -70.3008 715.125V661.982C-70.3008 619.965 -53.6094 579.668 -23.8985 549.957C1.61894 524.439 34.9448 508.526 70.4631 504.542ZM105.826 502.534C106.109 499.992 106.452 497.46 106.854 494.942V379.543C106.854 373.96 106.559 368.392 105.974 362.862H37.3136C18.256 362.862 -0.0209656 355.291 -13.4967 341.816C-23.2615 332.051 -29.9257 319.765 -32.8555 306.488V502.538H70.3834C76.2471 501.886 82.1697 501.555 88.1264 501.555C94.0515 501.555 99.9602 501.883 105.826 502.534ZM853.205 -486.315C852.692 -481.106 852.432 -475.852 852.432 -470.573V-205.857H817.593C815.875 -220.509 812.141 -234.884 806.473 -248.569C798.41 -268.033 786.594 -285.718 771.696 -300.615C756.799 -315.512 739.114 -327.329 719.65 -335.392C706.376 -340.89 692.452 -344.569 678.256 -346.352C682.208 -381.933 698.132 -415.323 723.689 -440.881C753.4 -470.592 793.697 -487.283 835.714 -487.283C841.57 -487.283 847.409 -486.959 853.205 -486.315ZM815.27 -205.857H747.144C728.617 -205.857 710.848 -213.216 697.748 -226.317C684.647 -239.418 677.287 -257.186 677.287 -275.713V-328.856C677.287 -334.055 677.543 -339.228 678.047 -344.358C712.649 -339.932 745.036 -324.168 769.968 -299.236C795.25 -273.954 811.105 -241.007 815.27 -205.857ZM323.131 -60.9955C323.458 -60.9543 323.785 -60.9122 324.111 -60.869C358.345 -56.273 390.357 -40.572 415.054 -15.875C440.336 9.40717 456.191 42.3545 460.355 77.5048H392.228C373.701 77.5048 355.932 70.1449 342.832 57.0442C329.731 43.9435 322.371 26.1752 322.371 7.64807V-45.4944C322.371 -50.6934 322.627 -55.866 323.131 -60.9955ZM145.883 78.6868C149.838 43.1089 165.761 9.72156 191.316 -15.834C221.027 -45.5449 261.324 -62.2363 303.341 -62.2363C309.196 -62.2363 315.036 -61.9117 320.832 -61.2678C320.319 -56.0587 320.059 -50.8056 320.059 -45.5256V219.19H285.221C283.504 204.535 279.769 190.157 274.1 176.47C266.037 157.006 254.22 139.321 239.323 124.423C224.426 109.526 206.741 97.7094 187.277 89.6472C174.003 84.1489 160.079 80.4705 145.883 78.6868ZM462.676 77.5048C460.958 62.8546 457.224 48.4811 451.557 34.7982C443.494 15.3342 431.677 -2.35114 416.78 -17.2482C401.883 -32.1453 384.198 -43.9623 364.734 -52.0245C351.78 -57.3901 338.208 -61.0227 324.368 -62.8525C324.208 -62.8739 324.049 -62.895 323.889 -62.916C323.706 -62.94 323.523 -62.9637 323.339 -62.9871C327.291 -98.5693 343.215 -131.961 368.773 -157.52C398.484 -187.23 438.781 -203.922 480.798 -203.922C486.105 -203.922 491.398 -203.655 496.658 -203.126C496.948 -203.096 497.238 -203.066 497.528 -203.034C497.782 -203.007 498.036 -202.979 498.289 -202.95C497.776 -197.742 497.516 -192.49 497.516 -187.211V77.5048H462.676ZM282.9 219.19H214.771C196.243 219.19 178.475 211.83 165.375 198.73C152.274 185.629 144.914 167.861 144.914 149.334V96.1912C144.914 90.9883 145.17 85.8118 145.675 80.6785C180.278 85.1043 212.664 100.868 237.597 125.801C262.881 151.085 278.737 184.036 282.9 219.19ZM592.511 -157.551C567.578 -182.483 535.192 -198.247 500.589 -202.673C500.085 -197.545 499.83 -192.374 499.83 -187.176V-134.034C499.83 -115.506 507.19 -97.7381 520.291 -84.6375C533.391 -71.5367 551.159 -64.1769 569.687 -64.1769H637.812C633.646 -99.325 617.791 -132.27 592.511 -157.551ZM675.748 -344.635C675.235 -339.426 674.975 -334.173 674.975 -328.893V-64.1769H640.134C638.416 -78.8285 634.682 -93.2032 629.014 -106.887C620.951 -126.351 609.135 -144.037 594.237 -158.934C579.34 -173.831 561.655 -185.648 542.191 -193.71C528.917 -199.208 514.994 -202.887 500.798 -204.67C504.751 -240.252 520.674 -273.643 546.232 -299.201C575.943 -328.912 616.24 -345.604 658.257 -345.604C664.112 -345.604 669.952 -345.279 675.748 -344.635ZM-31.5744 220.367C-27.6218 184.786 -11.6982 151.395 13.8593 125.838C43.5701 96.1268 83.8667 79.4354 125.884 79.4354C131.74 79.4354 137.579 79.7599 143.376 80.4039C142.862 85.6144 142.602 90.8688 142.602 96.1501V360.862H107.763C106.045 346.21 102.311 331.834 96.6426 318.15C88.5804 298.686 76.7634 281 61.8664 266.103C46.9693 251.206 29.284 239.389 9.82002 231.327C-3.45413 225.829 -17.3782 222.15 -31.5744 220.367ZM105.749 360.862H37.3136C18.7865 360.862 1.01817 353.502 -12.0825 340.401C-25.1831 327.301 -32.543 309.532 -32.543 291.005V237.863C-32.543 232.662 -32.2872 227.487 -31.7827 222.356C-17.7777 224.119 -4.04123 227.75 9.05466 233.175C28.2759 241.137 45.7408 252.806 60.4521 267.518C75.1635 282.229 86.8331 299.694 94.7948 318.915C100.362 332.357 104.041 346.473 105.749 360.862ZM-34.8555 502.542H-140.143C-158.671 502.542 -176.439 495.182 -189.539 482.081C-202.64 468.981 -210 451.212 -210 432.685V379.543C-210 337.525 -193.309 297.228 -163.598 267.518C-133.887 237.807 -93.5903 221.115 -51.5728 221.115C-45.7176 221.115 -39.8785 221.44 -34.0817 222.084C-34.5952 227.293 -34.8555 232.546 -34.8555 237.826V502.542Z" fill="url(#paint0_radial_1711_7972)"/>
</g>
<defs>
<radialGradient id="paint0_radial_1711_7972" cx="0" cy="0" r="1" gradientUnits="userSpaceOnUse" gradientTransform="translate(462 606) rotate(-129.928) scale(479.883 514.644)">
<stop offset="0.0208333" stop-color="#D2DDE8"/>
<stop offset="1" stop-color="#D2DDE8" stop-opacity="0"/>
</radialGradient>
<clipPath id="clip0_1711_7972">
<rect width="878" height="787" fill="white"/>
</clipPath>
</defs>
</svg>
