<svg width="19" height="18" viewBox="0 0 19 18" fill="none" xmlns="http://www.w3.org/2000/svg">
<g clip-path="url(#clip0_1714_7402)">
<path fill-rule="evenodd" clip-rule="evenodd" d="M9.22641 0C4.13207 0 0 4.13207 0 9.22641C0 13.3019 2.66038 16.7547 6.28302 18C6.73585 18.0566 6.90566 17.7736 6.90566 17.5472C6.90566 17.3208 6.90566 16.7547 6.90566 15.9623C4.35849 16.5283 3.79245 14.717 3.79245 14.717C3.39623 13.6415 2.77358 13.3585 2.77358 13.3585C1.92453 12.7925 2.83019 12.7925 2.83019 12.7925C3.73585 12.8491 4.24528 13.7547 4.24528 13.7547C5.09434 15.1698 6.39623 14.7736 6.90566 14.5472C6.96226 13.9245 7.24528 13.5283 7.4717 13.3019C5.43396 13.0755 3.28302 12.283 3.28302 8.71698C3.28302 7.69811 3.62264 6.90566 4.24528 6.22641C4.18868 6.0566 3.84906 5.09434 4.35849 3.84906C4.35849 3.84906 5.15094 3.62264 6.90566 4.81132C7.64151 4.58491 8.43396 4.5283 9.22641 4.5283C10.0189 4.5283 10.8113 4.64151 11.5472 4.81132C13.3019 3.62264 14.0943 3.84906 14.0943 3.84906C14.6038 5.09434 14.2642 6.0566 14.2075 6.28302C14.7736 6.90566 15.1698 7.75472 15.1698 8.77358C15.1698 12.3396 13.0189 13.0755 10.9811 13.3019C11.3208 13.5849 11.6038 14.1509 11.6038 15C11.6038 16.2453 11.6038 17.2075 11.6038 17.5472C11.6038 17.7736 11.7736 18.0566 12.2264 18C15.9057 16.7547 18.5094 13.3019 18.5094 9.22641C18.4528 4.13207 14.3208 0 9.22641 0Z" fill="white"/>
</g>
<defs>
<clipPath id="clip0_1714_7402">
<rect width="18.4528" height="18" fill="white"/>
</clipPath>
</defs>
</svg>
