<svg width="516" height="442" viewBox="0 0 516 442" fill="none" xmlns="http://www.w3.org/2000/svg">
<g opacity="0.25" clip-path="url(#clip0_1715_7805)">
<path d="M349.576 4C392.432 4 433.533 21.0244 463.837 51.3282C494.14 81.6319 511.165 122.733 511.165 165.588V257.49C511.165 281.138 506.507 304.555 497.457 326.403C488.407 348.252 475.143 368.103 458.421 384.825C441.699 401.547 421.847 414.812 399.999 423.862C378.151 432.911 354.734 437.569 331.086 437.569H187.988V165.588C187.988 122.733 205.013 81.6319 235.316 51.3282C265.62 21.0244 306.721 4 349.576 4Z" stroke="#F4F6FA" stroke-width="8"/>
<path d="M165.588 151.189C186.808 151.189 207.821 155.369 227.425 163.49C247.03 171.61 264.843 183.513 279.848 198.518C294.853 213.522 306.756 231.336 314.876 250.941C322.997 270.545 327.176 291.558 327.176 312.778V437.569H73.5947C55.1371 437.569 37.4354 430.237 24.3838 417.185C11.3323 404.133 4 386.432 4 367.974V312.778C4 269.922 21.0244 228.821 51.3281 198.518C81.6317 168.214 122.732 151.189 165.588 151.189Z" stroke="#F4F6FA" stroke-width="8"/>
</g>
<defs>
<clipPath id="clip0_1715_7805">
<rect width="515.164" height="441.569" fill="white"/>
</clipPath>
</defs>
</svg>
