<svg width="23" height="18" viewBox="0 0 23 18" fill="none" xmlns="http://www.w3.org/2000/svg">
<g clip-path="url(#clip0_1714_7400)">
<path d="M22.0414 2.12677C21.2259 2.49231 20.3552 2.736 19.4406 2.84677C20.3773 2.28185 21.0936 1.39569 21.4242 0.332308C20.5536 0.852923 19.5838 1.22954 18.5479 1.44C17.7214 0.553846 16.5532 0 15.2418 0C12.7401 0 10.7234 2.03815 10.7234 4.54154C10.7234 4.896 10.7675 5.23938 10.8446 5.58277C7.08668 5.39446 3.75852 3.58892 1.52137 0.830769C1.13566 1.50646 0.90423 2.28185 0.90423 3.11262C0.90423 4.68554 1.6977 6.08123 2.92096 6.90092C2.1826 6.87877 1.47729 6.66831 0.871169 6.336C0.871169 6.35815 0.871169 6.36923 0.871169 6.39138C0.871169 8.59569 2.42505 10.4345 4.49688 10.8443C4.12219 10.944 3.71443 10.9994 3.30668 10.9994C3.02015 10.9994 2.73362 10.9662 2.45811 10.9218C3.03117 12.7274 4.70627 14.0455 6.67892 14.0788C5.13607 15.2972 3.18545 16.0283 1.05852 16.0283C0.694842 16.0283 0.331169 16.0062 -0.0214844 15.9618C1.98423 17.2468 4.35362 18 6.91035 18C15.2308 18 19.7712 11.0769 19.7712 5.07323C19.7712 4.87385 19.7712 4.68554 19.7601 4.48615C20.6638 3.84369 21.4352 3.04615 22.0414 2.12677Z" fill="white"/>
</g>
<defs>
<clipPath id="clip0_1714_7400">
<rect width="22.0408" height="18" fill="white"/>
</clipPath>
</defs>
</svg>
