<svg width="897" height="905" viewBox="0 0 897 905" fill="none" xmlns="http://www.w3.org/2000/svg">
<g clip-path="url(#clip0_1702_9454)">
<path fill-rule="evenodd" clip-rule="evenodd" d="M576.65 -302C531.703 -302 488.597 -284.145 456.815 -252.363C429.46 -225.008 412.423 -189.265 408.207 -151.18C423.52 -149.292 438.54 -145.343 452.853 -139.414C473.657 -130.797 492.56 -118.167 508.483 -102.244C524.405 -86.3213 537.036 -67.4183 545.653 -46.6143C554.271 -25.8104 558.706 -3.51279 558.706 19.0053V131.789C565.761 100.322 581.613 71.2144 604.776 48.0512C636.933 15.8939 680.548 -2.17188 726.025 -2.17188C731.566 -2.17188 737.078 -1.90372 742.547 -1.3746C744.919 -13.3807 746.122 -25.6182 746.122 -37.9156V-132.528C746.122 -177.475 728.267 -220.58 696.485 -252.363C664.703 -284.145 621.597 -302 576.65 -302ZM555.596 150.414C555.9 147.667 556.27 144.931 556.706 142.21V138.695C556.188 142.591 555.549 146.47 554.791 150.325C554.936 150.34 555.08 150.356 555.224 150.372L555.596 150.414ZM554.553 169.3C554.553 163.698 554.827 158.123 555.368 152.595H554.331C551.91 164.165 548.412 175.513 543.866 186.487C534.292 209.6 520.26 230.602 502.57 248.292C484.879 265.983 463.878 280.015 440.764 289.589C420.925 297.807 399.862 302.602 378.472 303.795C390.098 305.976 401.495 309.359 412.476 313.908C433.28 322.525 452.183 335.156 468.106 351.079C484.028 367.001 496.659 385.904 505.276 406.708C511.343 421.354 515.337 436.741 517.17 452.423H554.553V169.3ZM708.081 454.418C732.727 454.277 757.116 449.354 779.893 439.919C803.007 430.345 824.008 416.313 841.698 398.622C859.389 380.932 873.422 359.931 882.995 336.817C892.569 313.703 897.497 288.931 897.497 263.913V169.3C897.497 123.823 879.431 80.2085 847.274 48.0512C819.512 20.2894 783.211 3.03012 744.544 -1.16943C746.918 -13.2444 748.122 -25.55 748.122 -37.9156V-132.528C748.122 -178.005 730.056 -221.62 697.899 -253.777C665.742 -285.934 622.127 -304 576.65 -304C531.173 -304 487.558 -285.934 455.401 -253.777C427.727 -226.103 410.489 -189.943 406.22 -151.413C405.979 -151.44 405.737 -151.466 405.495 -151.492C405.324 -151.51 405.152 -151.528 404.98 -151.546C399.001 -152.18 392.965 -152.502 386.896 -152.502C341.419 -152.502 297.804 -134.436 265.647 -102.279C237.974 -74.6053 220.736 -38.4467 216.467 0.0820618C210.082 -0.641968 203.631 -1.00977 197.142 -1.00977C151.665 -1.00977 108.05 17.056 75.8931 49.2133C48.2188 76.8877 30.981 113.048 26.7126 151.578C25.6671 151.461 24.6202 151.354 23.5721 151.257C18.2155 150.749 12.8161 150.492 7.39014 150.492C-38.087 150.492 -81.7016 168.558 -113.859 200.715C-141.531 228.388 -158.769 264.545 -163.039 303.072C-169.422 302.348 -175.872 301.98 -182.36 301.98C-227.837 301.98 -271.452 320.046 -303.609 352.204C-331.283 379.878 -348.521 416.038 -352.789 454.568L-352.809 454.566C-359.187 453.843 -365.63 453.477 -372.112 453.477C-417.589 453.477 -461.204 471.542 -493.361 503.7C-521.035 531.374 -538.273 567.534 -542.541 606.064C-548.834 605.363 -555.172 605.01 -561.528 605.01C-607.005 605.01 -650.62 623.075 -682.777 655.233C-714.934 687.39 -733 731.005 -733 776.482V833.306C-733 853.665 -724.912 873.191 -710.516 887.587C-696.12 901.984 -676.594 910.071 -656.235 910.071H-444.376C-477.864 916.479 -508.946 932.785 -533.402 957.24C-565.559 989.398 -583.625 1033.01 -583.625 1078.49V1135.31C-583.625 1155.67 -575.537 1175.2 -561.141 1189.6C-546.745 1203.99 -527.219 1212.08 -506.86 1212.08H-241.681H-240.681V1212.07C-216.034 1211.93 -191.646 1207.01 -168.869 1197.58C-145.755 1188 -124.754 1173.97 -107.063 1156.28C-89.373 1138.59 -75.3403 1117.59 -65.7664 1094.47C-61.1979 1083.44 -57.6873 1072.04 -55.2653 1060.41H-51.9252H-50.9252V1060.4C-26.2793 1060.26 -1.8913 1055.34 20.8854 1045.9C43.9988 1036.33 65.0003 1022.3 82.6906 1004.6C100.381 986.914 114.414 965.913 123.988 942.799C128.532 931.828 132.029 920.483 134.45 908.915H137.819H138.819V908.91C163.466 908.769 187.854 903.846 210.631 894.412C233.745 884.838 254.746 870.805 272.437 853.115C290.127 835.424 304.16 814.423 313.734 791.309C318.279 780.335 321.778 768.986 324.198 757.415H327.569H328.569V757.41C353.215 757.269 377.603 752.346 400.38 742.912C423.493 733.338 444.494 719.305 462.185 701.615C479.875 683.924 493.908 662.923 503.482 639.809C508.027 628.835 511.525 617.488 513.946 605.917H517.329H518.329V605.912C542.975 605.771 567.364 600.848 590.141 591.414C613.255 581.84 634.256 567.807 651.947 550.116C669.637 532.426 683.669 511.425 693.243 488.311C697.788 477.339 701.286 465.992 703.707 454.423H707.081H708.081V454.418ZM701.663 454.423H517.391C518.015 460.36 518.329 466.336 518.329 472.328V603.912C542.713 603.771 566.841 598.9 589.376 589.566C612.247 580.092 633.028 566.207 650.532 548.702C668.037 531.198 681.922 510.417 691.396 487.546C695.839 476.818 699.271 465.729 701.663 454.423ZM514.815 452.423C510.374 414.794 493.409 379.52 466.346 352.458C439.661 325.773 404.994 308.906 367.956 304.182C367.412 309.692 367.137 315.248 367.137 320.833V377.658C367.137 397.487 375.014 416.503 389.035 430.525C403.056 444.546 422.073 452.423 441.902 452.423H514.815ZM568.209 152.298C589.605 151.106 610.673 146.311 630.518 138.091C653.632 128.517 674.633 114.485 692.323 96.7942C710.014 79.1039 724.047 58.1024 733.62 34.9889C738.205 23.9211 741.724 12.4727 744.147 0.799225C782.43 4.91541 818.378 21.9839 845.86 49.4654C877.642 81.2477 895.497 124.354 895.497 169.3V263.913C895.497 288.668 890.621 313.181 881.148 336.052C871.674 358.922 857.789 379.703 840.284 397.208C822.78 414.713 801.999 428.598 779.128 438.072C756.593 447.406 732.465 452.277 708.081 452.418V320.833C708.081 298.315 703.646 276.018 695.028 255.214C686.411 234.41 673.78 215.507 657.858 199.584C641.935 183.661 623.032 171.031 602.228 162.414C591.243 157.863 579.84 154.479 568.209 152.298ZM706.081 440.534V452.421H704.115C704.895 448.481 705.551 444.517 706.081 440.534ZM516.191 152.595H552.287C549.895 163.902 546.463 174.992 542.019 185.722C532.545 208.592 518.66 229.373 501.155 246.878C483.651 264.383 462.87 278.268 439.999 287.742C417.464 297.076 393.336 301.947 368.952 302.088V296.092C374.234 260.297 390.882 226.89 416.774 200.998C443.705 174.067 478.768 157.136 516.191 152.595ZM366.801 393.557C369.856 407.986 377.032 421.35 387.621 431.939C402.017 446.335 421.543 454.423 441.902 454.423H515.039C515.665 460.332 515.983 466.296 515.983 472.293V566.905C515.983 579.362 514.748 591.759 512.314 603.915H366.801V393.557ZM556.553 452.421H702.075C704.51 440.263 705.745 427.866 705.745 415.407V320.795C705.745 275.848 687.89 232.742 656.108 200.96C629.34 174.192 594.54 157.303 557.373 152.64C556.829 158.153 556.553 163.713 556.553 169.3V452.421ZM731.773 34.2235C736.282 23.3361 739.75 12.0767 742.146 0.59613C736.81 0.0863953 731.431 -0.171875 726.025 -0.171875C681.078 -0.171875 637.972 17.6832 606.19 49.4654C580.827 74.8285 564.333 107.403 558.706 142.37V150.59C583.09 150.448 607.218 145.578 629.753 136.244C652.624 126.77 673.405 112.885 690.909 95.38C708.414 77.8754 722.299 57.0944 731.773 34.2235ZM536.273 149.322C541.813 149.322 547.326 149.59 552.793 150.119C555.165 138.115 556.368 125.878 556.368 113.582V18.9704C556.368 -25.9765 538.513 -69.0824 506.731 -100.865C479.964 -127.632 445.164 -144.52 407.998 -149.184C407.454 -143.672 407.178 -138.114 407.178 -132.528V150.593H515.432C522.311 149.751 529.27 149.322 536.273 149.322ZM138.819 906.91C163.203 906.769 187.332 901.898 209.866 892.564C232.737 883.09 253.518 869.205 271.023 851.7C288.527 834.196 302.412 813.415 311.886 790.544C316.33 779.814 319.763 768.723 322.155 757.415H137.881C138.505 763.354 138.819 769.332 138.819 775.326V906.91ZM136.819 895.065V906.913H134.858C135.636 902.986 136.29 899.035 136.819 895.065ZM-11.5553 607.172C-11.4121 607.19 -11.2689 607.208 -11.1257 607.226C-11.0316 607.238 -10.9375 607.25 -10.8434 607.263L-10.5851 607.296C26.0938 612.186 60.3961 628.992 86.8519 655.448C113.915 682.511 130.88 717.785 135.321 755.415H62.3903C42.5613 755.415 23.5445 747.538 9.52325 733.517C-4.49799 719.496 -12.375 700.479 -12.375 680.65V623.826C-12.375 618.24 -12.0992 612.683 -11.5553 607.172ZM-200.304 750.544C-195.016 714.764 -178.37 681.373 -152.488 655.491C-125.556 628.559 -90.4927 611.628 -53.0684 607.087H-16.9709C-19.3627 618.391 -22.7943 629.478 -27.2372 640.204C-36.7106 663.075 -50.5959 683.856 -68.1006 701.36C-85.6051 718.865 -106.386 732.75 -129.257 742.224C-151.792 751.558 -175.92 756.429 -200.304 756.57V750.544ZM137.659 755.415C135.826 739.735 131.832 724.35 125.766 709.706C117.149 688.902 104.519 669.999 88.5961 654.077C72.6733 638.154 53.7704 625.523 32.9665 616.906C21.9807 612.356 10.5782 608.971 -1.05316 606.79C20.3439 605.599 41.4128 600.804 61.2584 592.583C84.3719 583.01 105.373 568.977 123.064 551.286C140.754 533.596 154.787 512.595 164.361 489.481C168.907 478.506 172.405 467.157 174.826 455.585H175.855C175.314 461.114 175.039 466.689 175.039 472.293V755.415H137.659ZM-202.455 848.077C-199.397 862.496 -192.223 875.849 -181.641 886.431C-167.245 900.828 -147.719 908.915 -127.36 908.915H-54.2272C-53.5888 914.88 -53.2648 920.902 -53.2648 926.957V1021.57C-53.2648 1033.97 -54.4877 1046.3 -56.8986 1058.4H-202.455V848.077ZM-54.4533 906.915H-127.36C-147.189 906.915 -166.206 899.038 -180.227 885.017C-194.248 870.996 -202.125 851.979 -202.125 832.15V775.326C-202.125 769.798 -201.855 764.297 -201.322 758.842C-164.273 763.561 -129.594 780.43 -102.902 807.122C-75.8803 834.143 -58.926 869.351 -54.4533 906.915ZM-52.0839 906.915C-53.9165 891.232 -57.9105 875.844 -63.9777 861.196C-72.595 840.392 -85.2255 821.49 -101.148 805.567C-117.071 789.644 -135.974 777.014 -156.778 768.396C-167.767 763.845 -179.172 760.46 -190.807 758.279C-169.409 757.088 -148.338 752.293 -128.492 744.072C-105.378 734.498 -84.3766 720.465 -66.6863 702.775C-48.996 685.084 -34.9633 664.083 -25.3894 640.969C-20.8452 629.999 -17.3478 618.654 -14.9271 607.087H-13.8936C-14.4346 612.615 -14.7088 618.19 -14.7088 623.793V906.915H-52.0839ZM-51.8621 908.915H132.406C130.015 920.22 126.583 931.308 122.14 942.034C112.666 964.905 98.7809 985.686 81.2764 1003.19C63.7718 1020.7 42.9908 1034.58 20.12 1044.05C-2.414 1053.39 -26.5419 1058.26 -50.9252 1058.4V926.816C-50.9252 920.826 -51.2391 914.851 -51.8621 908.915ZM326.569 755.413H324.606C325.385 751.48 326.04 747.523 326.569 743.546V755.413ZM326.235 623.793C326.235 617.794 325.917 611.828 325.29 605.917H252.15C231.791 605.917 212.265 597.83 197.869 583.433C187.269 572.833 180.089 559.452 177.039 545.005V755.413H322.567C325.001 743.257 326.235 730.862 326.235 718.405V623.793ZM276.598 503.958C249.912 477.272 215.243 460.405 178.204 455.681C177.66 461.19 177.385 466.745 177.385 472.328V529.152C177.385 548.981 185.262 567.998 199.283 582.019C213.304 596.04 232.321 603.917 252.15 603.917H325.066C320.624 566.29 303.66 531.019 276.598 503.958ZM-13.6656 604.902C-13.3608 602.151 -12.9901 599.414 -12.5541 596.69V593.207C-13.0718 597.095 -13.7094 600.966 -14.4656 604.813L-14.2781 604.833L-14.0608 604.857C-13.929 604.872 -13.7973 604.887 -13.6656 604.902ZM35.5142 502.543C59.7062 478.351 90.3827 462.134 123.458 455.585H-11.4922C-10.8683 461.524 -10.5541 467.503 -10.5541 473.497V586.272C-3.49786 554.809 12.3532 525.704 35.5142 502.543ZM156.763 452.32C162.304 452.32 167.818 452.589 173.287 453.118C175.659 441.112 176.862 428.874 176.862 416.577V321.964C176.862 315.967 176.544 310.002 175.918 304.093H102.773C82.4137 304.093 62.8881 296.005 48.4919 281.609C37.9008 271.018 30.7241 257.651 27.6701 243.218V453.583H135.986C142.845 452.746 149.782 452.32 156.763 452.32ZM-12.7088 906.913H132.819C135.254 894.754 136.489 882.355 136.489 869.895V775.283C136.489 769.287 136.171 763.323 135.545 757.415H62.3903C42.0309 757.415 22.5053 749.327 8.10907 734.931C-2.47748 724.344 -9.65265 710.984 -12.7088 696.558V906.913ZM516.329 591.958V603.915H514.354C515.138 599.952 515.797 595.965 516.329 591.958ZM179.198 447.599C184.478 411.799 201.127 378.388 227.022 352.493C253.946 325.569 288.996 308.64 326.407 304.093H362.532C360.14 315.398 356.708 326.487 352.265 337.214C342.791 360.085 328.906 380.866 311.401 398.37C293.897 415.875 273.116 429.76 250.245 439.234C227.71 448.568 203.582 453.439 179.198 453.58V447.599ZM365.844 301.91L365.502 301.872C365.347 301.855 365.192 301.838 365.036 301.822C365.795 297.965 366.433 294.085 366.952 290.187V293.717C366.517 296.434 366.147 299.166 365.844 301.91ZM327.409 603.917C325.576 588.236 321.583 572.851 315.516 558.206C306.899 537.402 294.269 518.499 278.346 502.576C262.423 486.654 243.52 474.023 222.716 465.406C211.729 460.854 200.324 457.47 188.69 455.289C210.09 454.098 231.162 449.303 251.01 441.082C274.124 431.508 295.125 417.475 312.816 399.784C330.506 382.094 344.539 361.093 354.113 337.979C358.657 327.007 362.155 315.662 364.576 304.093H365.616C365.075 309.62 364.801 315.193 364.801 320.795V603.917H327.409ZM327.631 605.917H511.902C509.51 617.225 506.078 628.315 501.634 639.044C492.161 661.915 478.275 682.696 460.771 700.2C443.266 717.705 422.485 731.59 399.614 741.064C377.08 750.398 352.952 755.269 328.569 755.41V623.826C328.569 617.833 328.255 611.855 327.631 605.917ZM368.952 170.504V283.292C376.006 251.822 391.859 222.711 415.024 199.545C439.206 175.363 469.868 159.149 502.929 152.595H368.014C368.638 158.533 368.952 164.51 368.952 170.504ZM-390.056 902.087C-384.776 866.288 -368.127 832.876 -342.232 806.981C-326.382 791.131 -307.715 778.745 -287.409 770.309C-272.94 764.336 -257.643 760.366 -241.943 758.576H-206.721C-209.113 769.882 -212.545 780.972 -216.989 791.7C-226.463 814.571 -240.348 835.352 -257.852 852.857C-275.357 870.361 -296.138 884.247 -319.009 893.72C-341.543 903.054 -365.672 907.925 -390.056 908.066V902.087ZM-255.535 758.576C-266.738 760.782 -277.667 764.098 -288.163 768.457C-308.846 776.995 -327.857 789.578 -343.986 805.707C-367.149 828.871 -383.001 857.978 -390.056 889.445V776.482C-390.056 770.49 -390.37 764.513 -390.993 758.576H-255.535ZM-206.217 756.109C-211.586 755.6 -216.985 755.344 -222.397 755.344C-229.285 755.344 -236.131 755.758 -242.901 756.573H-351.832V546.23C-348.776 560.656 -341.601 574.016 -331.014 584.603C-316.618 598.999 -297.092 607.087 -276.733 607.087H-203.583C-202.957 612.993 -202.64 618.955 -202.64 624.949V719.561C-202.64 731.861 -203.843 744.101 -206.217 756.109ZM-203.412 756.398C-203.681 756.368 -203.949 756.339 -204.218 756.31C-203.461 752.458 -202.822 748.582 -202.304 744.688V748.204C-202.739 750.922 -203.108 753.654 -203.412 756.398ZM-392.209 999.521C-389.156 1013.96 -381.978 1027.33 -371.385 1037.92C-356.989 1052.32 -337.463 1060.41 -317.104 1060.41H-243.649C-243.005 1066.4 -242.681 1072.44 -242.681 1078.49V1210.08H-392.209V999.521ZM-243.875 1058.41H-317.104C-336.933 1058.41 -355.95 1050.53 -369.971 1036.51C-383.992 1022.49 -391.869 1003.47 -391.869 983.64V926.816C-391.869 921.288 -391.599 915.789 -391.066 910.334C-376.056 912.217 -361.334 916.104 -347.299 921.918C-326.738 930.434 -308.055 942.918 -292.318 958.655C-276.581 974.392 -264.098 993.074 -255.581 1013.64C-249.638 1027.98 -245.708 1043.05 -243.875 1058.41ZM-241.637 1060.41C-241.001 1066.4 -240.681 1072.44 -240.681 1078.49V1210.07C-216.297 1209.93 -192.168 1205.06 -169.634 1195.73C-146.763 1186.25 -125.982 1172.37 -108.477 1154.86C-90.9729 1137.36 -77.0875 1116.58 -67.6141 1093.71C-63.147 1082.92 -59.7022 1071.77 -57.3088 1060.41H-241.637ZM-204.455 1058.41H-241.861C-243.703 1042.79 -247.69 1027.46 -253.734 1012.87C-262.351 992.066 -274.981 973.163 -290.904 957.24C-306.827 941.318 -325.73 928.687 -346.534 920.07C-357.756 915.421 -369.413 911.99 -381.305 909.815C-359.65 908.695 -338.321 903.884 -318.244 895.568C-295.13 885.994 -274.129 871.961 -256.438 854.271C-238.748 836.58 -224.715 815.579 -215.141 792.465C-210.596 781.492 -207.098 770.145 -204.677 758.576H-203.64C-204.181 764.104 -204.455 769.679 -204.455 775.283V1058.41ZM-52.9252 1058.4H-54.8596C-54.093 1054.51 -53.4478 1050.6 -52.9252 1046.67V1058.4ZM-32.9829 603.811C-27.4431 603.811 -21.9309 604.079 -16.4637 604.608C-14.0912 592.601 -12.8878 580.363 -12.8878 568.065V473.453C-12.8878 467.457 -13.2056 461.493 -13.8318 455.585H-86.9808C-107.34 455.585 -126.866 447.497 -141.262 433.101C-151.851 422.512 -159.027 409.148 -162.082 394.719V605.085H-53.8561C-46.9661 604.24 -39.9966 603.811 -32.9829 603.811ZM-154.232 654.034C-130.054 629.856 -99.4 613.644 -66.3469 607.087H-201.241C-200.618 613.022 -200.304 618.996 -200.304 624.986V737.78C-193.25 706.31 -177.397 677.199 -154.232 654.034ZM176.082 453.407C175.816 453.378 175.551 453.349 175.285 453.321C176.042 449.47 176.68 445.596 177.198 441.704V445.165C176.76 447.899 176.388 450.647 176.082 453.407ZM-10.5541 599.044C-5.26562 563.264 11.3802 529.873 37.2622 503.991C64.1976 477.055 99.2662 460.123 136.696 455.585H172.782C170.39 466.894 166.957 477.985 162.513 488.716C153.039 511.587 139.154 532.368 121.649 549.872C104.145 567.377 83.3639 581.262 60.493 590.736C37.9585 600.07 13.8298 604.941 -10.5541 605.082V599.044ZM225.262 351.043C249.444 326.861 280.106 310.648 313.166 304.093H178.261C178.884 310.029 179.198 316.004 179.198 321.995V434.755C186.256 403.298 202.106 374.2 225.262 351.043ZM346.511 300.82C352.054 300.82 357.568 301.089 363.038 301.618C365.411 289.611 366.614 277.373 366.614 265.075V170.463C366.614 164.466 366.296 158.503 365.67 152.595H292.527C272.168 152.595 252.642 144.507 238.246 130.111C227.655 119.52 220.478 106.152 217.424 91.7195V302.091H325.67C332.549 301.249 339.508 300.82 346.511 300.82ZM-431.031 910.071H-393.376C-393.929 915.659 -394.209 921.293 -394.209 926.957V1210.08H-506.86C-526.689 1210.08 -545.706 1202.2 -559.727 1188.18C-573.748 1174.16 -581.625 1155.14 -581.625 1135.31V1078.49C-581.625 1033.54 -563.77 990.437 -531.988 958.655C-504.687 931.354 -469.031 914.33 -431.031 910.071ZM-393.187 908.069H-393.166C-392.862 905.322 -392.491 902.587 -392.056 899.866V776.482C-392.056 770.489 -392.374 764.512 -393.005 758.576H-466.483C-486.842 758.576 -506.368 750.488 -520.764 736.091C-531.353 725.503 -538.529 712.139 -541.584 697.709V908.069H-431.124C-424.855 907.372 -418.522 907.017 -412.153 907.017C-405.804 907.017 -399.472 907.37 -393.187 908.069ZM404.767 -149.558C405.182 -149.514 405.597 -149.468 406.012 -149.421C405.458 -143.831 405.178 -138.194 405.178 -132.528V150.595H367.792C365.959 134.914 361.965 119.529 355.899 104.884C347.282 84.08 334.651 65.177 318.729 49.2543C302.806 33.3316 283.903 20.7011 263.099 12.0838C248.891 6.19852 233.986 2.26416 218.79 0.36087C223.005 -37.7274 240.043 -73.4733 267.399 -100.83C299.181 -132.612 342.287 -150.467 387.234 -150.467C393.101 -150.467 398.953 -150.162 404.767 -149.558ZM365.446 150.595H292.527C272.698 150.595 253.681 142.718 239.66 128.697C225.639 114.675 217.762 95.6584 217.762 75.8294V19.0053C217.762 13.4194 218.037 7.86197 218.581 2.35117C255.621 7.0741 290.291 23.9413 316.977 50.6275C344.04 77.6909 361.005 112.965 365.446 150.595ZM-160.927 305.344C-160.733 305.368 -160.539 305.393 -160.344 305.418C-160.017 305.46 -159.689 305.503 -159.362 305.547C-122.909 310.54 -88.8366 327.306 -62.525 353.618C-35.4617 380.681 -18.4969 415.955 -14.0558 453.585H-86.9808C-106.81 453.585 -125.827 445.708 -139.848 431.687C-153.869 417.666 -161.746 398.649 -161.746 378.82V321.995C-161.746 316.41 -161.47 310.854 -160.927 305.344ZM-350.469 454.843C-346.252 416.758 -329.215 381.016 -301.861 353.662C-270.079 321.88 -226.973 304.025 -182.026 304.025C-175.74 304.025 -169.471 304.375 -163.248 305.069C-163.801 310.659 -164.082 316.297 -164.082 321.964V605.087H-201.463C-203.295 589.403 -207.289 574.014 -213.357 559.366C-221.974 538.562 -234.604 519.659 -250.527 503.737C-266.45 487.814 -285.353 475.184 -306.157 466.566C-320.366 460.681 -335.272 456.746 -350.469 454.843ZM-11.7142 453.585C-13.5474 437.905 -17.541 422.522 -23.6066 407.878C-32.2239 387.074 -44.8544 368.171 -60.777 352.248C-76.6997 336.326 -95.6026 323.695 -116.407 315.078C-130.107 309.403 -144.456 305.541 -159.089 303.566C-159.211 303.549 -159.334 303.533 -159.457 303.516C-159.877 303.46 -160.297 303.404 -160.718 303.351C-156.503 265.263 -139.465 229.517 -112.109 202.16C-80.3267 170.378 -37.2209 152.523 7.72589 152.523C12.9633 152.523 18.1885 152.766 23.3854 153.248C24.4264 153.347 25.4658 153.455 26.5034 153.573C25.9505 159.161 25.6701 164.798 25.6701 170.463V453.585H-11.7142ZM-203.807 605.087H-276.733C-296.562 605.087 -315.579 597.21 -329.6 583.189C-343.621 569.167 -351.498 550.151 -351.498 530.322V473.497C-351.498 467.909 -351.222 462.35 -350.678 456.837C-313.636 461.559 -278.964 478.426 -252.277 505.114C-225.212 532.179 -208.247 567.455 -203.807 605.087ZM127.225 202.129C100.538 175.443 65.8677 158.575 28.8273 153.853C28.2834 159.363 28.0078 164.919 28.0078 170.504V227.328C28.0078 247.157 35.8848 266.174 49.9061 280.195C63.9273 294.216 82.9442 302.093 102.773 302.093H175.694C171.252 264.465 154.287 229.192 127.225 202.129ZM216.258 2.0748C215.705 7.66537 215.424 13.3034 215.424 18.9704V302.093H178.039C176.206 286.41 172.212 271.023 166.145 256.376C157.528 235.572 144.898 216.669 128.975 200.746C113.052 184.824 94.1494 172.193 73.3454 163.576C59.1373 157.691 44.2325 153.756 29.0366 151.853C33.2526 113.767 50.2902 78.0234 77.645 50.6685C109.427 18.8863 152.533 1.03125 197.48 1.03125C203.766 1.03125 210.035 1.38098 216.258 2.0748ZM-540.22 606.339C-536.004 568.251 -518.967 532.507 -491.611 505.151C-459.829 473.369 -416.723 455.514 -371.776 455.514C-365.506 455.514 -359.253 455.862 -353.046 456.552L-352.998 456.557C-353.551 462.148 -353.832 467.786 -353.832 473.453V756.576H-391.215C-393.048 740.894 -397.042 725.508 -403.109 710.862C-411.726 690.058 -424.356 671.155 -440.279 655.233C-456.202 639.31 -475.105 626.679 -495.908 618.062C-510.117 612.177 -525.023 608.242 -540.22 606.339ZM-393.229 756.576H-466.483C-486.312 756.576 -505.329 748.698 -519.35 734.677C-533.371 720.656 -541.248 701.639 -541.248 681.81V624.986C-541.248 619.399 -540.972 613.84 -540.428 608.328C-525.422 610.211 -510.704 614.098 -496.674 619.91C-476.113 628.427 -457.43 640.91 -441.693 656.647C-425.956 672.384 -413.473 691.066 -404.956 711.628C-398.991 726.03 -395.053 741.157 -393.229 756.576ZM-543.584 908.071H-656.235C-676.064 908.071 -695.081 900.194 -709.102 886.173C-723.123 872.152 -731 853.135 -731 833.306V776.482C-731 731.535 -713.145 688.429 -681.363 656.647C-649.581 624.865 -606.475 607.01 -561.528 607.01C-555.242 607.01 -548.973 607.359 -542.75 608.053C-543.303 613.644 -543.584 619.282 -543.584 624.949V908.071Z" fill="url(#paint0_radial_1702_9454)"/>
</g>
<defs>
<radialGradient id="paint0_radial_1702_9454" cx="0" cy="0" r="1" gradientUnits="userSpaceOnUse" gradientTransform="translate(66.0951 662.441) rotate(145.602) scale(621.898 623.525)">
<stop offset="4.18969e-05" stop-color="white"/>
<stop offset="1" stop-color="white" stop-opacity="0"/>
</radialGradient>
<clipPath id="clip0_1702_9454">
<rect width="897" height="905" fill="white"/>
</clipPath>
</defs>
</svg>
