<svg width="40" height="40" viewBox="0 0 40 40" fill="none" xmlns="http://www.w3.org/2000/svg">
<path d="M14.8616 0.788148C15.5465 0.313988 16.4535 0.313988 17.1384 0.788148L31.1384 10.4805C31.678 10.8541 32 11.4686 32 12.1249V27C32 28.1046 31.1046 29 30 29H2C0.895431 29 0 28.1046 0 27V12.1249C0 11.4686 0.321981 10.8541 0.861574 10.4805L14.8616 0.788148Z" fill="#19D4EE"/>
<path fill-rule="evenodd" clip-rule="evenodd" d="M10.8261 39.9987C10.7841 39.9996 10.7419 40.0001 10.6996 40.0001C7.55181 40.0001 5 37.4483 5 34.3005C5 31.1526 7.55181 28.6008 10.6996 28.6008C11.3666 28.6008 12.0069 28.7154 12.6017 28.9259C13.3515 24.4284 17.2611 21 21.9714 21C25.2329 21 28.1104 22.6436 29.821 25.1477C30.5421 24.9207 31.3097 24.7982 32.1058 24.7982C36.3029 24.7982 39.7054 28.2007 39.7054 32.3977C39.7054 36.5529 36.3706 39.9292 32.2314 39.9962V40H10.8261V39.9987Z" fill="#FE3CEB"/>
<path fill-rule="evenodd" clip-rule="evenodd" d="M32.0015 24.799V27C32.0015 28.1046 31.1061 29 30.0015 29H8.60156C9.25131 28.7424 9.95969 28.6008 10.7011 28.6008C11.3681 28.6008 12.0084 28.7154 12.6033 28.9259C13.353 24.4284 17.2626 21 21.9729 21C25.2344 21 28.1119 22.6436 29.8225 25.1477C30.5116 24.9307 31.2431 24.8093 32.0015 24.799Z" fill="#002CD9"/>
</svg>
