<svg width="41" height="41" viewBox="0 0 41 41" fill="none" xmlns="http://www.w3.org/2000/svg">
<path fill-rule="evenodd" clip-rule="evenodd" d="M17.9482 15.9413C19.5517 14.2484 20.5351 11.9623 20.5351 9.44643C20.5351 4.22931 16.3058 0 11.0887 0C5.8716 0 1.64229 4.22931 1.64229 9.44643C1.64229 12.1369 2.76704 14.5646 4.57198 16.2851C1.7947 18.3844 0 21.715 0 25.4648C0 25.754 0.010673 26.0279 0.0316465 26.2873H0V30.8052H5.26605C6.4419 30.8914 7.76529 30.8645 9.18378 30.8355L9.18394 30.8355C9.84026 30.8222 10.5169 30.8084 11.2088 30.8052H11.7912C12.4831 30.8084 13.1597 30.8222 13.8161 30.8355L13.8162 30.8355C15.2347 30.8645 16.5581 30.8914 17.7339 30.8052H23V26.2873H22.9684C22.9893 26.0279 23 25.754 23 25.4648C23 21.5032 20.9968 18.0095 17.9482 15.9413Z" fill="#FE3CEB"/>
<path fill-rule="evenodd" clip-rule="evenodd" d="M33.3889 20.8641C35.4876 18.6484 36.7748 15.6563 36.7748 12.3636C36.7748 5.53536 31.2394 0 24.4112 0C17.583 0 12.0476 5.53536 12.0476 12.3636C12.0476 15.885 13.5198 19.0625 15.8822 21.3143C12.2473 24.0619 9.89844 28.421 9.89844 33.3288C9.89844 33.7071 9.91239 34.0654 9.93982 34.4048H9.89844V40.3178H16.7846C18.325 40.4312 20.0592 40.3959 21.9182 40.358H21.9183C22.8133 40.3398 23.7373 40.3209 24.6825 40.3178H25.217C26.1622 40.3209 27.0862 40.3398 27.9812 40.358H27.9813C29.8403 40.3959 31.5745 40.4312 33.1149 40.3178H40.0011V34.4048H39.9597C39.9871 34.0654 40.0011 33.7071 40.0011 33.3288C40.0011 28.1437 37.3792 23.571 33.3889 20.8641Z" fill="#19D4EE"/>
<path fill-rule="evenodd" clip-rule="evenodd" d="M20.5356 9.44689C20.5356 11.9627 19.5521 14.2488 17.9486 15.9418C20.9973 18.01 23.0005 21.5037 23.0005 25.4653C23.0005 25.7545 22.9898 26.0284 22.9688 26.2878H23.0005V30.8057H17.7344C16.5586 30.8919 15.2352 30.8649 13.8167 30.836L13.8165 30.836C13.1602 30.8226 12.4835 30.8088 11.7917 30.8057H11.2093C10.8373 30.8074 10.4698 30.8121 10.1074 30.8183C10.7569 26.9507 12.8814 23.5834 15.8827 21.3148C13.5202 19.0629 12.0481 15.8854 12.0481 12.364C12.0481 8.20537 14.1013 4.52627 17.2494 2.28516C19.2616 4.01752 20.5356 6.58341 20.5356 9.44689Z" fill="#002CD9"/>
</svg>
