<svg width="40" height="38" viewBox="0 0 40 38" fill="none" xmlns="http://www.w3.org/2000/svg">
<path fill-rule="evenodd" clip-rule="evenodd" d="M19.4996 2C19.4996 0.895431 18.6042 0 17.4996 0H8.49965C7.39508 0 6.49965 0.89543 6.49965 2V6.49929H2C0.895431 6.49929 0 7.39473 0 8.49929V17.4993C0 18.6039 0.89543 19.4993 2 19.4993H6.49965V24C6.49965 25.1046 7.39508 26 8.49965 26H17.4996C18.6042 26 19.4996 25.1046 19.4996 24V19.4993H24C25.1046 19.4993 26 18.6039 26 17.4993V8.4993C26 7.39473 25.1046 6.49929 24 6.49929H19.4996V2Z" fill="#FE3CEB"/>
<path fill-rule="evenodd" clip-rule="evenodd" d="M32.9996 12C32.9996 10.8954 32.1042 10 30.9996 10H20.9996C19.8951 10 18.9996 10.8954 18.9996 12V16.9992H14C12.8954 16.9992 12 17.8947 12 18.9992V28.9992C12 30.1038 12.8954 30.9992 14 30.9992H18.9996V36C18.9996 37.1046 19.895 38 20.9996 38H30.9996C32.1042 38 32.9996 37.1046 32.9996 36V30.9992H38C39.1046 30.9992 40 30.1038 40 28.9992V18.9992C40 17.8947 39.1046 16.9992 38 16.9992H32.9996V12Z" fill="#19D4EE"/>
<path fill-rule="evenodd" clip-rule="evenodd" d="M26 10H20.9996C19.8951 10 18.9996 10.8954 18.9996 12V16.9992H14C12.8954 16.9992 12 17.8947 12 18.9992V26H17.4996C18.6042 26 19.4996 25.1046 19.4996 24V19.4993H24C25.1046 19.4993 26 18.6039 26 17.4993V10Z" fill="#002CD9"/>
</svg>
