<svg width="911" height="798" viewBox="0 0 911 798" fill="none" xmlns="http://www.w3.org/2000/svg">
<g clip-path="url(#clip0_1702_9492)">
<path fill-rule="evenodd" clip-rule="evenodd" d="M1309.65 -409C1264.7 -409 1221.6 -391.145 1189.82 -359.363C1162.46 -332.008 1145.42 -296.265 1141.21 -258.18C1156.52 -256.292 1171.54 -252.343 1185.85 -246.414C1206.66 -237.797 1225.56 -225.167 1241.48 -209.244C1257.41 -193.321 1270.04 -174.418 1278.65 -153.614C1287.27 -132.81 1291.71 -110.513 1291.71 -87.9947V24.7888C1298.76 -6.6778 1314.61 -35.7856 1337.78 -58.9488C1369.93 -91.1061 1413.55 -109.172 1459.02 -109.172C1464.57 -109.172 1470.08 -108.904 1475.55 -108.375C1477.92 -120.381 1479.12 -132.618 1479.12 -144.916V-239.528C1479.12 -284.475 1461.27 -327.58 1429.48 -359.363C1397.7 -391.145 1354.6 -409 1309.65 -409ZM1288.6 43.4138C1288.9 40.6665 1289.27 37.9312 1289.71 35.2102V31.6947C1289.19 35.5911 1288.55 39.4696 1287.79 43.3246C1287.94 43.3402 1288.08 43.3561 1288.22 43.3721L1288.6 43.4138ZM1287.55 62.3004C1287.55 56.6977 1287.83 51.1231 1288.37 45.5948H1287.33C1284.91 57.1653 1281.41 68.5132 1276.87 79.4869C1267.29 102.6 1253.26 123.602 1235.57 141.292C1217.88 158.983 1196.88 173.015 1173.76 182.589C1153.92 190.807 1132.86 195.602 1111.47 196.795C1123.1 198.976 1134.5 202.359 1145.48 206.908C1166.28 215.525 1185.18 228.156 1201.11 244.079C1217.03 260.001 1229.66 278.904 1238.28 299.708C1244.34 314.354 1248.34 329.741 1250.17 345.423H1287.55V62.3004ZM1441.08 347.418C1465.73 347.277 1490.12 342.354 1512.89 332.919C1536.01 323.345 1557.01 309.313 1574.7 291.622C1592.39 273.932 1606.42 252.931 1616 229.817C1625.57 206.703 1630.5 181.931 1630.5 156.913V62.3004C1630.5 16.8232 1612.43 -26.7915 1580.27 -58.9488C1552.51 -86.7106 1516.21 -103.97 1477.54 -108.169C1479.92 -120.244 1481.12 -132.55 1481.12 -144.916V-239.528C1481.12 -285.005 1463.06 -328.62 1430.9 -360.777C1398.74 -392.934 1355.13 -411 1309.65 -411C1264.17 -411 1220.56 -392.934 1188.4 -360.777C1160.73 -333.103 1143.49 -296.943 1139.22 -258.413C1138.98 -258.44 1138.74 -258.466 1138.5 -258.492C1138.32 -258.51 1138.15 -258.528 1137.98 -258.546C1132 -259.18 1125.96 -259.502 1119.9 -259.502C1074.42 -259.502 1030.8 -241.436 998.647 -209.279C970.974 -181.605 953.736 -145.447 949.467 -106.918C943.082 -107.642 936.631 -108.01 930.142 -108.01C884.665 -108.01 841.05 -89.944 808.893 -57.7867C781.219 -30.1123 763.981 6.04755 759.713 44.5776C758.667 44.4611 757.62 44.3542 756.572 44.257C751.216 43.7494 745.816 43.4922 740.39 43.4922C694.913 43.4922 651.298 61.558 619.141 93.7153C591.469 121.388 574.231 157.545 569.961 196.072C563.578 195.348 557.128 194.98 550.64 194.98C505.163 194.98 461.548 213.046 429.391 245.204C401.717 272.878 384.479 309.038 380.211 347.568L380.191 347.566C373.813 346.843 367.37 346.477 360.888 346.477C315.411 346.477 271.796 364.542 239.639 396.7C211.965 424.374 194.727 460.534 190.459 499.064C184.166 498.363 177.828 498.01 171.472 498.01C125.995 498.01 82.3802 516.075 50.223 548.233C18.0657 580.39 0 624.005 0 669.482V726.306C0 746.665 8.08775 766.191 22.484 780.587C36.8803 794.984 56.4059 803.071 76.7653 803.071H288.624C255.136 809.479 224.054 825.785 199.598 850.24C167.441 882.398 149.375 926.012 149.375 971.49V1028.31C149.375 1048.67 157.463 1068.2 171.859 1082.6C186.255 1096.99 205.781 1105.08 226.14 1105.08H491.319H492.319V1105.07C516.966 1104.93 541.354 1100.01 564.131 1090.58C587.245 1081 608.246 1066.97 625.937 1049.28C643.627 1031.59 657.66 1010.59 667.234 987.473C671.802 976.444 675.313 965.037 677.735 953.406H681.075H682.075V953.4C706.721 953.259 731.109 948.336 753.885 938.902C776.999 929.328 798 915.295 815.691 897.605C833.381 879.914 847.414 858.913 856.988 835.799C861.532 824.828 865.029 813.483 867.45 801.915H870.819H871.819V801.91C896.466 801.769 920.854 796.846 943.631 787.412C966.745 777.838 987.746 763.805 1005.44 746.115C1023.13 728.424 1037.16 707.423 1046.73 684.309C1051.28 673.335 1054.78 661.986 1057.2 650.415H1060.57H1061.57V650.41C1086.21 650.269 1110.6 645.346 1133.38 635.912C1156.49 626.338 1177.49 612.305 1195.18 594.615C1212.88 576.924 1226.91 555.923 1236.48 532.809C1241.03 521.835 1244.53 510.488 1246.95 498.917H1250.33H1251.33V498.912C1275.98 498.771 1300.36 493.848 1323.14 484.414C1346.25 474.84 1367.26 460.807 1384.95 443.116C1402.64 425.426 1416.67 404.425 1426.24 381.311C1430.79 370.339 1434.29 358.992 1436.71 347.423H1440.08H1441.08V347.418ZM1434.66 347.423H1250.39C1251.01 353.36 1251.33 359.336 1251.33 365.328V496.912C1275.71 496.771 1299.84 491.9 1322.38 482.566C1345.25 473.092 1366.03 459.207 1383.53 441.702C1401.04 424.198 1414.92 403.417 1424.4 380.546C1428.84 369.818 1432.27 358.729 1434.66 347.423ZM1247.82 345.423C1243.37 307.794 1226.41 272.52 1199.35 245.458C1172.66 218.773 1137.99 201.906 1100.96 197.182C1100.41 202.692 1100.14 208.248 1100.14 213.833V270.658C1100.14 290.487 1108.01 309.503 1122.04 323.525C1136.06 337.546 1155.07 345.423 1174.9 345.423H1247.82ZM1301.21 45.298C1322.61 44.1063 1343.67 39.3113 1363.52 31.0913C1386.63 21.5173 1407.63 7.48456 1425.32 -10.2058C1443.01 -27.8961 1457.05 -48.8976 1466.62 -72.0111C1471.2 -83.0789 1474.72 -94.5273 1477.15 -106.201C1515.43 -102.085 1551.38 -85.0161 1578.86 -57.5346C1610.64 -25.7523 1628.5 17.3536 1628.5 62.3004V156.913C1628.5 181.668 1623.62 206.181 1614.15 229.052C1604.67 251.922 1590.79 272.703 1573.28 290.208C1555.78 307.713 1535 321.598 1512.13 331.072C1489.59 340.406 1465.46 345.277 1441.08 345.418V213.833C1441.08 191.315 1436.65 169.018 1428.03 148.214C1419.41 127.41 1406.78 108.507 1390.86 92.5842C1374.94 76.6615 1356.03 64.0309 1335.23 55.4137C1324.24 50.8632 1312.84 47.4789 1301.21 45.298ZM1439.08 333.534V345.421H1437.11C1437.89 341.481 1438.55 337.517 1439.08 333.534ZM1249.19 45.5948H1285.29C1282.9 56.9021 1279.46 67.9925 1275.02 78.7215C1265.55 101.592 1251.66 122.373 1234.16 139.878C1216.65 157.383 1195.87 171.268 1173 180.742C1150.46 190.076 1126.34 194.947 1101.95 195.088V189.092C1107.23 153.297 1123.88 119.89 1149.77 93.9984C1176.71 67.0668 1211.77 50.1357 1249.19 45.5948ZM1099.8 286.557C1102.86 300.986 1110.03 314.35 1120.62 324.939C1135.02 339.335 1154.54 347.423 1174.9 347.423H1248.04C1248.67 353.332 1248.98 359.296 1248.98 365.293V459.905C1248.98 472.362 1247.75 484.759 1245.31 496.915H1099.8V286.557ZM1289.55 345.421H1435.08C1437.51 333.263 1438.74 320.866 1438.74 308.407V213.795C1438.74 168.848 1420.89 125.742 1389.11 93.9596C1362.34 67.192 1327.54 50.3033 1290.37 45.6403C1289.83 51.1531 1289.55 56.7126 1289.55 62.3004V345.421ZM1464.77 -72.7765C1469.28 -83.6639 1472.75 -94.9233 1475.15 -106.404C1469.81 -106.914 1464.43 -107.172 1459.02 -107.172C1414.08 -107.172 1370.97 -89.3168 1339.19 -57.5346C1313.83 -32.1715 1297.33 0.403076 1291.71 35.3698V43.5897C1316.09 43.4485 1340.22 38.5777 1362.75 29.2435C1385.62 19.7701 1406.4 5.88464 1423.91 -11.62C1441.41 -29.1246 1455.3 -49.9056 1464.77 -72.7765ZM1269.27 42.3223C1274.81 42.3223 1280.33 42.5904 1285.79 43.1194C1288.17 31.1146 1289.37 18.8784 1289.37 6.58249V-88.0296C1289.37 -132.977 1271.51 -176.082 1239.73 -207.865C1212.96 -234.632 1178.16 -251.52 1141 -256.184C1140.45 -250.672 1140.18 -245.114 1140.18 -239.528V43.5929H1248.43C1255.31 42.7506 1262.27 42.3223 1269.27 42.3223ZM871.819 799.91C896.203 799.769 920.332 794.898 942.866 785.564C965.737 776.09 986.518 762.205 1004.02 744.7C1021.53 727.196 1035.41 706.415 1044.89 683.544C1049.33 672.814 1052.76 661.723 1055.15 650.415H870.881C871.505 656.354 871.819 662.332 871.819 668.326V799.91ZM869.819 788.065V799.913H867.858C868.636 795.986 869.29 792.035 869.819 788.065ZM721.445 500.172C721.588 500.19 721.731 500.208 721.874 500.226C721.968 500.238 722.062 500.25 722.157 500.263L722.415 500.296C759.094 505.186 793.396 521.992 819.852 548.448C846.915 575.511 863.88 610.785 868.321 648.415H795.39C775.561 648.415 756.544 640.538 742.523 626.517C728.502 612.496 720.625 593.479 720.625 573.65V516.826C720.625 511.24 720.901 505.683 721.445 500.172ZM532.696 643.544C537.984 607.764 554.63 574.373 580.512 548.491C607.444 521.559 642.507 504.628 679.932 500.087H716.029C713.637 511.391 710.206 522.478 705.763 533.204C696.289 556.075 682.404 576.856 664.899 594.36C647.395 611.865 626.614 625.75 603.743 635.224C581.208 644.558 557.08 649.429 532.696 649.57V643.544ZM870.659 648.415C868.826 632.735 864.832 617.35 858.766 602.706C850.149 581.902 837.519 562.999 821.596 547.077C805.673 531.154 786.77 518.523 765.966 509.906C754.981 505.356 743.578 501.971 731.947 499.79C753.344 498.599 774.413 493.804 794.258 485.583C817.372 476.01 838.373 461.977 856.064 444.286C873.754 426.596 887.787 405.595 897.361 382.481C901.907 371.506 905.405 360.157 907.826 348.585H908.855C908.314 354.114 908.039 359.689 908.039 365.293V648.415H870.659ZM530.545 741.077C533.603 755.496 540.777 768.849 551.359 779.431C565.755 793.828 585.281 801.915 605.64 801.915H678.773C679.411 807.88 679.735 813.902 679.735 819.957V914.569C679.735 926.966 678.512 939.303 676.101 951.403H530.545V741.077ZM678.547 799.915H605.64C585.811 799.915 566.794 792.038 552.773 778.017C538.752 763.996 530.875 744.979 530.875 725.15V668.326C530.875 662.798 531.145 657.297 531.678 651.842C568.727 656.561 603.406 673.43 630.098 700.122C657.12 727.143 674.074 762.351 678.547 799.915ZM680.916 799.915C679.083 784.232 675.089 768.844 669.022 754.196C660.405 733.392 647.775 714.49 631.852 698.567C615.929 682.644 597.026 670.014 576.222 661.396C565.233 656.845 553.828 653.46 542.193 651.279C563.591 650.088 584.662 645.293 604.508 637.072C627.622 627.498 648.623 613.465 666.314 595.775C684.004 578.084 698.037 557.083 707.611 533.969C712.155 522.999 715.652 511.654 718.073 500.087H719.106C718.565 505.615 718.291 511.19 718.291 516.793V799.915H680.916ZM681.138 801.915H865.406C863.015 813.22 859.583 824.308 855.14 835.034C845.666 857.905 831.781 878.686 814.276 896.191C796.772 913.695 775.991 927.581 753.12 937.054C730.586 946.388 706.458 951.259 682.075 951.4V819.816C682.075 813.826 681.761 807.851 681.138 801.915ZM1059.57 648.413H1057.61C1058.38 644.48 1059.04 640.523 1059.57 636.546V648.413ZM1059.24 516.793C1059.24 510.794 1058.92 504.828 1058.29 498.917H985.15C964.791 498.917 945.265 490.83 930.869 476.433C920.269 465.833 913.089 452.452 910.039 438.005V648.413H1055.57C1058 636.257 1059.24 623.862 1059.24 611.405V516.793ZM1009.6 396.958C982.912 370.272 948.243 353.405 911.204 348.681C910.66 354.19 910.385 359.745 910.385 365.328V422.152C910.385 441.981 918.262 460.998 932.283 475.019C946.304 489.04 965.321 496.917 985.15 496.917H1058.07C1053.62 459.29 1036.66 424.019 1009.6 396.958ZM719.334 497.902C719.639 495.151 720.01 492.414 720.446 489.69V486.207C719.928 490.095 719.291 493.966 718.534 497.813L718.722 497.833L718.939 497.857C719.071 497.872 719.203 497.887 719.334 497.902ZM768.514 395.543C792.706 371.351 823.383 355.134 856.458 348.585H721.508C722.132 354.524 722.446 360.503 722.446 366.497V479.272C729.502 447.809 745.353 418.704 768.514 395.543ZM889.763 345.32C895.304 345.32 900.818 345.589 906.287 346.118C908.659 334.112 909.862 321.874 909.862 309.577V214.964C909.862 208.967 909.544 203.002 908.918 197.093H835.773C815.414 197.093 795.888 189.005 781.492 174.609C770.901 164.018 763.724 150.651 760.67 136.218V346.583H868.986C875.845 345.746 882.782 345.32 889.763 345.32ZM720.291 799.913H865.819C868.254 787.754 869.489 775.355 869.489 762.895V668.283C869.489 662.287 869.171 656.323 868.545 650.415H795.39C775.031 650.415 755.505 642.327 741.109 627.931C730.523 617.344 723.347 603.984 720.291 589.558V799.913ZM1249.33 484.958V496.915H1247.35C1248.14 492.952 1248.8 488.965 1249.33 484.958ZM912.198 340.599C917.478 304.799 934.127 271.388 960.022 245.493C986.946 218.569 1022 201.64 1059.41 197.093H1095.53C1093.14 208.398 1089.71 219.487 1085.26 230.214C1075.79 253.085 1061.91 273.866 1044.4 291.37C1026.9 308.875 1006.12 322.76 983.245 332.234C960.71 341.568 936.582 346.439 912.198 346.58V340.599ZM1098.84 194.91L1098.5 194.872C1098.35 194.855 1098.19 194.838 1098.04 194.822C1098.79 190.965 1099.43 187.085 1099.95 183.187V186.717C1099.52 189.434 1099.15 192.166 1098.84 194.91ZM1060.41 496.917C1058.58 481.236 1054.58 465.851 1048.52 451.206C1039.9 430.402 1027.27 411.499 1011.35 395.576C995.423 379.654 976.52 367.023 955.716 358.406C944.729 353.854 933.324 350.47 921.69 348.289C943.09 347.098 964.162 342.303 984.01 334.082C1007.12 324.508 1028.13 310.475 1045.82 292.784C1063.51 275.094 1077.54 254.093 1087.11 230.979C1091.66 220.007 1095.15 208.662 1097.58 197.093H1098.62C1098.08 202.62 1097.8 208.193 1097.8 213.795V496.917H1060.41ZM1060.63 498.917H1244.9C1242.51 510.225 1239.08 521.315 1234.63 532.044C1225.16 554.915 1211.28 575.696 1193.77 593.2C1176.27 610.705 1155.48 624.59 1132.61 634.064C1110.08 643.398 1085.95 648.269 1061.57 648.41V516.826C1061.57 510.833 1061.25 504.855 1060.63 498.917ZM1101.95 63.5035V176.292C1109.01 144.822 1124.86 115.711 1148.02 92.5453C1172.21 68.3629 1202.87 52.1493 1235.93 45.5948H1101.01C1101.64 51.5328 1101.95 57.5103 1101.95 63.5035ZM342.944 795.087C348.224 759.288 364.873 725.876 390.768 699.981C406.618 684.131 425.285 671.745 445.591 663.309C460.06 657.336 475.357 653.366 491.057 651.576H526.279C523.887 662.882 520.455 673.972 516.011 684.7C506.537 707.571 492.652 728.352 475.148 745.857C457.643 763.361 436.862 777.247 413.991 786.72C391.457 796.054 367.328 800.925 342.944 801.066V795.087ZM477.465 651.576C466.262 653.782 455.333 657.098 444.837 661.457C424.154 669.995 405.143 682.578 389.014 698.707C365.851 721.871 349.999 750.978 342.944 782.445V669.482C342.944 663.49 342.63 657.513 342.007 651.576H477.465ZM526.783 649.109C521.414 648.6 516.015 648.344 510.603 648.344C503.715 648.344 496.869 648.758 490.099 649.573H381.168V439.23C384.224 453.656 391.399 467.016 401.986 477.603C416.382 491.999 435.908 500.087 456.267 500.087H529.417C530.043 505.993 530.36 511.955 530.36 517.949V612.561C530.36 624.861 529.157 637.101 526.783 649.109ZM529.588 649.398C529.319 649.368 529.051 649.339 528.782 649.31C529.539 645.458 530.178 641.582 530.696 637.688V641.204C530.261 643.922 529.892 646.654 529.588 649.398ZM340.791 892.521C343.844 906.958 351.022 920.328 361.615 930.922C376.011 945.318 395.537 953.406 415.896 953.406H489.351C489.995 959.401 490.319 965.437 490.319 971.49V1103.08H340.791V892.521ZM489.125 951.406H415.896C396.067 951.406 377.05 943.529 363.029 929.507C349.008 915.486 341.131 896.469 341.131 876.64V819.816C341.131 814.288 341.401 808.789 341.934 803.334C356.944 805.217 371.666 809.104 385.701 814.918C406.262 823.434 424.945 835.918 440.682 851.655C456.419 867.392 468.902 886.074 477.419 906.635C483.362 920.983 487.292 936.048 489.125 951.406ZM491.363 953.406C491.999 959.401 492.319 965.438 492.319 971.49V1103.07C516.703 1102.93 540.832 1098.06 563.366 1088.73C586.237 1079.25 607.018 1065.37 624.523 1047.86C642.027 1030.36 655.912 1009.58 665.386 986.708C669.853 975.923 673.298 964.774 675.691 953.406H491.363ZM528.545 951.406H491.139C489.297 935.785 485.31 920.46 479.266 905.87C470.649 885.066 458.019 866.163 442.096 850.24C426.173 834.318 407.27 821.687 386.466 813.07C375.244 808.421 363.587 804.99 351.695 802.815C373.35 801.695 394.679 796.884 414.756 788.568C437.87 778.994 458.871 764.961 476.562 747.271C494.252 729.58 508.285 708.579 517.859 685.465C522.404 674.492 525.902 663.145 528.323 651.576H529.36C528.819 657.104 528.545 662.679 528.545 668.283V951.406ZM680.075 951.403H678.14C678.907 947.513 679.552 943.599 680.075 939.667V951.403ZM700.017 496.811C705.557 496.811 711.069 497.079 716.536 497.608C718.909 485.601 720.112 473.363 720.112 461.065V366.453C720.112 360.457 719.794 354.493 719.168 348.585H646.019C625.66 348.585 606.134 340.497 591.738 326.101C581.149 315.512 573.973 302.148 570.918 287.719V498.085H679.144C686.034 497.24 693.003 496.811 700.017 496.811ZM578.768 547.034C602.946 522.856 633.6 506.644 666.653 500.087H531.759C532.382 506.022 532.696 511.996 532.696 517.986V630.78C539.75 599.31 555.603 570.199 578.768 547.034ZM909.082 346.407C908.816 346.378 908.551 346.349 908.285 346.321C909.042 342.47 909.68 338.596 910.198 334.704V338.165C909.76 340.899 909.388 343.647 909.082 346.407ZM722.446 492.044C727.734 456.264 744.38 422.873 770.262 396.991C797.198 370.055 832.266 353.123 869.696 348.585H905.782C903.39 359.894 899.957 370.985 895.513 381.716C886.039 404.587 872.154 425.368 854.649 442.872C837.145 460.377 816.364 474.262 793.493 483.736C770.958 493.07 746.83 497.941 722.446 498.082V492.044ZM958.262 244.043C982.444 219.861 1013.11 203.648 1046.17 197.093H911.261C911.884 203.029 912.198 209.004 912.198 214.995V327.755C919.256 296.298 935.106 267.2 958.262 244.043ZM1079.51 193.82C1085.05 193.82 1090.57 194.089 1096.04 194.618C1098.41 182.611 1099.61 170.373 1099.61 158.075V63.4626C1099.61 57.4664 1099.3 51.503 1098.67 45.5948H1025.53C1005.17 45.5948 985.642 37.5071 971.246 23.1108C960.655 12.5197 953.478 -0.847504 950.424 -15.2805V195.091H1058.67C1065.55 194.249 1072.51 193.82 1079.51 193.82ZM301.969 803.071H339.624C339.071 808.659 338.791 814.293 338.791 819.957V1103.08H226.14C206.311 1103.08 187.294 1095.2 173.273 1081.18C159.252 1067.16 151.375 1048.14 151.375 1028.31V971.49C151.375 926.543 169.23 883.437 201.012 851.655C228.313 824.354 263.969 807.33 301.969 803.071ZM339.813 801.069H339.834C340.138 798.322 340.509 795.587 340.944 792.866V669.482C340.944 663.489 340.626 657.512 339.995 651.576H266.517C246.158 651.576 226.632 643.488 212.236 629.091C201.647 618.503 194.471 605.139 191.416 590.709V801.069H301.876C308.145 800.372 314.478 800.017 320.847 800.017C327.196 800.017 333.528 800.37 339.813 801.069ZM1137.77 -256.558C1138.18 -256.514 1138.6 -256.468 1139.01 -256.421C1138.46 -250.831 1138.18 -245.194 1138.18 -239.528V43.5948H1100.79C1098.96 27.9138 1094.97 12.5288 1088.9 -2.11606C1080.28 -22.92 1067.65 -41.823 1051.73 -57.7457C1035.81 -73.6684 1016.9 -86.2989 996.099 -94.9162C981.891 -100.801 966.986 -104.736 951.79 -106.639C956.005 -144.727 973.043 -180.473 1000.4 -207.83C1032.18 -239.612 1075.29 -257.467 1120.23 -257.467C1126.1 -257.467 1131.95 -257.162 1137.77 -256.558ZM1098.45 43.5948H1025.53C1005.7 43.5948 986.681 35.7178 972.66 21.6965C958.639 7.67529 950.762 -11.3416 950.762 -31.1706V-87.9947C950.762 -93.5806 951.037 -99.138 951.581 -104.649C988.621 -99.9259 1023.29 -83.0587 1049.98 -56.3725C1077.04 -29.3091 1094.01 5.965 1098.45 43.5948ZM572.073 198.344C572.267 198.368 572.461 198.393 572.656 198.418C572.983 198.46 573.311 198.503 573.638 198.547C610.091 203.54 644.163 220.306 670.475 246.618C697.538 273.681 714.503 308.955 718.944 346.585H646.019C626.19 346.585 607.173 338.708 593.152 324.687C579.131 310.666 571.254 291.649 571.254 271.82V214.995C571.254 209.41 571.53 203.854 572.073 198.344ZM382.531 347.843C386.748 309.758 403.785 274.016 431.139 246.662C462.921 214.88 506.027 197.025 550.974 197.025C557.26 197.025 563.529 197.375 569.752 198.069C569.199 203.659 568.918 209.297 568.918 214.964V498.087H531.537C529.705 482.403 525.711 467.014 519.643 452.366C511.026 431.562 498.396 412.659 482.473 396.737C466.55 380.814 447.647 368.184 426.843 359.566C412.634 353.681 397.728 349.746 382.531 347.843ZM721.286 346.585C719.453 330.905 715.459 315.522 709.393 300.878C700.776 280.074 688.146 261.171 672.223 245.248C656.3 229.326 637.397 216.695 616.593 208.078C602.893 202.403 588.544 198.541 573.911 196.566C573.789 196.549 573.666 196.533 573.543 196.516C573.123 196.46 572.703 196.404 572.282 196.351C576.497 158.263 593.535 122.517 620.891 95.1605C652.673 63.3783 695.779 45.5232 740.726 45.5232C745.963 45.5232 751.189 45.7659 756.385 46.2482C757.426 46.3469 758.466 46.4551 759.503 46.5728C758.951 52.1615 758.67 57.7976 758.67 63.4626V346.585H721.286ZM529.193 498.087H456.267C436.438 498.087 417.421 490.21 403.4 476.189C389.379 462.167 381.502 443.151 381.502 423.322V366.497C381.502 360.909 381.778 355.35 382.322 349.837C419.364 354.559 454.036 371.426 480.723 398.114C507.788 425.179 524.753 460.455 529.193 498.087ZM860.225 95.1295C833.538 68.4427 798.868 51.5754 761.827 46.8528C761.283 52.3625 761.008 57.9188 761.008 63.5035V120.328C761.008 140.157 768.885 159.174 782.906 173.195C796.927 187.216 815.944 195.093 835.773 195.093H908.694C904.252 157.465 887.287 122.192 860.225 95.1295ZM949.258 -104.925C948.705 -99.3346 948.424 -93.6966 948.424 -88.0296V195.093H911.039C909.206 179.41 905.212 164.023 899.145 149.376C890.528 128.572 877.898 109.669 861.975 93.7463C846.052 77.8236 827.149 65.1931 806.345 56.5758C792.137 50.6906 777.233 46.756 762.037 44.8526C766.253 6.76685 783.29 -28.9766 810.645 -56.3315C842.427 -88.1137 885.533 -105.969 930.48 -105.969C936.766 -105.969 943.035 -105.619 949.258 -104.925ZM192.78 499.339C196.996 461.251 214.033 425.507 241.389 398.151C273.171 366.369 316.277 348.514 361.224 348.514C367.494 348.514 373.747 348.862 379.954 349.552L380.002 349.557C379.449 355.148 379.168 360.786 379.168 366.453V649.576H341.785C339.952 633.894 335.958 618.508 329.891 603.862C321.274 583.058 308.644 564.155 292.721 548.233C276.798 532.31 257.895 519.679 237.092 511.062C222.883 505.177 207.977 501.242 192.78 499.339ZM339.771 649.576H266.517C246.688 649.576 227.671 641.698 213.65 627.677C199.629 613.656 191.752 594.639 191.752 574.81V517.986C191.752 512.399 192.028 506.84 192.572 501.328C207.578 503.211 222.296 507.098 236.326 512.91C256.887 521.427 275.57 533.91 291.307 549.647C307.044 565.384 319.527 584.066 328.044 604.628C334.009 619.03 337.947 634.157 339.771 649.576ZM189.416 801.071H76.7653C56.9363 801.071 37.9195 793.194 23.8983 779.173C9.87704 765.152 2 746.135 2 726.306V669.482C2 624.535 19.855 581.429 51.6372 549.647C83.4194 517.865 126.525 500.01 171.472 500.01C177.758 500.01 184.027 500.359 190.25 501.053C189.697 506.644 189.416 512.282 189.416 517.949V801.071Z" fill="url(#paint0_radial_1702_9492)"/>
</g>
<defs>
<radialGradient id="paint0_radial_1702_9492" cx="0" cy="0" r="1" gradientUnits="userSpaceOnUse" gradientTransform="translate(799.095 555.441) rotate(145.602) scale(621.898 623.525)">
<stop offset="4.18969e-05" stop-color="white"/>
<stop offset="1" stop-color="white" stop-opacity="0"/>
</radialGradient>
<clipPath id="clip0_1702_9492">
<rect width="911" height="798" fill="white"/>
</clipPath>
</defs>
</svg>
