<svg width="26" height="27" viewBox="0 0 26 27" fill="none" xmlns="http://www.w3.org/2000/svg">
<path d="M0 25.5C0 26.0523 0.447715 26.5 1 26.5C1.55228 26.5 2 26.0523 2 25.5H0ZM25.697 8.70711C26.0876 8.31658 26.0876 7.68342 25.697 7.29289L19.3331 0.928932C18.9425 0.538408 18.3094 0.538408 17.9189 0.928932C17.5283 1.31946 17.5283 1.95262 17.9189 2.34315L23.5757 8L17.9189 13.6569C17.5283 14.0474 17.5283 14.6805 17.9189 15.0711C18.3094 15.4616 18.9425 15.4616 19.3331 15.0711L25.697 8.70711ZM2 25.5V16H0V25.5H2ZM9 9H24.9899V7H9V9ZM2 16C2 12.134 5.13401 9 9 9V7C4.02944 7 0 11.0294 0 16H2Z" fill="white"/>
</svg>
