<svg width="648" height="652" viewBox="0 0 648 652" fill="none" xmlns="http://www.w3.org/2000/svg">
<g clip-path="url(#clip0_1421_12260)">
<path fill-rule="evenodd" clip-rule="evenodd" d="M1224.86 -541C1182.84 -541 1142.54 -524.309 1112.83 -494.598C1087.28 -469.041 1071.35 -435.651 1067.4 -400.071C1081.7 -398.302 1095.74 -394.61 1109.11 -389.071C1128.57 -381.009 1146.26 -369.192 1161.15 -354.295C1176.05 -339.398 1187.87 -321.713 1195.93 -302.249C1203.99 -282.785 1208.14 -261.923 1208.14 -240.856V-135.956C1214.8 -165.18 1229.58 -192.204 1251.12 -213.736C1281.2 -243.822 1322.01 -260.725 1364.56 -260.725C1369.72 -260.725 1374.86 -260.476 1379.95 -259.984C1382.16 -271.191 1383.29 -282.613 1383.29 -294.09V-382.573C1383.29 -424.59 1366.59 -464.887 1336.88 -494.598C1307.17 -524.309 1266.88 -541 1224.86 -541ZM1205.11 -118.031C1205.39 -120.577 1205.74 -123.112 1206.14 -125.633V-127.942C1205.68 -124.646 1205.14 -121.364 1204.5 -118.1C1204.68 -118.08 1204.86 -118.059 1205.05 -118.039L1205.11 -118.031ZM1204.13 -100.297C1204.13 -105.515 1204.38 -110.707 1204.88 -115.857H1204.04C1201.78 -105.051 1198.51 -94.4537 1194.26 -84.2049C1185.31 -62.581 1172.18 -42.933 1155.63 -26.3828C1139.08 -9.83264 1119.43 3.29578 1097.8 12.2527C1079.4 19.8774 1059.86 24.3521 1040.02 25.5145C1050.73 27.5576 1061.23 30.6918 1071.35 34.8837C1090.81 42.9459 1108.5 54.7629 1123.4 69.66C1138.29 84.5571 1150.11 102.242 1158.17 121.706C1163.84 135.391 1167.57 149.767 1169.29 164.419H1204.13V-100.297ZM1347.84 166.412C1370.88 166.272 1393.67 161.667 1414.96 152.848C1436.58 143.891 1456.23 130.763 1472.78 114.213C1489.33 97.6627 1502.46 78.0147 1511.42 56.3909C1520.37 34.767 1524.98 11.5906 1524.98 -11.8149V-100.297C1524.98 -142.845 1508.08 -183.651 1478 -213.736C1452.04 -239.693 1418.1 -255.837 1381.95 -259.779C1384.16 -271.055 1385.29 -282.545 1385.29 -294.09V-382.573C1385.29 -425.121 1368.38 -465.926 1338.3 -496.012C1308.21 -526.098 1267.41 -543 1224.86 -543C1182.31 -543 1141.51 -526.098 1111.42 -496.012C1085.54 -470.136 1069.42 -436.33 1065.41 -400.306C1059.46 -400.979 1053.45 -401.32 1047.4 -401.32C1004.85 -401.32 964.049 -384.418 933.963 -354.332C908.086 -328.456 891.962 -294.649 887.957 -258.625C882.005 -259.297 875.991 -259.639 869.943 -259.639C827.395 -259.639 786.59 -242.737 756.504 -212.651C730.627 -186.774 714.503 -152.967 710.498 -116.943C709.952 -117.003 709.405 -117.061 708.858 -117.116C703.443 -117.671 697.979 -117.953 692.486 -117.953C649.938 -117.953 609.133 -101.051 579.047 -70.965C553.171 -45.0898 537.048 -11.2858 533.042 24.7365C527.09 24.0641 521.077 23.7227 515.029 23.7227C472.481 23.7227 431.676 40.6248 401.59 70.7108C375.714 96.586 359.591 130.39 355.585 166.412C349.633 165.74 343.62 165.398 337.572 165.398C295.024 165.398 254.218 182.301 224.133 212.387C198.256 238.263 182.132 272.07 178.127 308.095C172.261 307.443 166.352 307.115 160.427 307.115C117.879 307.115 77.074 324.017 46.988 354.103C16.9021 384.189 0 424.995 0 467.543V520.685C0 539.743 7.57058 558.02 21.0463 571.495C34.522 584.971 52.799 592.542 71.8565 592.542H269.309C238.233 598.625 209.404 613.826 186.687 636.543C156.601 666.629 139.699 707.434 139.699 749.982V803.125C139.699 822.182 147.27 840.459 160.746 853.935C174.221 867.411 192.498 874.981 211.556 874.981H459.554H460.554V874.974C483.59 874.834 506.384 870.229 527.674 861.411C549.298 852.454 568.946 839.326 585.496 822.775C602.046 806.225 615.174 786.577 624.131 764.953C628.398 754.653 631.678 744 633.944 733.138H637.013H638.013V733.131C661.049 732.99 683.843 728.386 705.133 719.567C726.757 710.61 746.405 697.482 762.955 680.932C779.505 664.381 792.633 644.733 801.59 623.11C805.835 612.861 809.104 602.265 811.368 591.46H814.464H815.464V591.453C838.5 591.313 861.294 586.708 882.584 577.889C904.208 568.932 923.856 555.804 940.406 539.254C956.956 522.704 970.084 503.056 979.041 481.432C983.287 471.182 986.556 460.583 988.82 449.776H991.921H992.921V449.769C1015.96 449.629 1038.75 445.024 1060.04 436.206C1081.66 427.249 1101.31 414.12 1117.86 397.57C1134.41 381.02 1147.54 361.372 1156.5 339.748C1160.74 329.5 1164.01 318.903 1166.28 308.099H1169.38H1170.38V308.092C1193.42 307.951 1216.21 303.346 1237.5 294.528C1259.13 285.571 1278.78 272.443 1295.33 255.893C1311.88 239.342 1325 219.694 1333.96 198.071C1338.21 187.822 1341.48 177.224 1343.74 166.419H1346.84H1347.84V166.412ZM1341.7 166.419H1169.51C1170.09 171.95 1170.38 177.517 1170.38 183.099V306.092C1193.16 305.951 1215.69 301.398 1236.74 292.68C1258.12 283.824 1277.55 270.843 1293.91 254.478C1310.28 238.114 1323.26 218.686 1332.11 197.305C1336.26 187.301 1339.46 176.961 1341.7 166.419ZM1166.97 164.419C1162.8 129.267 1146.95 96.3182 1121.66 71.0352C1096.73 46.1036 1064.35 30.3397 1029.74 25.9133C1029.24 31.0445 1028.98 36.2189 1028.98 41.4197V94.5621C1028.98 113.089 1036.34 130.858 1049.44 143.958C1062.55 157.059 1080.31 164.419 1098.84 164.419H1166.97ZM1217.48 -116.165C1237.32 -117.327 1256.85 -121.802 1275.26 -129.427C1296.89 -138.384 1316.53 -151.512 1333.08 -168.062C1349.63 -184.613 1362.76 -204.261 1371.72 -225.885C1376 -236.22 1379.29 -246.91 1381.55 -257.811C1417.32 -253.952 1450.9 -237.999 1476.58 -212.322C1506.29 -182.611 1522.98 -142.315 1522.98 -100.297V-11.8149C1522.98 11.328 1518.43 34.2443 1509.57 55.6255C1500.71 77.0067 1487.73 96.4342 1471.37 112.799C1455 129.163 1435.57 142.144 1414.19 151.001C1393.15 159.719 1370.61 164.272 1347.84 164.412V41.4197C1347.84 20.3521 1343.69 -0.509338 1335.63 -19.9733C1327.56 -39.4373 1315.75 -57.1227 1300.85 -72.0197C1285.95 -86.9168 1268.27 -98.7338 1248.8 -106.796C1238.68 -110.988 1228.19 -114.122 1217.48 -116.165ZM1345.84 154.347V164.415H1344.15C1344.81 161.077 1345.37 157.719 1345.84 154.347ZM1168.34 -115.857H1202C1199.76 -105.314 1196.56 -94.9743 1192.41 -84.9702C1183.56 -63.589 1170.58 -44.1615 1154.21 -27.797C1137.85 -11.4326 1118.42 1.54846 1097.04 10.4049C1075.99 19.1228 1053.46 23.676 1030.68 23.8162V18.2681C1035.63 -15.1855 1051.19 -46.4067 1075.39 -70.6055C1100.57 -95.7861 1133.35 -111.615 1168.34 -115.857ZM1028.67 110.053C1031.6 123.327 1038.27 135.61 1048.03 145.372C1061.51 158.848 1079.78 166.419 1098.84 166.419H1167.19C1167.77 171.922 1168.07 177.476 1168.07 183.06V271.543C1168.07 283.173 1166.91 294.745 1164.64 306.095H1028.67V110.053ZM1206.13 164.415H1342.11C1344.38 153.066 1345.53 141.494 1345.53 129.865V41.3826C1345.53 -0.63501 1328.84 -40.9317 1299.13 -70.6426C1274.12 -95.6506 1241.61 -111.435 1206.89 -115.805C1206.38 -110.673 1206.13 -105.498 1206.13 -100.297V164.415ZM1369.87 -226.65C1374.08 -236.805 1377.31 -247.306 1379.55 -258.014C1374.59 -258.486 1369.59 -258.725 1364.56 -258.725C1322.54 -258.725 1282.24 -242.033 1252.53 -212.322C1228.82 -188.612 1213.4 -158.161 1208.14 -125.474V-117.863C1230.92 -118.004 1253.45 -122.557 1274.5 -131.275C1295.88 -140.131 1315.31 -153.112 1331.67 -169.477C1348.03 -185.841 1361.01 -205.269 1369.87 -226.65ZM1187.1 -119.045C1192.26 -119.045 1197.4 -118.796 1202.5 -118.305C1204.71 -129.511 1205.83 -140.933 1205.83 -152.411V-240.893C1205.83 -282.91 1189.14 -323.207 1159.43 -352.918C1134.42 -377.926 1101.91 -393.709 1067.19 -398.08C1066.69 -392.948 1066.43 -387.774 1066.43 -382.573V-117.86H1167.63C1174.06 -118.645 1180.56 -119.045 1187.1 -119.045ZM815.464 589.453C838.237 589.313 860.772 584.76 881.819 576.042C903.2 567.185 922.627 554.204 938.992 537.84C955.356 521.475 968.337 502.048 977.194 480.667C981.338 470.661 984.541 460.32 986.776 449.776H814.594C815.172 455.308 815.464 460.877 815.464 466.461V589.453ZM813.464 579.414V589.456H811.776C812.434 586.126 812.997 582.778 813.464 579.414ZM674.826 309.274C674.954 309.29 675.082 309.306 675.209 309.323C709.671 313.814 741.913 329.554 766.755 354.396C792.037 379.679 807.892 412.626 812.057 447.776H743.923C725.396 447.776 707.628 440.416 694.527 427.316C681.426 414.215 674.066 396.447 674.066 377.92V324.777C674.066 319.577 674.322 314.404 674.826 309.274ZM498.311 443.296C503.255 409.847 518.816 378.631 543.012 354.436C568.181 329.267 600.946 313.441 635.919 309.19H669.622C667.387 319.731 664.185 330.07 660.041 340.073C651.185 361.454 638.204 380.881 621.839 397.246C605.475 413.61 586.047 426.591 564.666 435.448C543.619 444.166 521.085 448.719 498.311 448.859V443.296ZM814.372 447.776C812.654 433.125 808.92 418.751 803.252 405.068C795.19 385.604 783.373 367.918 768.476 353.021C753.579 338.124 735.893 326.307 716.429 318.245C706.317 314.056 695.827 310.924 685.127 308.88C704.962 307.716 724.487 303.242 742.889 295.62C764.513 286.663 784.161 273.535 800.711 256.984C817.261 240.434 830.389 220.786 839.346 199.162C843.592 188.912 846.861 178.312 849.125 167.505H849.966C849.465 172.653 849.211 177.843 849.211 183.06V447.776H814.372ZM496.303 535.112C499.236 548.379 505.897 560.655 515.656 570.413C529.131 583.889 547.408 591.46 566.466 591.46H634.805C635.397 597.016 635.698 602.625 635.698 608.265V696.748C635.698 708.321 634.558 719.838 632.311 731.134H496.303V535.112ZM634.579 589.46H566.466C547.939 589.46 530.171 582.1 517.07 568.999C503.969 555.899 496.609 538.13 496.609 519.603V466.461C496.609 461.314 496.86 456.194 497.354 451.115C531.964 455.538 564.359 471.303 589.296 496.24C614.54 521.484 630.385 554.37 634.579 589.46ZM636.922 589.46C635.204 574.807 631.469 560.431 625.801 546.745C617.739 527.281 605.922 509.596 591.025 494.699C576.128 479.802 558.442 467.985 538.978 459.923C528.863 455.733 518.37 452.6 507.667 450.556C527.502 449.392 547.029 444.918 565.432 437.296C587.056 428.339 606.703 415.21 623.254 398.66C639.804 382.11 652.932 362.462 661.889 340.838C666.134 330.591 669.402 319.994 671.666 309.19H672.509C672.008 314.338 671.754 319.528 671.754 324.744V589.46H636.922ZM637.143 591.46H809.324C807.089 602.001 803.886 612.341 799.742 622.344C790.886 643.725 777.905 663.153 761.541 679.517C745.176 695.882 725.749 708.863 704.367 717.719C683.321 726.437 660.786 730.99 638.013 731.131V608.138C638.013 602.557 637.721 596.99 637.143 591.46ZM990.921 447.773H989.228C989.888 444.431 990.453 441.07 990.921 437.694V447.773ZM990.608 324.744C990.608 319.158 990.313 313.603 989.732 308.099H921.386C902.328 308.099 884.051 300.528 870.576 287.052C860.804 277.281 854.138 264.985 851.211 251.698V447.773H987.189C989.458 436.425 990.608 424.854 990.608 413.226V324.744ZM944.206 212.719C919.275 187.788 886.89 172.024 852.289 167.597C851.785 172.727 851.529 177.9 851.529 183.099V236.242C851.529 254.769 858.889 272.537 871.99 285.638C885.09 298.739 902.859 306.099 921.386 306.099H989.508C985.343 270.948 969.488 238.001 944.206 212.719ZM672.737 307.007C673.02 304.458 673.364 301.92 673.768 299.396V297.101C673.312 300.396 672.763 303.676 672.123 306.939C672.328 306.962 672.532 306.984 672.737 307.007ZM718.742 211.305C741.213 188.834 769.663 173.717 800.353 167.505H674.898C675.477 173.038 675.768 178.607 675.768 184.191V289.077C682.432 259.856 697.211 232.835 718.742 211.305ZM832.181 164.316C837.346 164.316 842.485 164.565 847.582 165.057C849.792 153.852 850.913 142.432 850.913 130.957V42.4744C850.913 36.8865 850.618 31.3292 850.036 25.8231H781.687C762.629 25.8231 744.352 18.2525 730.876 4.77673C721.109 -4.99023 714.444 -17.2794 711.516 -30.5599V165.501H812.715C819.141 164.716 825.64 164.316 832.181 164.316ZM673.754 589.456H809.737C812.006 578.107 813.157 566.534 813.157 554.904V466.422C813.157 460.836 812.862 455.28 812.281 449.776H743.923C724.865 449.776 706.588 442.206 693.113 428.73C683.348 418.965 676.684 406.679 673.754 393.402V589.456ZM1168.38 295.969V306.095H1166.68C1167.35 302.737 1167.91 299.36 1168.38 295.969ZM853.225 159.974C858.163 126.511 873.726 95.2794 897.932 71.0742C923.112 45.8937 955.896 30.0649 990.887 25.8231H1024.54C1022.3 36.366 1019.1 46.7067 1014.96 56.7114C1006.1 78.0927 993.118 97.5201 976.753 113.885C960.389 130.249 940.962 143.23 919.58 152.087C898.534 160.804 875.999 165.358 853.225 165.498V159.974ZM991.83 306.099C990.112 291.446 986.378 277.069 980.709 263.384C972.647 243.92 960.83 226.235 945.933 211.338C931.036 196.441 913.35 184.624 893.886 176.561C883.771 172.372 873.279 169.239 862.577 167.195C882.414 166.032 901.942 161.557 920.346 153.934C941.97 144.977 961.618 131.849 978.168 115.299C994.718 98.7487 1007.85 79.1006 1016.8 57.4768C1021.05 47.2274 1024.32 36.6292 1026.58 25.8231H1027.43C1026.93 30.9724 1026.67 36.1644 1026.67 41.3826V306.099H991.83ZM992.051 308.099H1164.23C1162 318.64 1158.79 328.979 1154.65 338.983C1145.79 360.364 1132.81 379.792 1116.45 396.156C1100.08 412.521 1080.66 425.502 1059.28 434.358C1038.23 443.076 1015.69 447.629 992.921 447.769V324.777C992.921 319.196 992.63 313.629 992.051 308.099ZM1027.66 23.6473C1027.94 21.1061 1028.28 18.5759 1028.68 16.0588V13.7251C1028.23 17.025 1027.68 20.3109 1027.04 23.5786L1027.33 23.6107C1027.44 23.6228 1027.55 23.635 1027.66 23.6473ZM1030.68 -99.176V5.73248C1037.35 -23.4946 1052.13 -50.5217 1073.66 -72.0568C1096.13 -94.5276 1124.58 -109.644 1155.27 -115.857H1029.81C1030.39 -110.326 1030.68 -104.758 1030.68 -99.176ZM320.854 585.013C325.791 551.55 341.355 520.318 365.56 496.113C380.716 480.958 398.626 469.19 418.114 461.297C431.243 456.012 445.083 452.485 459.277 450.863H492.166C489.931 461.405 486.728 471.745 482.584 481.749C473.728 503.13 460.747 522.557 444.382 538.922C428.018 555.286 408.59 568.267 387.209 577.124C366.162 585.842 343.628 590.395 320.854 590.535V585.013ZM445.939 450.863C436.15 452.832 426.588 455.708 417.374 459.439C397.514 467.432 379.263 479.395 363.832 494.826C342.297 516.361 327.516 543.388 320.854 572.615V467.543C320.854 461.961 320.563 456.393 319.985 450.862L354.602 450.863H355.602H445.939ZM492.666 448.421C487.662 447.949 482.629 447.711 477.585 447.711C471.137 447.711 464.729 448.099 458.393 448.863H356.602V252.816C359.531 266.093 366.196 278.379 375.96 288.144C389.436 301.62 407.713 309.19 426.771 309.19H495.124C495.704 314.691 495.999 320.243 495.999 325.826V414.308C495.999 425.788 494.877 437.212 492.666 448.421ZM495.285 448.69C495.078 448.667 494.871 448.645 494.664 448.623C495.305 445.357 495.854 442.074 496.311 438.776V441.11C495.91 443.624 495.567 446.152 495.285 448.69ZM318.844 676.755C321.773 690.035 328.438 702.324 338.204 712.091C351.68 725.567 369.957 733.138 389.015 733.138H457.656C458.253 738.722 458.554 744.344 458.554 749.982V872.978H318.844V676.755ZM457.429 731.138H389.015C370.488 731.138 352.719 723.778 339.619 710.677C326.518 697.576 319.158 679.808 319.158 661.281V608.138C319.158 602.992 319.409 597.872 319.903 592.794C333.912 594.556 347.654 598.188 360.754 603.614C379.975 611.576 397.44 623.246 412.151 637.957C426.863 652.668 438.532 670.133 446.494 689.355C452.041 702.745 455.712 716.805 457.429 731.138ZM459.667 733.138C460.256 738.722 460.554 744.345 460.554 749.982V872.974C483.327 872.834 505.862 868.281 526.909 859.563C548.29 850.707 567.717 837.726 584.082 821.361C600.446 804.997 613.427 785.569 622.283 764.188C626.449 754.132 629.663 743.737 631.9 733.138H459.667ZM494.303 731.138H459.443C457.717 716.542 453.989 702.223 448.342 688.589C440.28 669.125 428.463 651.44 413.566 636.543C398.669 621.646 380.983 609.829 361.519 601.766C351.188 597.487 340.464 594.31 329.524 592.271C349.595 591.171 369.36 586.682 387.975 578.971C409.599 570.015 429.246 556.886 445.797 540.336C462.347 523.786 475.475 504.138 484.432 482.514C488.677 472.265 491.946 461.668 494.21 450.863H495.059C494.557 456.012 494.303 461.204 494.303 466.422V731.138ZM636.013 731.134H634.35C634.997 727.84 635.552 724.528 636.013 721.202V731.134ZM654.73 305.994C659.893 305.994 665.03 306.243 670.125 306.734C672.335 295.529 673.456 284.109 673.456 272.632V184.15C673.456 178.564 673.161 173.009 672.58 167.505H604.228C585.17 167.505 566.893 159.934 553.417 146.458C543.653 136.694 536.988 124.408 534.059 111.131V307.187H635.2C641.646 306.396 648.167 305.994 654.73 305.994ZM541.291 352.982C563.752 330.521 592.188 315.408 622.863 309.19H497.443C498.02 314.719 498.311 320.284 498.311 325.863V430.78C504.973 401.55 519.754 374.519 541.291 352.982ZM849.58 165.262C850.22 162 850.769 158.719 851.225 155.425V157.712C850.821 160.239 850.477 162.778 850.193 165.329L849.941 165.301C849.821 165.288 849.7 165.275 849.58 165.262ZM675.768 301.612C680.712 268.164 696.273 236.948 720.469 212.752C745.641 187.579 778.413 171.752 813.392 167.505H847.081C844.846 178.049 841.643 188.391 837.498 198.397C828.642 219.778 815.661 239.206 799.296 255.57C782.932 271.935 763.505 284.916 742.123 293.772C721.076 302.49 698.542 307.043 675.768 307.183V301.612ZM896.199 69.6209C918.667 47.1525 947.114 32.037 977.8 25.8231H852.356C852.934 31.3547 853.225 36.9229 853.225 42.5056V147.393C859.889 118.173 874.668 91.1518 896.199 69.6209ZM1009.64 22.6328C1014.8 22.6328 1019.94 22.8819 1025.04 23.3733C1027.25 12.168 1028.37 0.747375 1028.37 -10.7289V-99.2112C1028.37 -104.797 1028.07 -110.352 1027.49 -115.857H959.144C940.086 -115.857 921.809 -123.427 908.333 -136.903C898.569 -146.668 891.904 -158.954 888.975 -172.231V23.8196H990.156C996.587 23.0329 1003.09 22.6328 1009.64 22.6328ZM282.463 592.542H317.616C317.103 597.745 316.844 602.992 316.844 608.265V872.981H211.556C193.029 872.981 175.26 865.621 162.16 852.521C149.059 839.42 141.699 821.652 141.699 803.125V749.982C141.699 707.965 158.391 667.668 188.101 637.957C213.619 612.439 246.945 596.526 282.463 592.542ZM317.826 590.534C318.109 587.992 318.452 585.46 318.854 582.942V467.543C318.854 461.96 318.559 456.393 317.974 450.862H249.314C230.256 450.862 211.979 443.292 198.503 429.816C188.738 420.051 182.074 407.765 179.145 394.488V590.538H282.383C288.247 589.886 294.17 589.555 300.126 589.555C306.051 589.555 311.96 589.883 317.826 590.534ZM1065.21 -398.315C1064.69 -393.106 1064.43 -387.852 1064.43 -382.573V-117.857H1029.59C1027.88 -132.509 1024.14 -146.884 1018.47 -160.569C1010.41 -180.033 998.594 -197.718 983.696 -212.615C968.799 -227.512 951.114 -239.329 931.65 -247.392C918.376 -252.89 904.452 -256.569 890.256 -258.352C894.208 -293.933 910.132 -327.323 935.689 -352.881C965.4 -382.592 1005.7 -399.283 1047.71 -399.283C1053.57 -399.283 1059.41 -398.959 1065.21 -398.315ZM1027.27 -117.857H959.144C940.617 -117.857 922.848 -125.216 909.748 -138.317C896.647 -151.418 889.287 -169.186 889.287 -187.713V-240.856C889.287 -246.055 889.543 -251.228 890.047 -256.358C924.649 -251.932 957.036 -236.168 981.968 -211.236C1007.25 -185.954 1023.1 -153.007 1027.27 -117.857ZM535.131 27.0045C535.458 27.0457 535.785 27.0878 536.111 27.131C570.345 31.727 602.357 47.428 627.054 72.125C652.336 97.4072 668.191 130.354 672.355 165.505H604.228C585.701 165.505 567.932 158.145 554.832 145.044C541.731 131.944 534.371 114.175 534.371 95.6481V42.5056C534.371 37.3066 534.627 32.134 535.131 27.0045ZM357.883 166.687C361.838 131.109 377.761 97.7216 403.316 72.166C433.027 42.4551 473.324 25.7637 515.341 25.7637C521.196 25.7637 527.036 26.0883 532.832 26.7322C532.319 31.9413 532.059 37.1944 532.059 42.4744V307.19H497.221C495.504 292.535 491.769 278.157 486.1 264.47C478.037 245.006 466.22 227.321 451.323 212.424C436.426 197.527 418.741 185.71 399.277 177.647C386.003 172.149 372.079 168.471 357.883 166.687ZM674.676 165.505C672.958 150.855 669.224 136.481 663.557 122.798C655.494 103.334 643.677 85.6489 628.78 70.7518C613.883 55.8547 596.198 44.0377 576.734 35.9755C563.78 30.6099 550.208 26.9773 536.368 25.1475C536.208 25.1261 536.049 25.105 535.889 25.084C535.706 25.06 535.523 25.0363 535.339 25.0129C539.291 -10.5693 555.215 -43.9612 580.773 -69.5196C610.484 -99.2305 650.781 -115.922 692.798 -115.922C698.105 -115.922 703.398 -115.655 708.658 -115.126C708.948 -115.096 709.238 -115.066 709.528 -115.034C709.782 -115.007 710.036 -114.979 710.289 -114.95C709.776 -109.742 709.516 -104.49 709.516 -99.2112V165.505H674.676ZM494.9 307.19H426.771C408.243 307.19 390.475 299.83 377.375 286.73C364.274 273.629 356.914 255.861 356.914 237.334V184.191C356.914 178.988 357.17 173.812 357.675 168.678C392.278 173.104 424.664 188.868 449.597 213.801C474.881 239.085 490.737 272.036 494.9 307.19ZM804.511 -69.5508C779.578 -94.4831 747.192 -110.247 712.589 -114.673C712.085 -109.545 711.83 -104.374 711.83 -99.176V-46.0336C711.83 -27.5064 719.19 -9.7381 732.291 3.36255C745.391 16.4633 763.159 23.8231 781.687 23.8231H849.812C845.646 -11.325 829.791 -44.27 804.511 -69.5508ZM887.748 -256.635C887.235 -251.426 886.975 -246.173 886.975 -240.893V23.8231H852.134C850.416 9.17151 846.682 -5.20325 841.014 -18.8873C832.951 -38.3513 821.135 -56.0367 806.237 -70.9338C791.34 -85.8308 773.655 -97.6478 754.191 -105.71C740.917 -111.208 726.994 -114.887 712.798 -116.67C716.751 -152.252 732.674 -185.643 758.232 -211.201C787.943 -240.912 828.24 -257.604 870.257 -257.604C876.112 -257.604 881.952 -257.279 887.748 -256.635ZM180.426 308.367C184.378 272.786 200.302 239.395 225.859 213.838C255.57 184.127 295.867 167.436 337.884 167.436C343.74 167.436 349.579 167.76 355.376 168.404C354.862 173.615 354.602 178.869 354.602 184.15V448.862H319.763C318.045 434.21 314.311 419.834 308.643 406.15C300.58 386.686 288.763 369 273.866 354.103C258.969 339.206 241.284 327.389 221.82 319.327C208.546 313.829 194.622 310.15 180.426 308.367ZM317.749 448.862H249.314C230.786 448.862 213.018 441.502 199.918 428.402C186.817 415.301 179.457 397.533 179.457 379.005V325.863C179.457 320.662 179.713 315.488 180.217 310.356C194.222 312.119 207.959 315.75 221.055 321.175C240.276 329.137 257.741 340.806 272.452 355.518C287.163 370.229 298.833 387.694 306.795 406.915C312.362 420.357 316.041 434.473 317.749 448.862ZM177.145 590.542H71.8565C53.3294 590.542 35.5611 583.182 22.4605 570.081C9.35986 556.981 2 539.212 2 520.685V467.543C2 425.525 18.6914 385.228 48.4022 355.518C78.1131 325.807 118.41 309.115 160.427 309.115C166.282 309.115 172.122 309.44 177.918 310.084C177.405 315.293 177.145 320.546 177.145 325.826V590.542Z" fill="url(#paint0_radial_1421_12260)"/>
</g>
<defs>
<radialGradient id="paint0_radial_1421_12260" cx="0" cy="0" r="1" gradientUnits="userSpaceOnUse" gradientTransform="translate(531 464) rotate(175.526) scale(705.184 756.264)">
<stop stop-color="#D2DDE8"/>
<stop offset="1" stop-color="#F4F6FA" stop-opacity="0"/>
</radialGradient>
<clipPath id="clip0_1421_12260">
<rect width="649" height="652" fill="white"/>
</clipPath>
</defs>
</svg>
