<svg width="29" height="29" viewBox="0 0 29 29" fill="none" xmlns="http://www.w3.org/2000/svg">
<g clip-path="url(#clip0_1802_9594)">
<path d="M24.7089 24.7101H20.4123V17.979C20.4123 16.3741 20.3834 14.3075 18.1772 14.3075C15.9393 14.3075 15.5967 16.0559 15.5967 17.861V24.7095H11.3001V10.8713H15.4248V12.7626H15.4804C15.8933 12.0568 16.4899 11.4761 17.2066 11.0825C17.9234 10.6889 18.7335 10.4971 19.5506 10.5275C23.9057 10.5275 24.7089 13.3924 24.7089 17.119V24.7101ZM6.45161 8.97931C5.95837 8.97942 5.47618 8.83325 5.06601 8.55929C4.65584 8.28533 4.33612 7.89588 4.14729 7.4402C3.95846 6.98451 3.90899 6.48307 4.00515 5.99927C4.10131 5.51547 4.33877 5.07106 4.68751 4.72223C5.03625 4.37341 5.48059 4.13583 5.96435 4.03956C6.4481 3.94329 6.94954 3.99265 7.40525 4.18138C7.86096 4.37012 8.25046 4.68976 8.5245 5.09989C8.79854 5.51001 8.94482 5.99219 8.94482 6.48545C8.94482 7.14677 8.68216 7.78101 8.21461 8.24868C7.74706 8.71635 7.1129 8.97916 6.45161 8.97931V8.97931ZM8.59993 24.7095H4.29885V10.8713H8.60048L8.59993 24.7095ZM26.8489 0.00188496H2.13941C1.86145 -0.00149398 1.58554 0.0499901 1.3275 0.15339C1.06945 0.256789 0.834339 0.410074 0.635614 0.604466C0.436888 0.798858 0.278457 1.03054 0.169389 1.28625C0.0603212 1.54196 0.00275934 1.81667 0 2.09465V26.9052C0.00660239 27.4664 0.235691 28.0021 0.636939 28.3945C1.03819 28.7869 1.57878 29.0039 2.13997 28.998H26.8489C27.4116 29.0056 27.9542 28.7894 28.3575 28.3969C28.7608 28.0045 28.9917 27.4679 28.9994 26.9052V2.0902C28.9914 1.52787 28.7603 0.991763 28.357 0.599818C27.9537 0.207873 27.4112 -0.00780829 26.8489 0.000216155" fill="#D2DDE8"/>
</g>
<defs>
<clipPath id="clip0_1802_9594">
<rect width="29" height="29" fill="white"/>
</clipPath>
</defs>
</svg>
