<svg width="34" height="16" viewBox="0 0 34 16" fill="none" xmlns="http://www.w3.org/2000/svg">
<path d="M1.26367 7C0.711387 7 0.263672 7.44772 0.263672 8C0.263672 8.55228 0.711387 9 1.26367 9V7ZM33.7065 8.70711C34.0971 8.31658 34.0971 7.68342 33.7065 7.29289L27.3426 0.928932C26.952 0.538408 26.3189 0.538408 25.9284 0.928932C25.5378 1.31946 25.5378 1.95262 25.9284 2.34315L31.5852 8L25.9284 13.6569C25.5378 14.0474 25.5378 14.6805 25.9284 15.0711C26.3189 15.4616 26.952 15.4616 27.3426 15.0711L33.7065 8.70711ZM1.26367 9H32.9994V7H1.26367V9Z" fill="#222945"/>
</svg>
