<svg width="372" height="220" viewBox="0 0 372 220" fill="none" xmlns="http://www.w3.org/2000/svg">
<g clip-path="url(#clip0_1901_9662)">
<path fill-rule="evenodd" clip-rule="evenodd" d="M356.325 35.7246C356.056 35.5574 356.056 35.2863 356.325 35.1192L363.215 30.8381C363.484 30.6709 363.92 30.6709 364.189 30.8381C364.458 31.0053 364.458 31.2764 364.189 31.4436L357.299 35.7246C357.03 35.8918 356.594 35.8918 356.325 35.7246Z" fill="white" stroke="#D2DDE8" stroke-width="1.13285" stroke-linecap="round"/>
<path fill-rule="evenodd" clip-rule="evenodd" d="M356.327 30.8379C356.596 30.6707 357.033 30.6707 357.302 30.8379L364.191 35.1189C364.46 35.2861 364.46 35.5572 364.191 35.7244C363.922 35.8916 363.486 35.8916 363.217 35.7244L356.327 31.4433C356.058 31.2761 356.058 31.0051 356.327 30.8379Z" fill="white" stroke="#D2DDE8" stroke-width="1.13285" stroke-linecap="round"/>
<g filter="url(#filter0_d_1901_9662)">
<rect width="370.516" height="218.121" rx="5.66425" fill="white" stroke="#D2DDE8" stroke-width="1.13285"/>
</g>
<path d="M89.6736 36.8184H75.001C72.1855 36.8184 69.9032 39.1008 69.9032 41.9162V56.5889C69.9032 59.4043 72.1855 61.6867 75.001 61.6867H89.6736C92.4891 61.6867 94.7715 59.4043 94.7715 56.5889V41.9162C94.7715 39.1008 92.4891 36.8184 89.6736 36.8184Z" fill="white" stroke="#D2DDE8" stroke-width="1.13285"/>
<path d="M37.159 39.5951C37.159 44.6748 31.9575 48.9948 25.2626 48.9948C18.5677 48.9948 13.3662 44.6748 13.3662 39.5951C13.3662 34.5153 18.5677 30.1953 25.2626 30.1953C31.9575 30.1953 37.159 34.5153 37.159 39.5951Z" stroke="#D2DDE8" stroke-width="1.13285"/>
<rect x="14.0401" y="54.9746" width="22.4455" height="5.33168" rx="2.66584" stroke="#D2DDE8" stroke-width="1.13285"/>
<path d="M0 23.834H54.6785V218.12H5.66425C2.53597 218.12 0 215.584 0 212.456V23.834Z" fill="white" stroke="#D2DDE8" stroke-width="1.13285"/>
<path d="M0 5.66425C0 2.53597 2.53597 0 5.66425 0H364.852C367.98 0 370.516 2.53597 370.516 5.66425V24.03H0V5.66425Z" fill="white" stroke="#D2DDE8" stroke-width="1.13285"/>
<ellipse cx="12.5148" cy="12.1525" rx="3.74628" ry="3.44353" stroke="#D2DDE8" stroke-width="1.13285"/>
<ellipse cx="25.8361" cy="12.1525" rx="3.74628" ry="3.44353" stroke="#D2DDE8" stroke-width="1.13285"/>
<ellipse cx="39.1574" cy="12.1525" rx="3.74628" ry="3.44353" stroke="#D2DDE8" stroke-width="1.13285"/>
<path d="M113.28 36.6778H351.13C353.945 36.6778 356.227 38.9601 356.227 41.7756V49.1119V56.4482C356.227 59.2637 353.945 61.5461 351.13 61.5461H113.28C110.465 61.5461 108.183 59.2637 108.183 56.4482V41.7756C108.183 38.9601 110.465 36.6778 113.28 36.6778Z" fill="white" stroke="#D2DDE8" stroke-width="1.13285"/>
<rect x="69.9033" y="75.6797" width="86.9822" height="127.428" rx="5.09783" stroke="#D2DDE8" stroke-width="1.13285"/>
<rect x="171.019" y="75.6797" width="184.486" height="127.428" rx="5.09783" stroke="#D2DDE8" stroke-width="1.13285"/>
<rect x="12.8447" y="71.3457" width="26.3128" height="6.81195" rx="3.40597" stroke="#D2DDE8" stroke-width="1.13285"/>
<circle cx="26.0006" cy="49.11" r="12.4341" stroke="#D2DDE8" stroke-width="1.13285"/>
<g clip-path="url(#clip1_1901_9662)">
<path d="M6.2 0.599609H365C368.1 0.599609 370.7 3.09961 370.7 6.29961V212.9C370.7 216 368.2 218.6 365 218.6H6.2C3.1 218.6 0.5 216.1 0.5 212.9V6.29961C0.5 3.09961 3 0.599609 6.2 0.599609Z" fill="white" stroke="#D2DDE8"/>
<path d="M0.500391 24.5H55.1004V218.6H6.10039C3.00039 218.6 0.400391 216.1 0.400391 212.9V24.5H0.500391Z" fill="white" stroke="#D2DDE8"/>
<path d="M0.5 24.5V6.2C0.5 3 3 0.5 6.2 0.5H365C368.1 0.5 370.7 3 370.7 6.2V24.5H0.5Z" fill="white" stroke="#D2DDE8"/>
<path d="M39 16.5C41.2091 16.5 43 14.7091 43 12.5C43 10.2909 41.2091 8.5 39 8.5C36.7909 8.5 35 10.2909 35 12.5C35 14.7091 36.7909 16.5 39 16.5Z" stroke="#D2DDE8"/>
<path d="M26 16.5C28.2091 16.5 30 14.7091 30 12.5C30 10.2909 28.2091 8.5 26 8.5C23.7909 8.5 22 10.2909 22 12.5C22 14.7091 23.7909 16.5 26 16.5Z" stroke="#D2DDE8"/>
<path d="M13 16.5C15.2091 16.5 17 14.7091 17 12.5C17 10.2909 15.2091 8.5 13 8.5C10.7909 8.5 9 10.2909 9 12.5C9 14.7091 10.7909 16.5 13 16.5Z" stroke="#D2DDE8"/>
<path d="M37.8004 42.5008C36.1004 40.8008 33.8004 39.8008 31.4004 39.8008C29.0004 39.8008 26.7004 40.8008 25.0004 42.5008C23.5004 44.0008 22.6004 45.9008 22.4004 48.0008C22.5004 48.0008 22.6004 48.0008 22.7004 48.0008C22.8004 48.0008 22.9004 48.0008 22.9004 48.0008C22.9004 48.0008 22.9004 48.0008 23.0004 48.0008C23.2004 48.0008 23.4004 48.1008 23.6004 48.1008C23.6004 48.1008 23.6004 48.1008 23.7004 48.1008C23.8004 48.1008 23.9004 48.1008 23.9004 48.2008C24.0004 48.2008 24.1004 48.3008 24.2004 48.3008C24.3004 48.3008 24.4004 48.4008 24.4004 48.4008C24.4004 48.4008 24.4004 48.4008 24.5004 48.4008C24.6004 48.4008 24.7004 48.5008 24.8004 48.5008C25.9004 49.0008 26.9004 49.6008 27.8004 50.5008C28.6004 51.3008 29.3004 52.4008 29.8004 53.5008C30.3004 54.6008 30.5004 55.8008 30.5004 57.0008V64.1008C31.8004 64.1008 33.1004 63.8008 34.4004 63.3008C35.6004 62.8008 36.7004 62.0008 37.7004 61.1008C38.6004 60.2008 39.4004 59.0008 39.9004 57.8008C40.4004 56.6008 40.7004 55.3008 40.7004 53.9008V48.8008C40.5004 46.5008 39.5004 44.2008 37.8004 42.5008Z" stroke="#D2DDE8"/>
<path d="M22.3006 48.0004C21.9006 48.0004 21.6006 47.9004 21.2006 47.9004C18.8006 47.9004 16.5006 48.9004 14.8006 50.6004C13.1006 52.3004 12.1006 54.6004 12.1006 57.0004V60.0004C12.1006 61.1004 12.5006 62.1004 13.3006 62.9004C14.1006 63.7004 15.1006 64.1004 16.2006 64.1004H22.3006V49.0004C22.3006 48.6004 22.3006 48.3004 22.3006 48.0004Z" stroke="#D2DDE8"/>
<path d="M30.4008 57.1016C30.4008 55.9016 30.2008 54.7016 29.7008 53.6016C29.2008 52.5016 28.6008 51.5016 27.7008 50.6016C26.9008 49.8016 25.8008 49.1016 24.7008 48.6016C24.6008 48.6016 24.5008 48.5016 24.4008 48.5016C24.4008 48.5016 24.4008 48.5016 24.3008 48.5016C24.2008 48.5016 24.1008 48.4016 24.1008 48.4016C24.0008 48.4016 23.9008 48.3016 23.8008 48.3016C23.7008 48.3016 23.6008 48.3016 23.6008 48.2016C23.6008 48.2016 23.6008 48.2016 23.5008 48.2016C23.3008 48.2016 23.1008 48.1016 22.9008 48.1016C22.9008 48.1016 22.9008 48.1016 22.8008 48.1016C22.7008 48.1016 22.6008 48.1016 22.6008 48.1016C22.5008 48.1016 22.4008 48.1016 22.3008 48.1016C22.3008 48.4016 22.3008 48.7016 22.3008 49.1016V64.3016H30.4008V57.1016Z" stroke="#D2DDE8"/>
<path d="M12.1006 83.5H39.9006" stroke="#D2DDE8"/>
<path d="M12.1006 91.1016H39.9006" stroke="#D2DDE8"/>
<path d="M12.1006 98.7012H39.9006" stroke="#D2DDE8"/>
<path d="M104.2 50.2004C104.2 47.3004 101.8 44.9004 98.9 44.9004H85.3C82.4 44.9004 80 47.3004 80 50.2004V63.9004C80 66.8004 82.4 69.2004 85.3 69.2004H99C101.9 69.2004 104.3 66.8004 104.3 63.9004V50.2004H104.2Z" stroke="#D2DDE8"/>
<path d="M159.501 69.1008H120.901C118.001 69.1008 115.601 66.7008 115.601 63.8008V50.1008C115.601 47.2008 118.001 44.8008 120.901 44.8008H342.501C345.401 44.8008 347.801 47.2008 347.801 50.1008V56.9008V63.7008C347.801 66.6008 345.401 69.0008 342.501 69.0008H248.801" stroke="#D2DDE8"/>
<path d="M150.3 162.099V195.599C150.3 198.199 148.5 200.299 146.2 200.299H84.6C82.3 200.299 80.5 198.199 80.5 195.599V86.3992C80.5 83.7992 82.3 81.6992 84.6 81.6992H147.2" stroke="#D2DDE8"/>
<path d="M260.401 81.6992H342.701C345.501 81.6992 347.801 83.7992 347.801 86.3992V195.599C347.801 198.199 345.501 200.299 342.701 200.299H169.701C166.901 200.299 164.601 198.199 164.601 195.599V176.199" stroke="#D2DDE8"/>
<path d="M14.0996 190.801H37.8996C38.9996 190.801 39.8996 191.701 39.8996 192.801V196.101C39.8996 197.201 38.9996 198.101 37.8996 198.101H14.0996C12.9996 198.101 12.0996 197.201 12.0996 196.101V192.801C12.0996 191.701 12.9996 190.801 14.0996 190.801Z" stroke="#D2DDE8"/>
<path d="M203.9 182.201C237.976 182.201 265.6 154.577 265.6 120.501C265.6 86.4248 237.976 58.8008 203.9 58.8008C169.824 58.8008 142.2 86.4248 142.2 120.501C142.2 154.577 169.824 182.201 203.9 182.201Z" stroke="#19D4EE"/>
<path d="M197.5 151.101L168.1 124.901C166.6 123.601 166.5 121.301 167.8 119.901L177.3 109.201C178.6 107.701 180.9 107.601 182.3 108.901L198.5 123.301L224.2 95.001C225.5 93.501 227.8 93.401 229.3 94.801L239.9 104.401C241.4 105.701 241.5 108.001 240.1 109.401L202.6 150.701C201.2 152.201 199 152.401 197.5 151.101Z" stroke="#19D4EE"/>
</g>
<rect x="0.5" y="0.5" width="370.1" height="218.1" stroke="#D2DDE8"/>
</g>
<defs>
<filter id="filter0_d_1901_9662" x="-17.5592" y="-6.23066" width="428.292" height="275.896" filterUnits="userSpaceOnUse" color-interpolation-filters="sRGB">
<feFlood flood-opacity="0" result="BackgroundImageFix"/>
<feColorMatrix in="SourceAlpha" type="matrix" values="0 0 0 0 0 0 0 0 0 0 0 0 0 0 0 0 0 0 127 0" result="hardAlpha"/>
<feOffset dx="11.3285" dy="22.657"/>
<feGaussianBlur stdDeviation="14.1606"/>
<feComposite in2="hardAlpha" operator="out"/>
<feColorMatrix type="matrix" values="0 0 0 0 0.160784 0 0 0 0 0.188235 0 0 0 0 0.305882 0 0 0 0.1 0"/>
<feBlend mode="normal" in2="BackgroundImageFix" result="effect1_dropShadow_1901_9662"/>
<feBlend mode="normal" in="SourceGraphic" in2="effect1_dropShadow_1901_9662" result="shape"/>
</filter>
<clipPath id="clip0_1901_9662">
<rect width="371.1" height="219.1" rx="5" fill="white"/>
</clipPath>
<clipPath id="clip1_1901_9662">
<rect width="371.1" height="219.1" fill="white"/>
</clipPath>
</defs>
</svg>
