<svg width="570" height="212" viewBox="0 0 570 212" fill="none" xmlns="http://www.w3.org/2000/svg">
<g clip-path="url(#clip0_1820_10456)">
<path d="M178.203 206.098V6.45496C178.203 2.88168 181.085 0 184.658 0H384.647C388.22 0 391.102 2.88168 391.102 6.45496V206.098" fill="url(#paint0_linear_1820_10456)"/>
<g opacity="0.25">
<path d="M178.203 116.189V7.37684C178.203 3.80355 181.085 0.921875 184.658 0.921875H384.647C388.22 0.921875 391.102 3.80355 391.102 7.37684V149.962" stroke="white" stroke-width="1.15267"/>
<path d="M178.551 27.4336H389.836" stroke="white" stroke-width="1.15267"/>
<path d="M193.765 19.9421C196.375 19.9421 198.491 17.8263 198.491 15.2162C198.491 12.6061 196.375 10.4902 193.765 10.4902C191.155 10.4902 189.039 12.6061 189.039 15.2162C189.039 17.8263 191.155 19.9421 193.765 19.9421Z" stroke="white" stroke-width="1.15267"/>
<path d="M209.326 19.9421C211.936 19.9421 214.052 17.8263 214.052 15.2162C214.052 12.6061 211.936 10.4902 209.326 10.4902C206.715 10.4902 204.6 12.6061 204.6 15.2162C204.6 17.8263 206.715 19.9421 209.326 19.9421Z" stroke="white" stroke-width="1.15267"/>
<path d="M224.888 19.9421C227.498 19.9421 229.614 17.8263 229.614 15.2162C229.614 12.6061 227.498 10.4902 224.888 10.4902C222.278 10.4902 220.162 12.6061 220.162 15.2162C220.162 17.8263 222.278 19.9421 224.888 19.9421Z" stroke="white" stroke-width="1.15267"/>
<path d="M242.406 27.4336V115.152" stroke="white" stroke-width="1.15267"/>
<path d="M219.469 47.4909C217.97 45.9924 216.011 45.1855 213.936 45.1855C211.861 45.1855 209.901 45.9924 208.403 47.4909C207.135 48.7588 206.328 50.3726 206.213 52.2168C206.328 52.2168 206.328 52.2168 206.443 52.2168C206.559 52.2168 206.559 52.2168 206.674 52.2168C206.789 52.2168 207.02 52.3321 207.135 52.3321C207.25 52.3321 207.25 52.3321 207.366 52.3321C207.481 52.3321 207.481 52.3321 207.596 52.4474C207.711 52.4474 207.711 52.4474 207.827 52.5626C207.942 52.5626 207.942 52.6779 208.057 52.6779C208.979 53.0237 209.901 53.6001 210.593 54.4069C211.285 55.0985 211.861 56.0207 212.322 56.9428C212.668 57.8649 212.898 58.9023 212.898 59.9397V66.0489C214.051 66.0489 215.204 65.8184 216.241 65.3573C217.279 64.8962 218.201 64.3199 219.008 63.513C219.814 62.7062 220.506 61.784 220.852 60.7466C221.313 59.7092 221.543 58.5565 221.543 57.4039V53.0237C221.774 50.9489 220.967 48.9894 219.469 47.4909Z" stroke="white" stroke-width="1.15267"/>
<path d="M206.213 52.2168C205.868 52.2168 205.637 52.2168 205.291 52.2168C203.216 52.2168 201.257 53.0237 199.758 54.5221C198.26 56.0206 197.453 57.9802 197.453 60.055V62.7061C197.453 63.6282 197.799 64.5504 198.491 65.1267C199.182 65.8183 199.989 66.1641 200.911 66.1641H206.098V53.0237C206.213 52.7931 206.213 52.4473 206.213 52.2168Z" stroke="white" stroke-width="1.15267"/>
<path d="M213.131 59.9397C213.131 58.9023 212.9 57.8649 212.554 56.9428C212.209 56.0206 211.632 55.0985 210.825 54.4069C210.134 53.7153 209.212 53.1389 208.29 52.6779C208.174 52.6779 208.174 52.5626 208.059 52.5626C207.944 52.5626 207.944 52.5626 207.829 52.4473C207.713 52.4473 207.713 52.4473 207.598 52.3321C207.483 52.3321 207.483 52.3321 207.367 52.3321C207.252 52.3321 207.022 52.2168 206.906 52.2168C206.791 52.2168 206.791 52.2168 206.676 52.2168C206.561 52.2168 206.561 52.2168 206.445 52.2168C206.445 52.4473 206.445 52.7931 206.445 53.0237V66.0489H213.361L213.131 59.9397Z" stroke="white" stroke-width="1.15267"/>
<path d="M197.566 82.5312H221.311" stroke="white" stroke-width="1.15267"/>
<path d="M197.566 88.9863H221.311" stroke="white" stroke-width="1.15267"/>
<path d="M197.566 95.5566H221.311" stroke="white" stroke-width="1.15267"/>
</g>
<path opacity="0.5" d="M175.207 105.354C171.864 95.2109 162.413 88.4102 151.693 88.4102L140.627 88.5254C142.01 85.8743 146.851 75.9613 148.926 65.9331C148.926 54.6369 143.624 47.1445 132.328 47.1445C121.032 47.1445 113.424 54.2911 113.424 65.472C113.424 67.7774 113.655 76.1919 113.655 76.1919C113.655 76.1919 110.888 82.8773 108.006 88.8712L93.3675 88.9865C84.2614 89.1018 76.6538 95.9025 75.5011 105.009L64.7812 193.303H141.319L161.029 137.168L173.709 168.751H195.955L175.207 105.354Z" fill="url(#paint1_linear_1820_10456)"/>
<path opacity="0.5" d="M96.0188 95.094L136.478 201.831H49.105L1.38442 77.3428C-1.72779 69.0436 4.38137 60.0527 13.2569 60.0527H20.7493H75.5012C82.1867 60.0527 88.2959 64.0871 90.8318 70.3115L96.3646 83.6825L94.9814 89.1001L96.0188 95.094Z" fill="url(#paint2_linear_1820_10456)"/>
<path opacity="0.5" d="M470.635 121.49L445.853 180.622C443.317 186.732 447.813 193.417 454.383 193.417H522.621H531.381L565.27 103.739C568.382 95.4401 562.273 86.4492 553.397 86.4492H546.02H486.196C482.508 86.4492 479.165 88.6393 477.782 92.0973L470.405 110.194L471.788 115.612L470.635 121.49Z" fill="url(#paint3_linear_1820_10456)"/>
<path opacity="0.5" d="M491.268 147.08L492.075 138.781C493.228 126.101 483.545 115.958 470.866 115.842L452.654 115.727L446.89 100.858C449.542 94.5179 451.155 87.8324 451.155 83.5676C451.155 73.7698 446.66 65.8164 431.906 65.8164C421.301 65.8164 412.08 73.7698 412.656 83.5676C411.734 98.437 412.771 106.045 416.345 108.926L417.151 115.958C409.544 117.571 402.858 123.335 398.248 133.939L383.609 168.174L337.732 174.744L342.343 186.962H394.098L411.042 157.108L424.874 193.648L494.265 193.532L491.268 147.08Z" fill="url(#paint4_linear_1820_10456)"/>
<path d="M345.342 170.136H267.536C244.713 170.136 229.267 146.852 238.143 125.758L255.087 85.8754C255.433 85.0685 256.24 84.4922 257.162 84.4922H378.077C379.691 84.4922 380.844 86.1059 380.267 87.7197L347.416 168.752C347.186 169.559 346.264 170.136 345.342 170.136Z" fill="url(#paint5_linear_1820_10456)"/>
<path d="M198.144 168.061H151" stroke="white" stroke-width="1.15267"/>
<path d="M202.18 176.244H147.773" stroke="white" stroke-width="1.15267"/>
<path d="M243.674 116.306L255.892 85.8754C256.238 84.9533 257.045 84.377 258.082 84.377H378.536C380.15 84.377 381.303 85.9907 380.726 87.6044L347.645 168.637C347.299 169.559 346.492 170.02 345.455 170.02" stroke="white" stroke-width="1.15267"/>
<path d="M113.538 75.7324L108.812 88.7576L128.408 88.6424L131.174 80.5736" stroke="white" stroke-width="1.15267"/>
<path d="M125.525 193.418H141.548L160.912 137.283" stroke="white" stroke-width="1.15267"/>
<path d="M445.853 100.859C449.311 96.0181 451.155 90.2547 451.155 84.1456V81.1486C451.155 73.1952 444.701 66.7402 436.747 66.7402H427.526C419.457 66.7402 413.002 73.3105 413.117 81.3792L412.656 100.398C412.656 102.358 413.117 104.202 414.039 105.931L417.382 109.965" stroke="white" stroke-width="1.15267"/>
<path d="M472.824 193.42H453.344C450.347 193.42 447.58 191.46 446.658 188.578L426.026 127.948C425.68 127.026 426.371 126.104 427.409 126.104H440.203C440.78 126.104 441.241 126.449 441.471 126.91L462.796 173.017" stroke="white" stroke-width="1.15267"/>
<path d="M342.344 186.848H394.099L411.043 156.994L424.875 193.534" stroke="white" stroke-width="1.15267"/>
<path d="M491.27 144.316L494.266 193.42H497.148" stroke="white" stroke-width="1.15267"/>
<path d="M417.152 115.843C411.504 115.612 404.242 121.26 400.669 129.214L382.802 168.981L336.35 170.249" stroke="white" stroke-width="1.15267"/>
<path d="M208.864 193.419L178.664 114H310.069L340.038 193.419H209.556" stroke="white" stroke-width="1.15267"/>
<path d="M447.006 99.1289L452.423 116.304" stroke="white" stroke-width="1.15267"/>
<path d="M451.732 113.885C453.115 118.265 449.081 123.452 440.666 126.218" stroke="white" stroke-width="1.15267"/>
<path d="M462.683 142.24L456.113 158.723" stroke="white" stroke-width="1.15267"/>
<path d="M303.385 114H313.528C314.45 114 315.373 114.576 315.718 115.498L345.111 193.419" stroke="white" stroke-width="1.15267"/>
<path d="M379.113 186.848H402.858V193.533" stroke="white" stroke-width="1.15267"/>
<path d="M108.35 88.8708L151.805 88.4098C161.718 88.2945 170.594 94.5189 173.937 103.856" stroke="white" stroke-width="1.15267"/>
<path d="M173.709 103.625L178.204 115.152" stroke="white" stroke-width="1.15267"/>
<path d="M187.424 168.06H184.773C177.857 168.06 171.747 163.795 169.212 157.455L153.189 116.535" stroke="white" stroke-width="1.15267"/>
<g opacity="0.5">
<path d="M528.155 201.832L565.04 104.316C566.654 100.166 566.078 95.4401 563.426 91.8668C561.006 88.524 557.202 86.4492 553.052 86.4492H492.307" stroke="white" stroke-width="1.15267"/>
<path d="M493.918 110.193H525.386" stroke="white" stroke-width="1.15267"/>
<path d="M503.602 116.533H514.782" stroke="white" stroke-width="1.15267"/>
<path d="M519.509 201.832L551.207 115.612L550.516 112.615C550.17 111.232 550.285 109.733 550.861 108.35L556.394 94.7484C558.008 90.8293 555.126 86.5645 550.861 86.5645H486.658C482.739 86.5645 479.165 88.9851 477.667 92.5584L470.981 108.926C470.636 109.964 470.52 111.001 470.751 112.038L471.788 115.727" stroke="white" stroke-width="1.15267"/>
</g>
<path d="M463.028 193.419C467.409 193.419 471.328 190.767 473.057 186.733L491.269 144.2C492.883 140.05 492.883 135.324 491.269 131.174L489.886 127.486C487.235 120.454 480.434 115.844 472.941 115.844L452.424 115.613" stroke="white" stroke-width="1.15267"/>
<path d="M409 151L413.034 162.296" stroke="white"/>
<path d="M207.366 193.073L344.534 193.534L314.334 115.268C313.988 114.346 313.181 113.77 312.144 113.77H179.587C177.973 113.77 176.82 115.383 177.397 116.882L207.366 193.073Z" fill="url(#paint6_linear_1820_10456)"/>
<path opacity="0.5" d="M48.2957 201.831L1.49726 77.9191C-0.116477 73.7695 0.459858 69.0436 3.111 65.4703C5.53161 62.1275 9.33543 60.0527 13.485 60.0527H75.3835C82.069 60.0527 88.1782 64.0871 90.714 70.3115L95.6705 82.4146C96.0163 83.452 96.1316 84.4894 95.9011 85.5268L94.8637 89.2153" stroke="white" stroke-width="1.15267"/>
<path opacity="0.5" d="M0.460938 201.832H569.074" stroke="white" stroke-width="1.15267"/>
<path opacity="0.25" d="M51.293 210.824H523.427" stroke="white" stroke-width="1.15267"/>
<path opacity="0.5" d="M137.051 201.833L94.5176 89.332" stroke="white" stroke-width="1.15267"/>
<path d="M208.864 193.42H138.666" stroke="white" stroke-width="1.15267"/>
<path d="M429.255 108.465H420.725C418.189 108.465 416.23 110.77 416.691 113.306L417.497 117.686C417.728 118.724 418.65 119.53 419.688 119.53H425.105L427.641 126.216H438.707L434.672 112.614C434.096 110.079 431.791 108.465 429.255 108.465Z" stroke="white" stroke-width="1.15267"/>
<path d="M501.988 193.42H209.094" stroke="white" stroke-width="1.15267"/>
<path d="M113.309 76.3071L113.539 64.4346C113.539 54.8674 121.262 47.2598 130.714 47.2598H131.406C136.823 47.2598 141.895 49.6804 145.238 53.9453C148.926 58.5559 149.964 64.6651 148.235 70.3132L140.742 88.6407" stroke="white" stroke-width="1.15267"/>
<path d="M390.18 176.819C390.18 172.438 386.607 168.98 382.342 168.98" stroke="white" stroke-width="1.15267"/>
<path d="M440.782 74.8075C443.894 74.9228 447.928 77.4587 446.084 84.951C443.779 93.7113 442.741 96.7083 439.629 96.593C438.131 93.5961 434.557 89.9075 434.788 84.49C435.019 78.9571 437.67 74.577 440.782 74.8075Z" fill="url(#paint7_linear_1820_10456)"/>
<path opacity="0.5" d="M260.504 89.793H374.042L342.805 165.293H334.505" stroke="white" stroke-width="1.15267"/>
<path opacity="0.5" d="M48.2952 201.834L1.38143 77.9217C0.228761 74.9247 2.41884 71.6973 5.64632 71.6973H70.7723C75.9593 71.6973 80.6852 74.9247 82.5295 79.766L128.636 201.719" stroke="white" stroke-width="1.15267"/>
<path d="M94.8672 89.2169L108.815 88.7559" stroke="white" stroke-width="1.15267"/>
<path d="M426.72 123.336L423.492 115.613" stroke="white" stroke-width="1.15267"/>
</g>
<defs>
<linearGradient id="paint0_linear_1820_10456" x1="313.775" y1="145.073" x2="129.817" y2="-106.355" gradientUnits="userSpaceOnUse">
<stop stop-color="white" stop-opacity="0"/>
<stop offset="0.8715" stop-color="white" stop-opacity="0.8741"/>
<stop offset="0.997" stop-color="white"/>
</linearGradient>
<linearGradient id="paint1_linear_1820_10456" x1="86.8873" y1="120.311" x2="178.768" y2="120.311" gradientUnits="userSpaceOnUse">
<stop stop-color="white"/>
<stop offset="1" stop-color="white" stop-opacity="0"/>
</linearGradient>
<linearGradient id="paint2_linear_1820_10456" x1="113.837" y1="130.926" x2="18.6184" y2="130.926" gradientUnits="userSpaceOnUse">
<stop stop-color="white"/>
<stop offset="1" stop-color="white" stop-opacity="0"/>
</linearGradient>
<linearGradient id="paint3_linear_1820_10456" x1="465.343" y1="139.971" x2="550.077" y2="139.971" gradientUnits="userSpaceOnUse">
<stop stop-color="white"/>
<stop offset="1" stop-color="white" stop-opacity="0"/>
</linearGradient>
<linearGradient id="paint4_linear_1820_10456" x1="479.761" y1="120.599" x2="363.572" y2="175.245" gradientUnits="userSpaceOnUse">
<stop stop-color="white"/>
<stop offset="1" stop-color="white" stop-opacity="0"/>
</linearGradient>
<linearGradient id="paint5_linear_1820_10456" x1="248.175" y1="151.639" x2="362.094" y2="99.426" gradientUnits="userSpaceOnUse">
<stop stop-color="white"/>
<stop offset="1" stop-color="white" stop-opacity="0"/>
</linearGradient>
<linearGradient id="paint6_linear_1820_10456" x1="316.931" y1="136.705" x2="197.077" y2="173.726" gradientUnits="userSpaceOnUse">
<stop offset="0.0545423" stop-color="white" stop-opacity="0"/>
<stop offset="0.997" stop-color="white"/>
</linearGradient>
<linearGradient id="paint7_linear_1820_10456" x1="431.083" y1="73.4128" x2="442.392" y2="81.1697" gradientUnits="userSpaceOnUse">
<stop stop-color="white"/>
<stop offset="1" stop-color="white" stop-opacity="0"/>
</linearGradient>
<clipPath id="clip0_1820_10456">
<rect width="569.074" height="211.4" fill="white"/>
</clipPath>
</defs>
</svg>
