<svg width="256" height="256" viewBox="0 0 256 256" fill="none" xmlns="http://www.w3.org/2000/svg">
<rect width="256" height="256" fill="white"/>
<path d="M153 52C167.321 52 181.057 57.6893 191.183 67.8162C201.31 77.9432 207 91.6783 207 106V135.97C207 143.853 205.447 151.659 202.43 158.942C199.413 166.226 194.992 172.843 189.417 178.417C183.843 183.992 177.225 188.414 169.942 191.43C162.659 194.447 154.853 196 146.97 196H99V106C99 91.6783 104.689 77.9432 114.816 67.8162C124.943 57.6893 138.678 52 153 52V52Z" fill="#4B5CFA"/>
<path d="M92.9998 100C100.091 100 107.113 101.397 113.665 104.111C120.216 106.824 126.169 110.802 131.183 115.816C136.198 120.831 140.175 126.783 142.889 133.335C145.603 139.887 147 146.909 147 154V196H62.9999C56.6347 196 50.5303 193.471 46.0294 188.97C41.5286 184.47 39 178.365 39 172V154C39 139.678 44.6893 125.943 54.8162 115.816C64.9431 105.689 78.6782 100 92.9998 100V100Z" fill="#19D4EE"/>
<path fill-rule="evenodd" clip-rule="evenodd" d="M147.001 196V154C147.001 146.909 145.604 139.887 142.89 133.335C140.176 126.784 136.199 120.831 131.184 115.816C126.17 110.802 120.217 106.824 113.666 104.111C109.061 102.203 104.225 100.947 99.2953 100.368C99.1 102.231 99.001 104.11 99.001 106V196H146.971C146.981 196 146.991 196 147.001 196Z" fill="#002CD9"/>
</svg>
