<svg width="372" height="220" viewBox="0 0 372 220" fill="none" xmlns="http://www.w3.org/2000/svg">
<g clip-path="url(#clip0_1901_9697)">
<g filter="url(#filter0_d_1901_9697)">
<g clip-path="url(#clip1_1901_9697)">
<path d="M6.2 0.599609H365C368.1 0.599609 370.7 3.09961 370.7 6.29961V212.9C370.7 216 368.2 218.6 365 218.6H6.2C3.1 218.6 0.5 216.1 0.5 212.9V6.29961C0.5 3.09961 3 0.599609 6.2 0.599609Z" fill="white" stroke="#D2DDE8"/>
<path d="M0.500391 24.5H55.1004V218.6H6.10039C3.00039 218.6 0.400391 216.1 0.400391 212.9V24.5H0.500391Z" fill="white" stroke="#D2DDE8"/>
<path d="M309.7 24.5H0.5V6.2C0.5 3 3 0.5 6.2 0.5H365C368.1 0.5 370.7 3 370.7 6.2V24.5H350" fill="white"/>
<path d="M309.7 24.5H0.5V6.2C0.5 3 3 0.5 6.2 0.5H365C368.1 0.5 370.7 3 370.7 6.2V24.5H350" stroke="#D2DDE8"/>
<path d="M41.5996 17.1992C43.8087 17.1992 45.5996 15.4084 45.5996 13.1992C45.5996 10.9901 43.8087 9.19922 41.5996 9.19922C39.3905 9.19922 37.5996 10.9901 37.5996 13.1992C37.5996 15.4084 39.3905 17.1992 41.5996 17.1992Z" stroke="#D2DDE8"/>
<path d="M28.5996 17.1992C30.8087 17.1992 32.5996 15.4084 32.5996 13.1992C32.5996 10.9901 30.8087 9.19922 28.5996 9.19922C26.3905 9.19922 24.5996 10.9901 24.5996 13.1992C24.5996 15.4084 26.3905 17.1992 28.5996 17.1992Z" stroke="#D2DDE8"/>
<path d="M15.5996 17.1992C17.8087 17.1992 19.5996 15.4084 19.5996 13.1992C19.5996 10.9901 17.8087 9.19922 15.5996 9.19922C13.3905 9.19922 11.5996 10.9901 11.5996 13.1992C11.5996 15.4084 13.3905 17.1992 15.5996 17.1992Z" stroke="#D2DDE8"/>
<path d="M37.7994 42.5008C36.0994 40.8008 33.7994 39.8008 31.3994 39.8008C28.9994 39.8008 26.6994 40.8008 24.9994 42.5008C23.4994 44.0008 22.5994 45.9008 22.3994 48.0008C22.4994 48.0008 22.5994 48.0008 22.6994 48.0008C22.7994 48.0008 22.8994 48.0008 22.8994 48.0008C22.8994 48.0008 22.8994 48.0008 22.9994 48.0008C23.1994 48.0008 23.3994 48.1008 23.5994 48.1008C23.5994 48.1008 23.5994 48.1008 23.6994 48.1008C23.7994 48.1008 23.8994 48.1008 23.8994 48.2008C23.9994 48.2008 24.0994 48.3008 24.1994 48.3008C24.2994 48.3008 24.3994 48.4008 24.3994 48.4008C24.3994 48.4008 24.3994 48.4008 24.4994 48.4008C24.5994 48.4008 24.6994 48.5008 24.7994 48.5008C25.8994 49.0008 26.8994 49.6008 27.7994 50.5008C28.5994 51.3008 29.2994 52.4008 29.7994 53.5008C30.2994 54.6008 30.4994 55.8008 30.4994 57.0008V64.1008C31.7994 64.1008 33.0994 63.8008 34.3994 63.3008C35.5994 62.8008 36.6994 62.0008 37.6994 61.1008C38.5994 60.2008 39.3994 59.0008 39.8994 57.8008C40.3994 56.6008 40.6994 55.3008 40.6994 53.9008V48.8008C40.4994 46.5008 39.4994 44.2008 37.7994 42.5008Z" stroke="#D2DDE8"/>
<path d="M22.2996 48.0004C21.8996 48.0004 21.5996 47.9004 21.1996 47.9004C18.7996 47.9004 16.4996 48.9004 14.7996 50.6004C13.0996 52.3004 12.0996 54.6004 12.0996 57.0004V60.0004C12.0996 61.1004 12.4996 62.1004 13.2996 62.9004C14.0996 63.7004 15.0996 64.1004 16.1996 64.1004H22.2996V49.0004C22.2996 48.6004 22.2996 48.3004 22.2996 48.0004Z" stroke="#D2DDE8"/>
<path d="M30.3998 57.1016C30.3998 55.9016 30.1998 54.7016 29.6998 53.6016C29.1998 52.5016 28.5998 51.5016 27.6998 50.6016C26.8998 49.8016 25.7998 49.1016 24.6998 48.6016C24.5998 48.6016 24.4998 48.5016 24.3998 48.5016C24.3998 48.5016 24.3998 48.5016 24.2998 48.5016C24.1998 48.5016 24.0998 48.4016 24.0998 48.4016C23.9998 48.4016 23.8998 48.3016 23.7998 48.3016C23.6998 48.3016 23.5998 48.3016 23.5998 48.2016C23.5998 48.2016 23.5998 48.2016 23.4998 48.2016C23.2998 48.2016 23.0998 48.1016 22.8998 48.1016C22.8998 48.1016 22.8998 48.1016 22.7998 48.1016C22.6998 48.1016 22.5998 48.1016 22.5998 48.1016C22.4998 48.1016 22.3998 48.1016 22.2998 48.1016C22.2998 48.4016 22.2998 48.7016 22.2998 49.1016V64.3016H30.3998V57.1016Z" stroke="#D2DDE8"/>
<path d="M12.0996 83.5H39.8996" stroke="#D2DDE8"/>
<path d="M12.0996 91.1016H39.8996" stroke="#D2DDE8"/>
<path d="M12.0996 98.7012H39.8996" stroke="#D2DDE8"/>
<path d="M280.8 124.5L292.2 218.2" stroke="#19D4EE"/>
<path d="M347.8 95.5H370.3" stroke="#19D4EE"/>
<path d="M282.8 137.7L231.5 166.8C226.4 169.7 220.2 169.4 215.4 166.1L162.8 129.6" stroke="#19D4EE"/>
<path d="M170.9 125.9C160 119.3 145.2 117.5 138.4 117C136.3 116.9 134.7 115.1 134.7 113V112.2C134.7 110 136.5 108.2 138.7 108.2H174C174.6 108.2 175.1 108.4 175.5 108.7L221.3 142.1L265.3 106.3C273.9 99.3004 284.7 95.4004 295.9 95.4004H312" stroke="#19D4EE"/>
<path d="M347.8 99.8996L346.1 77.7996C352.9 69.2996 357.3 56.4996 357.3 44.7996C357.3 25.2996 344.9 16.5996 329.6 16.5996C314.3 16.5996 301.9 25.2996 301.9 44.7996C301.9 64.2996 314.3 87.2996 329.6 87.2996C331.1 87.2996 332.7 87.0996 334.1 86.5996" fill="white"/>
<path d="M347.8 99.8996L346.1 77.7996C352.9 69.2996 357.3 56.4996 357.3 44.7996C357.3 25.2996 344.9 16.5996 329.6 16.5996C314.3 16.5996 301.9 25.2996 301.9 44.7996C301.9 64.2996 314.3 87.2996 329.6 87.2996C331.1 87.2996 332.7 87.0996 334.1 86.5996" stroke="#19D4EE"/>
<path d="M313 77.7988L311.3 99.8988" stroke="#19D4EE"/>
<path d="M323 62.1992V49.1992C323 47.2992 321.4 45.6992 319.5 45.6992H310.9" stroke="#D2DDE8"/>
<path d="M223.9 153.4C226.2 149.3 224.8 144.2 220.7 141.9" stroke="#D2DDE8"/>
<path d="M175.8 109C178.3 110.5 177.4 116.4 173.8 122.1C170.2 127.8 165.4 131.1 162.9 129.6C161.5 128.7 161.2 126.6 161.8 123.8" stroke="#D2DDE8"/>
<path d="M347.8 99.9004C347.8 104.2 339.6 107.7 329.6 107.7C319.6 107.7 311.4 104.2 311.4 99.9004" fill="white"/>
<path d="M347.8 99.9004C347.8 104.2 339.6 107.7 329.6 107.7C319.6 107.7 311.4 104.2 311.4 99.9004" stroke="#19D4EE"/>
<path d="M14.0996 185.9H37.8996C38.9996 185.9 39.8996 186.8 39.8996 187.9V191.2C39.8996 192.3 38.9996 193.2 37.8996 193.2H14.0996C12.9996 193.2 12.0996 192.3 12.0996 191.2V187.9C12.0996 186.8 12.9996 185.9 14.0996 185.9Z" stroke="#D2DDE8"/>
<path d="M106.2 50.9992C106.2 48.0992 103.8 45.6992 100.9 45.6992H87.3C84.4 45.6992 82 48.0992 82 50.9992V64.6992C82 67.5992 84.4 69.9992 87.3 69.9992H101C103.9 69.9992 106.3 67.5992 106.3 64.6992V50.9992H106.2Z" stroke="#D2DDE8"/>
<path d="M303 69.7996H161.5H122.9C120 69.7996 117.6 67.3996 117.6 64.4996V50.8996C117.6 47.9996 120 45.5996 122.9 45.5996H297.2" stroke="#D2DDE8"/>
<path d="M307.1 82.5H166.7V103.2" stroke="#D2DDE8"/>
<path d="M166.7 137.301V201.201H284" stroke="#D2DDE8"/>
<path d="M152.3 126.5V201.2H82V82.5H152.3V104.2" stroke="#D2DDE8"/>
</g>
</g>
</g>
<defs>
<filter id="filter0_d_1901_9697" x="-18" y="-6" width="427.1" height="275.1" filterUnits="userSpaceOnUse" color-interpolation-filters="sRGB">
<feFlood flood-opacity="0" result="BackgroundImageFix"/>
<feColorMatrix in="SourceAlpha" type="matrix" values="0 0 0 0 0 0 0 0 0 0 0 0 0 0 0 0 0 0 127 0" result="hardAlpha"/>
<feOffset dx="10" dy="22"/>
<feGaussianBlur stdDeviation="14"/>
<feComposite in2="hardAlpha" operator="out"/>
<feColorMatrix type="matrix" values="0 0 0 0 0.160784 0 0 0 0 0.188235 0 0 0 0 0.305882 0 0 0 0.1 0"/>
<feBlend mode="normal" in2="BackgroundImageFix" result="effect1_dropShadow_1901_9697"/>
<feBlend mode="normal" in="SourceGraphic" in2="effect1_dropShadow_1901_9697" result="shape"/>
</filter>
<clipPath id="clip0_1901_9697">
<rect width="371.1" height="219.1" rx="5" fill="white"/>
</clipPath>
<clipPath id="clip1_1901_9697">
<rect width="371.1" height="219.1" fill="white"/>
</clipPath>
</defs>
</svg>
