<svg width="145" height="45" viewBox="0 0 145 45" fill="none" xmlns="http://www.w3.org/2000/svg">
<path d="M65.293 7.83325H70.055L85.2199 29.263H85.4324V7.83325H90.1944V36.9293H85.3938L70.2675 15.4995H70.055V36.9293H65.293V7.83325Z" fill="#222945"/>
<path d="M95.084 25.5188C95.084 18.1252 100.812 14.1086 106.454 14.1086C112.097 14.1086 117.825 18.1252 117.825 25.5188C117.825 32.9125 112.097 36.929 106.454 36.929C100.812 36.929 95.084 32.9125 95.084 25.5188ZM106.454 32.6605C110.007 32.6605 113.228 30.0442 113.228 25.5188C113.228 20.9935 110.007 18.3772 106.454 18.3772C102.902 18.3772 99.6379 20.9935 99.6379 25.5188C99.6379 30.0442 102.898 32.6605 106.454 32.6605Z" fill="#222945"/>
<path d="M140.367 44.4606V33.1216H140.237C139.435 34.8258 136.657 36.987 132.652 36.987C127.472 36.987 122.032 33.2073 122.032 25.7764C122.032 18.3456 127.472 14.5659 132.652 14.5659C136.657 14.5659 139.44 16.7271 140.237 18.4313H140.367V14.9848H145.001V44.2476H140.367V44.4606ZM133.541 32.8265C137.082 32.8265 140.498 30.4177 140.498 25.7669C140.498 21.1161 137.082 18.7121 133.541 18.7121C129.999 18.7121 126.632 21.1209 126.632 25.7669C126.632 30.413 130.047 32.8265 133.541 32.8265Z" fill="#222945"/>
<path d="M45.9934 5.33949C42.9309 2.26626 38.7812 0.539307 34.4511 0.539307C30.121 0.539307 25.9713 2.26626 22.9087 5.33949C20.2533 8.00884 18.6064 11.4999 18.2178 15.2184C18.227 15.2184 18.2363 15.2184 18.2455 15.2184C18.4167 15.237 18.5879 15.2602 18.7544 15.288C18.7775 15.288 18.8007 15.2973 18.8238 15.2973C18.9718 15.3205 19.1199 15.3437 19.2633 15.3716C19.3003 15.3809 19.3419 15.3855 19.379 15.3948C19.712 15.4598 20.0451 15.5341 20.3782 15.6176C20.4152 15.6269 20.4522 15.6362 20.4892 15.6455C20.628 15.6826 20.7668 15.7198 20.9056 15.7615C20.9334 15.7708 20.9657 15.7801 20.9935 15.7848C21.1554 15.8358 21.322 15.8869 21.4839 15.938C21.5116 15.9472 21.5394 15.9565 21.5625 15.9658C21.7013 16.0122 21.8355 16.0587 21.9696 16.1097C22.0066 16.1237 22.0483 16.1376 22.0853 16.1515C22.2426 16.2119 22.4045 16.2722 22.5618 16.3418C24.5418 17.1635 26.3414 18.3705 27.8588 19.8932C29.3761 21.4159 30.5743 23.2218 31.3978 25.2087C32.2166 27.1956 32.6422 29.3265 32.6422 31.4805V44.2284C35.0201 44.2284 37.3795 43.7549 39.5769 42.8403C41.779 41.9258 43.7775 40.5842 45.4614 38.8897C47.1453 37.1999 48.4823 35.1898 49.3937 32.98C50.305 30.7702 50.7769 28.398 50.7769 26.0072V16.9128C50.7769 12.5676 49.056 8.3988 45.998 5.32556L45.9934 5.33949Z" fill="#4B5CFA"/>
<path d="M18.2226 15.223C17.5934 15.1487 16.9596 15.1116 16.3212 15.1116C11.9911 15.1116 7.84139 16.8385 4.77885 19.9118C1.71632 22.985 0 27.1538 0 31.499V36.9631C0 38.8943 0.76332 40.7466 2.12342 42.1161C3.48352 43.4809 5.32937 44.2516 7.25386 44.2516H18.1347V16.936C18.1347 16.365 18.1624 15.794 18.2226 15.2276V15.223Z" fill="#19D4EE"/>
<path d="M32.6422 31.4992C32.6422 29.3451 32.2213 27.2143 31.3978 25.2274C30.579 23.2405 29.3761 21.4299 27.8588 19.9119C26.3414 18.3892 24.5418 17.1822 22.5618 16.3605C22.4045 16.2955 22.2472 16.2305 22.0853 16.1702C22.0483 16.1562 22.0066 16.1423 21.9696 16.1284C21.8355 16.0773 21.6967 16.0309 21.5625 15.9845C21.5348 15.9752 21.507 15.9659 21.4839 15.9566C21.322 15.9009 21.16 15.8499 20.9935 15.8034C20.9657 15.7941 20.9334 15.7849 20.9056 15.7802C20.7668 15.7384 20.628 15.7013 20.4892 15.6642C20.4522 15.6549 20.4152 15.6456 20.3782 15.6363C20.0498 15.5527 19.7167 15.4738 19.379 15.4135C19.3419 15.4042 19.3003 15.3995 19.2633 15.3903C19.1153 15.3624 18.9718 15.3392 18.8238 15.316C18.8007 15.316 18.7775 15.3067 18.7544 15.3067C18.5832 15.2788 18.4167 15.2603 18.2455 15.2371C18.2363 15.2371 18.227 15.2371 18.2178 15.2371C18.1576 15.8034 18.1299 16.3744 18.1299 16.9454V44.261H32.6376V31.5131L32.6422 31.4992Z" fill="#002CD9"/>
</svg>
