<svg width="47" height="40" viewBox="0 0 47 40" fill="none" xmlns="http://www.w3.org/2000/svg">
<path d="M42.2036 4.3916C39.3934 1.57996 35.5857 0 31.6124 0C27.6391 0 23.8314 1.57996 21.0212 4.3916C18.5846 6.83373 17.0734 10.0276 16.7168 13.4296C16.7253 13.4296 16.7338 13.4296 16.7423 13.4296C16.8993 13.4466 17.0564 13.4678 17.2092 13.4933C17.2304 13.4933 17.2517 13.5018 17.2729 13.5018C17.4087 13.5231 17.5446 13.5443 17.6762 13.5698C17.7101 13.5783 17.7483 13.5825 17.7823 13.591C18.0879 13.6505 18.3936 13.7184 18.6992 13.7949C18.7332 13.8034 18.7671 13.8119 18.8011 13.8204C18.9284 13.8543 19.0558 13.8883 19.1831 13.9265C19.2086 13.935 19.2383 13.9435 19.2638 13.9478C19.4123 13.9945 19.5652 14.0412 19.7137 14.0879C19.7392 14.0964 19.7647 14.1049 19.7859 14.1134C19.9133 14.1559 20.0364 14.1984 20.1595 14.2451C20.1934 14.2578 20.2316 14.2706 20.2656 14.2833C20.4099 14.3385 20.5585 14.3937 20.7028 14.4574C22.5197 15.2092 24.171 16.3135 25.5633 17.7065C26.9557 19.0996 28.0551 20.7518 28.8107 22.5696C29.5621 24.3874 29.9526 26.3368 29.9526 28.3075V39.9703C32.1345 39.9703 34.2994 39.5371 36.3158 38.7004C38.3364 37.8637 40.1702 36.6363 41.7154 35.086C43.2606 33.54 44.4874 31.701 45.3236 29.6794C46.1599 27.6577 46.5929 25.4874 46.5929 23.3001V14.9798C46.5929 11.0045 45.0137 7.19049 42.2078 4.37885L42.2036 4.3916Z" fill="#19D4EE"/>
<path d="M16.7209 13.434C16.1436 13.366 15.562 13.332 14.9762 13.332C11.0029 13.332 7.19521 14.912 4.38505 17.7236C1.57488 20.5353 0 24.3492 0 28.3246V33.3235C0 35.0904 0.700417 36.785 1.94844 38.0379C3.19646 39.2866 4.89019 39.9916 6.6561 39.9916H16.6403V15.0012C16.6403 14.4788 16.6657 13.9564 16.7209 13.4382V13.434Z" fill="#FE3CEB"/>
<path d="M29.9532 28.3252C29.9532 26.3545 29.5669 24.405 28.8113 22.5872C28.0599 20.7694 26.9562 19.113 25.5639 17.7242C24.1715 16.3311 22.5202 15.2268 20.7034 14.4751C20.5591 14.4156 20.4147 14.3562 20.2662 14.301C20.2322 14.2882 20.194 14.2755 20.16 14.2627C20.0369 14.216 19.9096 14.1735 19.7865 14.1311C19.761 14.1226 19.7355 14.1141 19.7143 14.1056C19.5657 14.0546 19.4172 14.0079 19.2643 13.9654C19.2389 13.9569 19.2092 13.9484 19.1837 13.9442C19.0563 13.906 18.929 13.872 18.8016 13.838C18.7677 13.8295 18.7337 13.821 18.6998 13.8125C18.3984 13.7361 18.0927 13.6639 17.7829 13.6087C17.7489 13.6002 17.7107 13.5959 17.6767 13.5874C17.5409 13.5619 17.4093 13.5407 17.2735 13.5195C17.2522 13.5195 17.231 13.511 17.2098 13.511C17.0527 13.4855 16.8999 13.4685 16.7428 13.4473C16.7344 13.4473 16.7259 13.4473 16.7174 13.4473C16.6622 13.9654 16.6367 14.4878 16.6367 15.0102V40.0007H29.9489V28.3379L29.9532 28.3252Z" fill="#002CD9"/>
</svg>
