<svg width="19" height="18" viewBox="0 0 19 18" fill="none" xmlns="http://www.w3.org/2000/svg">
<g clip-path="url(#clip0_1423_16403)">
<path fill-rule="evenodd" clip-rule="evenodd" d="M9.26743 0C4.17309 0 0.0410156 4.13207 0.0410156 9.22641C0.0410156 13.3019 2.70139 16.7547 6.32403 18C6.77686 18.0566 6.94668 17.7736 6.94668 17.5472C6.94668 17.3208 6.94668 16.7547 6.94668 15.9623C4.39951 16.5283 3.83347 14.717 3.83347 14.717C3.43724 13.6415 2.8146 13.3585 2.8146 13.3585C1.96554 12.7925 2.8712 12.7925 2.8712 12.7925C3.77686 12.8491 4.2863 13.7547 4.2863 13.7547C5.13535 15.1698 6.43724 14.7736 6.94668 14.5472C7.00328 13.9245 7.2863 13.5283 7.51271 13.3019C5.47498 13.0755 3.32403 12.283 3.32403 8.71698C3.32403 7.69811 3.66366 6.90566 4.2863 6.22641C4.22969 6.0566 3.89007 5.09434 4.39951 3.84906C4.39951 3.84906 5.19196 3.62264 6.94668 4.81132C7.68252 4.58491 8.47498 4.5283 9.26743 4.5283C10.0599 4.5283 10.8523 4.64151 11.5882 4.81132C13.3429 3.62264 14.1354 3.84906 14.1354 3.84906C14.6448 5.09434 14.3052 6.0566 14.2486 6.28302C14.8146 6.90566 15.2108 7.75472 15.2108 8.77358C15.2108 12.3396 13.0599 13.0755 11.0221 13.3019C11.3618 13.5849 11.6448 14.1509 11.6448 15C11.6448 16.2453 11.6448 17.2075 11.6448 17.5472C11.6448 17.7736 11.8146 18.0566 12.2674 18C15.9467 16.7547 18.5504 13.3019 18.5504 9.22641C18.4938 4.13207 14.3618 0 9.26743 0Z" fill="#D2DDE8"/>
</g>
<defs>
<clipPath id="clip0_1423_16403">
<rect width="18.4528" height="18" fill="white" transform="translate(0.0410156)"/>
</clipPath>
</defs>
</svg>
