<svg width="914" height="779" viewBox="0 0 914 779" fill="none" xmlns="http://www.w3.org/2000/svg">
<g clip-path="url(#clip0_1707_9623)">
<path fill-rule="evenodd" clip-rule="evenodd" d="M1111.86 -493C1069.84 -493 1029.54 -476.309 999.834 -446.598C974.277 -421.041 958.353 -387.651 954.4 -352.071C968.705 -350.302 982.736 -346.61 996.107 -341.071C1015.57 -333.009 1033.26 -321.192 1048.15 -306.295C1063.05 -291.398 1074.87 -273.713 1082.93 -254.249C1090.99 -234.785 1095.14 -213.923 1095.14 -192.856V-87.9557C1101.8 -117.18 1116.58 -144.204 1138.12 -165.736C1168.2 -195.822 1209.01 -212.725 1251.56 -212.725C1256.72 -212.725 1261.86 -212.476 1266.95 -211.984C1269.16 -223.191 1270.29 -234.613 1270.29 -246.09V-334.573C1270.29 -376.59 1253.59 -416.887 1223.88 -446.598C1194.17 -476.309 1153.88 -493 1111.86 -493ZM1092.11 -70.0312C1092.39 -72.577 1092.74 -75.1116 1093.14 -77.6331V-79.9423C1092.68 -76.646 1092.14 -73.3639 1091.5 -70.0997C1091.68 -70.0797 1091.86 -70.0594 1092.05 -70.0387L1092.11 -70.0312ZM1091.13 -52.2971C1091.13 -57.5154 1091.38 -62.7074 1091.88 -67.8566H1091.04C1088.78 -57.0512 1085.51 -46.4537 1081.26 -36.2049C1072.31 -14.581 1059.18 5.06699 1042.63 21.6172C1026.08 38.1674 1006.43 51.2958 984.805 60.2527C966.397 67.8774 946.864 72.3521 927.023 73.5145C937.731 75.5576 948.229 78.6918 958.349 82.8837C977.813 90.9459 995.499 102.763 1010.4 117.66C1025.29 132.557 1037.11 150.242 1045.17 169.706C1050.84 183.391 1054.57 197.767 1056.29 212.419H1091.13V-52.2971ZM1234.84 214.412C1257.88 214.272 1280.67 209.667 1301.96 200.848C1323.58 191.891 1343.23 178.763 1359.78 162.213C1376.33 145.663 1389.46 126.015 1398.42 104.391C1407.37 82.767 1411.98 59.5906 1411.98 36.1851V-52.2971C1411.98 -94.8452 1395.08 -135.651 1365 -165.736C1339.04 -191.693 1305.1 -207.837 1268.95 -211.779C1271.16 -223.055 1272.29 -234.545 1272.29 -246.09V-334.573C1272.29 -377.121 1255.38 -417.926 1225.3 -448.012C1195.21 -478.098 1154.41 -495 1111.86 -495C1069.31 -495 1028.51 -478.098 998.42 -448.012C972.544 -422.136 956.42 -388.33 952.414 -352.306C946.463 -352.979 940.45 -353.32 934.402 -353.32C891.854 -353.32 851.049 -336.418 820.963 -306.332C795.086 -280.456 778.962 -246.649 774.957 -210.625C769.005 -211.297 762.991 -211.639 756.943 -211.639C714.395 -211.639 673.59 -194.737 643.504 -164.651C617.627 -138.774 601.503 -104.967 597.498 -68.9425C596.952 -69.0031 596.405 -69.061 595.858 -69.116C590.443 -69.6714 584.979 -69.9531 579.486 -69.9531C536.938 -69.9531 496.133 -53.051 466.047 -22.965C440.171 2.91019 424.048 36.7142 420.042 72.7365C414.09 72.0641 408.077 71.7227 402.029 71.7227C359.481 71.7227 318.676 88.6248 288.59 118.711C262.714 144.586 246.591 178.39 242.585 214.412C236.633 213.74 230.62 213.398 224.572 213.398C182.024 213.398 141.218 230.301 111.133 260.387C85.2558 286.263 69.132 320.07 65.1269 356.095C59.261 355.443 53.3522 355.115 47.4272 355.115C4.87925 355.115 -35.926 372.017 -66.012 402.103C-96.0979 432.189 -113 472.995 -113 515.543V568.685C-113 587.743 -105.429 606.02 -91.9537 619.495C-78.478 632.971 -60.201 640.542 -41.1435 640.542H156.309C125.233 646.625 96.4044 661.826 73.6873 684.543C43.6013 714.629 26.6992 755.434 26.6992 797.982V851.125C26.6992 870.182 34.2698 888.459 47.7455 901.935C61.2212 915.411 79.4982 922.981 98.5558 922.981H346.554H347.554V922.974C370.59 922.834 393.384 918.229 414.674 909.411C436.298 900.454 455.946 887.326 472.496 870.775C489.046 854.225 502.174 834.577 511.131 812.953C515.398 802.653 518.678 792 520.944 781.138H524.013H525.013V781.131C548.049 780.99 570.843 776.386 592.133 767.567C613.757 758.61 633.405 745.482 649.955 728.932C666.505 712.381 679.633 692.733 688.59 671.11C692.835 660.861 696.104 650.265 698.368 639.46H701.464H702.464V639.453C725.5 639.313 748.294 634.708 769.584 625.889C791.208 616.932 810.856 603.804 827.406 587.254C843.956 570.704 857.084 551.056 866.041 529.432C870.287 519.182 873.556 508.583 875.82 497.776H878.921H879.921V497.769C902.957 497.629 925.751 493.024 947.041 484.206C968.665 475.249 988.313 462.12 1004.86 445.57C1021.41 429.02 1034.54 409.372 1043.5 387.748C1047.74 377.5 1051.01 366.903 1053.28 356.099H1056.38H1057.38V356.092C1080.42 355.951 1103.21 351.346 1124.5 342.528C1146.13 333.571 1165.78 320.443 1182.33 303.893C1198.88 287.342 1212 267.694 1220.96 246.071C1225.21 235.822 1228.48 225.224 1230.74 214.419H1233.84H1234.84V214.412ZM1228.7 214.419H1056.51C1057.09 219.95 1057.38 225.517 1057.38 231.099V354.092C1080.16 353.951 1102.69 349.398 1123.74 340.68C1145.12 331.824 1164.55 318.843 1180.91 302.478C1197.28 286.114 1210.26 266.686 1219.11 245.305C1223.26 235.301 1226.46 224.961 1228.7 214.419ZM1053.97 212.419C1049.8 177.267 1033.95 144.318 1008.66 119.035C983.732 94.1036 951.346 78.3397 916.745 73.9133C916.24 79.0445 915.984 84.2189 915.984 89.4197V142.562C915.984 161.089 923.344 178.858 936.445 191.958C949.546 205.059 967.314 212.419 985.841 212.419H1053.97ZM1104.48 -68.1651C1124.32 -69.3273 1143.85 -73.8021 1162.26 -81.427C1183.89 -90.3839 1203.53 -103.512 1220.08 -120.062C1236.63 -136.613 1249.76 -156.261 1258.72 -177.885C1263 -188.22 1266.29 -198.91 1268.55 -209.811C1304.32 -205.952 1337.9 -189.999 1363.58 -164.322C1393.29 -134.611 1409.98 -94.3147 1409.98 -52.2971V36.1851C1409.98 59.328 1405.43 82.2443 1396.57 103.625C1387.71 125.007 1374.73 144.434 1358.37 160.799C1342 177.163 1322.57 190.144 1301.19 199.001C1280.15 207.719 1257.61 212.272 1234.84 212.412V89.4197C1234.84 68.3521 1230.69 47.4907 1222.63 28.0267C1214.56 8.56274 1202.75 -9.12265 1187.85 -24.0197C1172.95 -38.9168 1155.27 -50.7338 1135.8 -58.796C1125.68 -62.9878 1115.19 -66.122 1104.48 -68.1651ZM1232.84 202.347V212.415H1231.15C1231.81 209.077 1232.37 205.719 1232.84 202.347ZM1055.34 -67.8566H1089C1086.76 -57.3144 1083.56 -46.9743 1079.41 -36.9702C1070.56 -15.589 1057.58 3.83847 1041.21 20.203C1024.85 36.5674 1005.42 49.5485 984.039 58.4049C962.992 67.1228 940.458 71.676 917.684 71.8162V66.2681C922.626 32.8145 938.188 1.59329 962.387 -22.6055C987.567 -47.7861 1020.35 -63.6149 1055.34 -67.8566ZM915.674 158.053C918.605 171.327 925.268 183.61 935.031 193.372C948.506 206.848 966.783 214.419 985.841 214.419H1054.19C1054.77 219.922 1055.07 225.476 1055.07 231.06V319.543C1055.07 331.173 1053.91 342.745 1051.64 354.095H915.674V158.053ZM1093.13 212.415H1229.11C1231.38 201.066 1232.53 189.494 1232.53 177.865V89.3826C1232.53 47.365 1215.84 7.06833 1186.13 -22.6426C1161.12 -47.6506 1128.61 -63.4346 1093.89 -67.8049C1093.38 -62.6732 1093.13 -57.4984 1093.13 -52.2971V212.415ZM1256.87 -178.65C1261.08 -188.805 1264.31 -199.306 1266.55 -210.014C1261.59 -210.486 1256.59 -210.725 1251.56 -210.725C1209.54 -210.725 1169.24 -194.033 1139.53 -164.322C1115.82 -140.612 1100.4 -110.161 1095.14 -77.4736V-69.8634C1117.92 -70.0037 1140.45 -74.5569 1161.5 -83.2748C1182.88 -92.1312 1202.31 -105.112 1218.67 -121.477C1235.03 -137.841 1248.01 -157.269 1256.87 -178.65ZM1074.1 -71.0449C1079.26 -71.0449 1084.4 -70.796 1089.5 -70.3049C1091.71 -81.5113 1092.83 -92.9331 1092.83 -104.411V-192.893C1092.83 -234.91 1076.14 -275.207 1046.43 -304.918C1021.42 -329.926 988.912 -345.709 954.192 -350.08C953.687 -344.948 953.432 -339.774 953.432 -334.573V-69.8601H1054.63C1061.06 -70.6455 1067.56 -71.0449 1074.1 -71.0449ZM702.464 637.453C725.237 637.313 747.772 632.76 768.819 624.042C790.2 615.185 809.627 602.204 825.992 585.84C842.356 569.475 855.337 550.048 864.194 528.667C868.338 518.661 871.541 508.32 873.776 497.776H701.594C702.172 503.308 702.464 508.877 702.464 514.461V637.453ZM700.464 627.414V637.456H698.776C699.434 634.126 699.997 630.778 700.464 627.414ZM561.826 357.274C561.954 357.29 562.082 357.306 562.209 357.323C596.671 361.814 628.913 377.554 653.755 402.396C679.037 427.679 694.892 460.626 699.057 495.776H630.923C612.396 495.776 594.628 488.416 581.527 475.316C568.426 462.215 561.066 444.447 561.066 425.92V372.777C561.066 367.577 561.322 362.404 561.826 357.274ZM385.311 491.296C390.255 457.847 405.816 426.631 430.012 402.436C455.181 377.267 487.946 361.441 522.919 357.19H556.622C554.387 367.731 551.185 378.07 547.041 388.073C538.185 409.454 525.204 428.881 508.839 445.246C492.475 461.61 473.047 474.591 451.666 483.448C430.619 492.166 408.085 496.719 385.311 496.859V491.296ZM701.372 495.776C699.654 481.125 695.92 466.751 690.252 453.068C682.19 433.604 670.373 415.918 655.476 401.021C640.579 386.124 622.893 374.307 603.429 366.245C593.317 362.056 582.827 358.924 572.127 356.88C591.962 355.716 611.487 351.242 629.889 343.62C651.513 334.663 671.161 321.535 687.711 304.984C704.261 288.434 717.389 268.786 726.346 247.162C730.592 236.912 733.861 226.312 736.125 215.505H736.966C736.465 220.653 736.211 225.843 736.211 231.06V495.776H701.372ZM383.303 583.112C386.236 596.379 392.897 608.655 402.656 618.413C416.131 631.889 434.408 639.46 453.466 639.46H521.805C522.397 645.016 522.698 650.625 522.698 656.265V744.748C522.698 756.321 521.558 767.838 519.311 779.134H383.303V583.112ZM521.579 637.46H453.466C434.939 637.46 417.171 630.1 404.07 616.999C390.969 603.899 383.609 586.13 383.609 567.603V514.461C383.609 509.314 383.86 504.194 384.354 499.115C418.964 503.538 451.359 519.303 476.296 544.24C501.54 569.484 517.385 602.37 521.579 637.46ZM523.922 637.46C522.204 622.807 518.469 608.431 512.801 594.745C504.739 575.281 492.922 557.596 478.025 542.699C463.128 527.802 445.442 515.985 425.978 507.923C415.863 503.733 405.37 500.6 394.667 498.556C414.502 497.392 434.029 492.918 452.432 485.296C474.056 476.339 493.703 463.21 510.254 446.66C526.804 430.11 539.932 410.462 548.889 388.838C553.134 378.591 556.402 367.994 558.666 357.19H559.509C559.008 362.338 558.754 367.528 558.754 372.744V637.46H523.922ZM524.143 639.46H696.324C694.089 650.001 690.886 660.341 686.742 670.344C677.886 691.725 664.905 711.153 648.541 727.517C632.176 743.882 612.749 756.863 591.367 765.719C570.321 774.437 547.786 778.99 525.013 779.131V656.138C525.013 650.557 524.721 644.99 524.143 639.46ZM877.921 495.773H876.228C876.888 492.431 877.453 489.07 877.921 485.694V495.773ZM877.608 372.744C877.608 367.158 877.313 361.603 876.732 356.099H808.386C789.328 356.099 771.051 348.528 757.576 335.052C747.804 325.281 741.138 312.985 738.211 299.698V495.773H874.189C876.458 484.425 877.608 472.854 877.608 461.226V372.744ZM831.206 260.719C806.275 235.788 773.89 220.024 739.289 215.597C738.785 220.727 738.529 225.9 738.529 231.099V284.242C738.529 302.769 745.889 320.537 758.99 333.638C772.09 346.739 789.859 354.099 808.386 354.099H876.508C872.343 318.948 856.488 286.001 831.206 260.719ZM559.737 355.007C560.02 352.458 560.364 349.92 560.768 347.396V345.101C560.312 348.396 559.763 351.676 559.123 354.939C559.328 354.962 559.532 354.984 559.737 355.007ZM605.742 259.305C628.213 236.834 656.663 221.717 687.353 215.505H561.898C562.477 221.038 562.768 226.607 562.768 232.191V337.077C569.432 307.856 584.211 280.835 605.742 259.305ZM719.181 212.316C724.346 212.316 729.485 212.565 734.582 213.057C736.792 201.852 737.913 190.432 737.913 178.957V90.4744C737.913 84.8865 737.618 79.3292 737.036 73.8231H668.687C649.629 73.8231 631.352 66.2525 617.876 52.7767C608.109 43.0098 601.444 30.7206 598.516 17.4401V213.501H699.715C706.141 212.716 712.64 212.316 719.181 212.316ZM560.754 637.456H696.737C699.006 626.107 700.157 614.534 700.157 602.904V514.422C700.157 508.836 699.862 503.28 699.281 497.776H630.923C611.865 497.776 593.588 490.206 580.113 476.73C570.348 466.965 563.684 454.679 560.754 441.402V637.456ZM1055.38 343.969V354.095H1053.68C1054.35 350.737 1054.91 347.36 1055.38 343.969ZM740.225 207.974C745.163 174.511 760.726 143.279 784.932 119.074C810.112 93.8937 842.896 78.0649 877.887 73.8231H911.538C909.302 84.366 906.099 94.7067 901.955 104.711C893.099 126.093 880.118 145.52 863.753 161.885C847.389 178.249 827.962 191.23 806.58 200.087C785.534 208.804 762.999 213.358 740.225 213.498V207.974ZM878.83 354.099C877.112 339.446 873.378 325.069 867.709 311.384C859.647 291.92 847.83 274.235 832.933 259.338C818.036 244.441 800.35 232.624 780.886 224.561C770.771 220.372 760.279 217.239 749.577 215.195C769.414 214.032 788.942 209.557 807.346 201.934C828.97 192.977 848.618 179.849 865.168 163.299C881.718 146.749 894.846 127.101 903.803 105.477C908.049 95.2274 911.317 84.6292 913.582 73.8231H914.43C913.928 78.9724 913.674 84.1644 913.674 89.3826V354.099H878.83ZM879.051 356.099H1051.23C1049 366.64 1045.79 376.979 1041.65 386.983C1032.79 408.364 1019.81 427.792 1003.45 444.156C987.084 460.521 967.657 473.502 946.276 482.358C925.229 491.076 902.694 495.629 879.921 495.769V372.777C879.921 367.196 879.63 361.629 879.051 356.099ZM914.657 71.6473C914.939 69.1061 915.282 66.5759 915.684 64.0588V61.7251C915.227 65.025 914.678 68.3109 914.037 71.5786L914.329 71.6107C914.438 71.6228 914.548 71.635 914.657 71.6473ZM917.684 -51.176V53.7325C924.346 24.5054 939.127 -2.52173 960.662 -24.0568C983.133 -46.5276 1011.58 -61.6439 1042.27 -67.8566H916.815C917.393 -62.3257 917.684 -56.7581 917.684 -51.176ZM207.854 633.013C212.791 599.55 228.355 568.318 252.56 544.113C267.716 528.958 285.626 517.19 305.114 509.297C318.243 504.012 332.083 500.485 346.277 498.863H379.166C376.931 509.405 373.728 519.745 369.584 529.749C360.728 551.13 347.747 570.557 331.382 586.922C315.018 603.286 295.59 616.267 274.209 625.124C253.162 633.842 230.628 638.395 207.854 638.535V633.013ZM332.939 498.863C323.15 500.832 313.588 503.708 304.374 507.439C284.514 515.432 266.263 527.395 250.832 542.826C229.297 564.361 214.516 591.388 207.854 620.615V515.543C207.854 509.96 207.563 504.392 206.985 498.86H241.602V498.863H242.602H332.939ZM379.666 496.421C374.662 495.949 369.629 495.711 364.585 495.711C358.144 495.711 351.742 496.098 345.412 496.86H243.602V300.816C246.531 314.093 253.196 326.379 262.96 336.144C276.436 349.62 294.713 357.19 313.771 357.19H382.124C382.704 362.691 382.999 368.243 382.999 373.826V462.308C382.999 473.788 381.877 485.212 379.666 496.421ZM382.285 496.69C382.078 496.667 381.871 496.645 381.664 496.623C382.305 493.357 382.854 490.074 383.311 486.776V489.11C382.91 491.624 382.567 494.152 382.285 496.69ZM205.844 724.755C208.773 738.035 215.438 750.324 225.204 760.091C238.68 773.567 256.957 781.138 276.015 781.138H344.656C345.253 786.722 345.554 792.344 345.554 797.982V920.978H205.844V724.755ZM344.429 779.138H276.015C257.488 779.138 239.719 771.778 226.619 758.677C213.518 745.576 206.158 727.808 206.158 709.281V656.138C206.158 650.992 206.409 645.872 206.903 640.794C220.912 642.556 234.654 646.188 247.754 651.614C266.975 659.576 284.44 671.246 299.151 685.957C313.863 700.668 325.532 718.133 333.494 737.355C339.041 750.745 342.712 764.805 344.429 779.138ZM346.667 781.138C347.256 786.722 347.554 792.345 347.554 797.982V920.974C370.327 920.834 392.862 916.281 413.909 907.563C435.29 898.707 454.717 885.726 471.082 869.361C487.446 852.997 500.427 833.569 509.283 812.188C513.449 802.132 516.663 791.737 518.9 781.138H346.667ZM381.303 779.138H346.443C344.717 764.542 340.989 750.223 335.342 736.589C327.28 717.125 315.463 699.44 300.566 684.543C285.669 669.646 267.983 657.829 248.519 649.766C238.188 645.487 227.464 642.31 216.524 640.271C236.595 639.171 256.36 634.682 274.975 626.971C296.599 618.015 316.246 604.886 332.797 588.336C349.347 571.786 362.475 552.138 371.432 530.514C375.677 520.265 378.946 509.668 381.21 498.863H382.059C381.557 504.012 381.303 509.204 381.303 514.422V779.138ZM523.013 779.134H521.35C521.997 775.84 522.552 772.528 523.013 769.202V779.134ZM541.73 353.994C546.893 353.994 552.03 354.243 557.125 354.734C559.335 343.529 560.456 332.109 560.456 320.632V232.15C560.456 226.564 560.161 221.009 559.58 215.505H491.228C472.17 215.505 453.893 207.934 440.417 194.458C430.653 184.694 423.988 172.408 421.059 159.131V355.187H522.2C528.646 354.396 535.167 353.994 541.73 353.994ZM428.291 400.982C450.752 378.521 479.188 363.408 509.863 357.19H384.443C385.02 362.718 385.311 368.282 385.311 373.861V478.78C391.973 449.55 406.754 422.519 428.291 400.982ZM736.58 213.262C737.22 210 737.769 206.719 738.225 203.425V205.712C737.821 208.239 737.477 210.778 737.193 213.329L736.941 213.301C736.821 213.288 736.7 213.275 736.58 213.262ZM562.768 349.612C567.712 316.164 583.273 284.948 607.469 260.752C632.641 235.579 665.413 219.752 700.392 215.505H734.081C731.846 226.049 728.643 236.391 724.498 246.397C715.642 267.778 702.661 287.206 686.296 303.57C669.932 319.935 650.505 332.916 629.123 341.772C608.076 350.49 585.542 355.043 562.768 355.183V349.612ZM783.199 117.621C805.667 95.1525 834.114 80.037 864.8 73.8231H739.356C739.934 79.3547 740.225 84.9229 740.225 90.5056V195.393C746.889 166.173 761.668 139.152 783.199 117.621ZM896.638 70.6328C901.803 70.6328 906.942 70.8819 912.039 71.3733C914.249 60.168 915.37 48.7474 915.37 37.2711V-51.2112C915.37 -56.797 915.075 -62.3524 914.494 -67.8566H846.144C827.086 -67.8566 808.809 -75.4272 795.333 -88.9029C785.569 -98.6678 778.904 -110.954 775.975 -124.231V71.8196H877.156C883.587 71.0329 890.092 70.6328 896.638 70.6328ZM169.463 640.542H204.616C204.103 645.745 203.844 650.992 203.844 656.265V920.981H98.5558C80.0286 920.981 62.2604 913.621 49.1597 900.521C36.0591 887.42 28.6992 869.652 28.6992 851.125V797.982C28.6992 755.965 45.3906 715.668 75.1015 685.957C100.619 660.439 133.945 644.526 169.463 640.542ZM204.826 638.534C205.109 635.992 205.452 633.46 205.854 630.942V515.543C205.854 509.96 205.559 504.391 204.974 498.86H136.314C117.256 498.86 98.979 491.29 85.5033 477.814C75.7385 468.049 69.0743 455.763 66.1445 442.486V638.538H169.383C175.247 637.886 181.17 637.555 187.126 637.555C193.051 637.555 198.96 637.883 204.826 638.534ZM952.205 -350.315C951.692 -345.106 951.432 -339.852 951.432 -334.573V-69.8566H916.593C914.875 -84.5089 911.141 -98.8843 905.473 -112.569C897.41 -132.033 885.594 -149.718 870.696 -164.615C855.799 -179.512 838.114 -191.329 818.65 -199.392C805.376 -204.89 791.452 -208.569 777.256 -210.352C781.208 -245.933 797.132 -279.323 822.689 -304.881C852.4 -334.592 892.697 -351.283 934.714 -351.283C940.57 -351.283 946.409 -350.959 952.205 -350.315ZM914.27 -69.8566H846.144C827.617 -69.8566 809.848 -77.2165 796.748 -90.3171C783.647 -103.418 776.287 -121.186 776.287 -139.713V-192.856C776.287 -198.055 776.543 -203.228 777.047 -208.358C811.649 -203.932 844.036 -188.168 868.968 -163.236C894.25 -137.954 910.105 -105.007 914.27 -69.8566ZM422.131 75.0045C422.458 75.0457 422.785 75.0878 423.111 75.131C457.345 79.727 489.357 95.428 514.054 120.125C539.336 145.407 555.191 178.354 559.355 213.505H491.228C472.701 213.505 454.932 206.145 441.832 193.044C428.731 179.944 421.371 162.175 421.371 143.648V90.5056C421.371 85.3066 421.627 80.134 422.131 75.0045ZM244.884 214.685C248.838 179.108 264.761 145.721 290.316 120.166C320.027 90.4551 360.324 73.7637 402.341 73.7637C408.196 73.7637 414.036 74.0883 419.832 74.7322C419.319 79.9413 419.059 85.1944 419.059 90.4744V355.19H384.221C382.504 340.535 378.769 326.156 373.1 312.468C365.037 293.004 353.22 275.319 338.323 260.422C323.426 245.525 305.741 233.708 286.277 225.645C273.003 220.147 259.079 216.469 244.884 214.685ZM561.676 213.505C559.958 198.855 556.224 184.481 550.557 170.798C542.494 151.334 530.677 133.649 515.78 118.752C500.883 103.855 483.198 92.0377 463.734 83.9755C450.78 78.6099 437.208 74.9773 423.368 73.1475C423.208 73.1261 423.049 73.105 422.889 73.084C422.706 73.06 422.523 73.0363 422.339 73.0129C426.291 37.4307 442.215 4.03879 467.773 -21.5196C497.484 -51.2305 537.781 -67.9219 579.798 -67.9219C585.105 -67.9219 590.398 -67.6553 595.658 -67.126C595.948 -67.0963 596.238 -67.0657 596.528 -67.0344C596.782 -67.0069 597.036 -66.9789 597.289 -66.9502C596.776 -61.7421 596.516 -56.4901 596.516 -51.2112V213.505H561.676ZM381.9 355.19H313.771C295.243 355.19 277.475 347.83 264.375 334.73C251.274 321.629 243.914 303.861 243.914 285.334V232.191C243.914 226.988 244.17 221.812 244.675 216.678C279.278 221.104 311.664 236.868 336.597 261.801C361.881 287.085 377.737 320.036 381.9 355.19ZM691.511 -21.5508C666.578 -46.4831 634.192 -62.2471 599.589 -66.673C599.085 -61.5449 598.83 -56.3736 598.83 -51.176V1.96643C598.83 20.4936 606.19 38.2619 619.291 51.3625C632.391 64.4633 650.159 71.8231 668.687 71.8231H736.812C732.646 36.675 716.791 3.73001 691.511 -21.5508ZM774.748 -208.635C774.235 -203.426 773.975 -198.173 773.975 -192.893V71.8231H739.134C737.416 57.1715 733.682 42.7968 728.014 29.1127C719.951 9.64868 708.135 -8.03671 693.237 -22.9338C678.34 -37.8308 660.655 -49.6478 641.191 -57.7101C627.917 -63.2082 613.994 -66.8866 599.798 -68.6703C603.751 -104.252 619.674 -137.643 645.232 -163.201C674.943 -192.912 715.24 -209.604 757.257 -209.604C763.112 -209.604 768.952 -209.279 774.748 -208.635ZM67.4254 356.367C71.3776 320.785 87.3014 287.394 112.859 261.836C142.57 232.125 182.867 215.434 224.884 215.434C230.74 215.434 236.579 215.758 242.376 216.402C241.862 221.613 241.602 226.868 241.602 232.15V496.86H206.763C205.045 482.209 201.311 467.834 195.643 454.15C187.58 434.686 175.763 417 160.866 402.103C145.969 387.206 128.284 375.389 108.82 367.327C95.5458 361.829 81.6216 358.15 67.4254 356.367ZM204.749 496.86H136.314C117.786 496.86 100.018 489.5 86.9175 476.4C73.8169 463.299 66.457 445.531 66.457 427.004V373.861C66.457 368.661 66.7127 363.487 67.2171 358.356C81.2222 360.119 94.9587 363.75 108.055 369.175C127.276 377.137 144.741 388.806 159.452 403.518C174.163 418.229 185.833 435.694 193.795 454.915C199.362 468.356 203.04 482.472 204.749 496.86ZM64.1445 638.542H-41.1435C-59.6706 638.542 -77.4389 631.182 -90.5395 618.081C-103.64 604.981 -111 587.212 -111 568.685V515.543C-111 473.525 -94.3086 433.228 -64.5978 403.518C-34.8869 373.807 5.40968 357.115 47.4272 357.115C53.2824 357.115 59.1215 357.44 64.9183 358.084C64.4048 363.293 64.1445 368.546 64.1445 373.826V638.542Z" fill="url(#paint0_radial_1707_9623)"/>
</g>
<defs>
<radialGradient id="paint0_radial_1707_9623" cx="0" cy="0" r="1" gradientUnits="userSpaceOnUse" gradientTransform="translate(480.5 538.5) rotate(155.551) scale(496.522 407.376)">
<stop offset="0.109375" stop-color="#D2DDE8"/>
<stop offset="1" stop-color="#D2DDE8" stop-opacity="0"/>
</radialGradient>
<clipPath id="clip0_1707_9623">
<rect width="914" height="1274" fill="white" transform="translate(0 -495)"/>
</clipPath>
</defs>
</svg>
