<svg width="853" height="240" viewBox="0 0 853 240" fill="none" xmlns="http://www.w3.org/2000/svg">
<mask id="mask0_1709_9666" style="mask-type:alpha" maskUnits="userSpaceOnUse" x="0" y="0" width="853" height="240">
<path d="M0 0H853V240H0V0Z" fill="#F4F6FA"/>
</mask>
<g mask="url(#mask0_1709_9666)">
<path fill-rule="evenodd" clip-rule="evenodd" d="M1085.86 -991C1043.84 -991 1003.55 -974.309 973.835 -944.598C948.278 -919.041 932.354 -885.651 928.401 -850.072C942.705 -848.303 956.736 -844.611 970.108 -839.072C989.572 -831.01 1007.26 -819.193 1022.15 -804.296C1037.05 -789.399 1048.87 -771.714 1056.93 -752.25C1064.99 -732.786 1069.14 -711.924 1069.14 -690.857V-585.956C1075.8 -615.18 1090.58 -642.204 1112.12 -663.737C1142.2 -693.823 1183.01 -710.725 1225.56 -710.725C1230.72 -710.725 1235.86 -710.476 1240.96 -709.985C1243.17 -721.191 1244.29 -732.613 1244.29 -744.09V-832.573C1244.29 -874.59 1227.6 -914.887 1197.88 -944.598C1168.17 -974.309 1127.88 -991 1085.86 -991ZM1066.11 -568.031C1066.4 -570.577 1066.74 -573.111 1067.14 -575.633V-577.936C1066.69 -574.642 1066.14 -571.362 1065.5 -568.1C1065.7 -568.077 1065.91 -568.054 1066.11 -568.031ZM1065.13 -550.298C1065.13 -555.516 1065.38 -560.708 1065.89 -565.857H1065.04C1062.78 -555.052 1059.51 -544.454 1055.26 -534.204C1046.31 -512.58 1033.18 -492.932 1016.63 -476.382C1000.08 -459.832 980.43 -446.704 958.806 -437.747C940.4 -430.123 920.869 -425.648 901.029 -424.485C911.735 -422.442 922.231 -419.308 932.35 -415.117C951.814 -407.055 969.499 -395.238 984.396 -380.341C999.293 -365.444 1011.11 -347.758 1019.17 -328.294C1024.84 -314.61 1028.57 -300.235 1030.29 -285.583H1065.13V-550.298ZM1208.84 -283.588C1231.88 -283.729 1254.67 -288.334 1275.96 -297.152C1297.58 -306.109 1317.23 -319.237 1333.78 -335.788C1350.33 -352.338 1363.46 -371.986 1372.42 -393.61C1381.37 -415.234 1385.98 -438.41 1385.98 -461.815V-550.298C1385.98 -592.846 1369.08 -633.651 1339 -663.737C1313.04 -689.694 1279.1 -705.837 1242.95 -709.78C1245.16 -721.055 1246.29 -732.545 1246.29 -744.09V-832.573C1246.29 -875.121 1229.38 -915.926 1199.3 -946.012C1169.21 -976.098 1128.41 -993 1085.86 -993C1043.31 -993 1002.51 -976.098 972.42 -946.012C946.544 -920.136 930.421 -886.33 926.415 -850.306C920.463 -850.978 914.451 -851.32 908.403 -851.32C865.855 -851.32 825.05 -834.418 794.964 -804.332C769.087 -778.455 752.964 -744.649 748.958 -708.625C743.005 -709.298 736.991 -709.64 730.942 -709.64C688.394 -709.64 647.589 -692.737 617.503 -662.651C591.627 -636.775 575.503 -602.969 571.497 -566.944C570.734 -567.029 569.97 -567.108 569.206 -567.182C564.004 -567.694 558.758 -567.954 553.486 -567.954C510.938 -567.954 470.132 -551.051 440.046 -520.965C414.171 -495.09 398.047 -461.285 394.041 -425.263C388.089 -425.935 382.077 -426.277 376.029 -426.277C333.481 -426.277 292.676 -409.374 262.59 -379.288C236.715 -353.413 220.591 -319.609 216.585 -283.587C210.633 -284.26 204.62 -284.601 198.572 -284.601C156.024 -284.601 115.219 -267.699 85.1329 -237.613C59.2564 -211.736 43.1326 -177.93 39.1273 -141.906C33.2612 -142.557 27.3524 -142.885 21.4272 -142.885C-21.1208 -142.885 -61.926 -125.983 -92.012 -95.897C-122.098 -65.811 -139 -25.0057 -139 17.5424V70.6848C-139 89.7424 -131.429 108.019 -117.954 121.495C-104.478 134.971 -86.201 142.542 -67.1435 142.542H130.308C99.2322 148.625 70.4038 163.825 47.6869 186.542C17.601 216.628 0.698853 257.434 0.698853 299.982V353.124C0.698853 372.182 8.26942 390.459 21.7451 403.934C35.2209 417.41 53.4978 424.981 72.5554 424.981H320.553H321.553V424.975C344.59 424.835 367.384 420.23 388.674 411.411C410.298 402.454 429.946 389.326 446.496 372.776C463.046 356.226 476.174 336.578 485.131 314.954C489.398 304.653 492.678 293.999 494.944 283.136H498.012H499.012V283.13C522.048 282.99 544.843 278.385 566.133 269.567C587.756 260.61 607.404 247.481 623.954 230.931C640.505 214.381 653.633 194.733 662.59 173.109C666.835 162.861 670.104 152.263 672.368 141.458H675.463H676.463V141.452C699.499 141.312 722.294 136.707 743.583 127.888C765.207 118.932 784.855 105.803 801.405 89.2529C817.956 72.7028 831.084 53.0548 840.041 31.4309C844.286 21.1811 847.555 10.5824 849.82 -0.224121H852.921H853.921V-0.22998C876.958 -0.370239 899.752 -4.97522 921.042 -13.7937C942.666 -22.7506 962.314 -35.8789 978.864 -52.4291C995.414 -68.9794 1008.54 -88.6273 1017.5 -110.251C1021.74 -120.5 1025.01 -131.097 1027.28 -141.902H1030.38H1031.38V-141.908C1054.42 -142.049 1077.21 -146.653 1098.5 -155.472C1120.13 -164.429 1139.78 -177.557 1156.33 -194.107C1172.88 -210.658 1186.01 -230.306 1194.96 -251.929C1199.21 -262.179 1202.48 -272.777 1204.74 -283.583H1207.84H1208.84V-283.588ZM1202.7 -283.583H1030.51C1031.09 -278.051 1031.38 -272.484 1031.38 -266.901V-143.908C1054.16 -144.049 1076.69 -148.602 1097.74 -157.32C1119.12 -166.176 1138.55 -179.157 1154.91 -195.522C1171.28 -211.886 1184.26 -231.314 1193.11 -252.695C1197.26 -262.699 1200.46 -273.04 1202.7 -283.583ZM1027.97 -285.583C1023.8 -320.734 1007.95 -353.682 982.664 -378.964C957.732 -403.896 925.346 -419.66 890.745 -424.086C890.24 -418.956 889.984 -413.782 889.984 -408.582V-355.439C889.984 -336.912 897.344 -319.144 910.445 -306.043C923.546 -292.942 941.314 -285.583 959.841 -285.583H1027.97ZM1078.48 -566.165C1098.32 -567.328 1117.86 -571.803 1136.26 -579.427C1157.89 -588.384 1177.53 -601.512 1194.08 -618.062C1210.63 -634.613 1223.76 -654.261 1232.72 -675.885C1237 -686.22 1240.29 -696.911 1242.56 -707.811C1278.32 -703.952 1311.9 -687.999 1337.58 -662.323C1367.29 -632.612 1383.98 -592.315 1383.98 -550.298V-461.815C1383.98 -438.672 1379.43 -415.756 1370.57 -394.375C1361.71 -372.994 1348.73 -353.566 1332.37 -337.202C1316 -320.837 1296.58 -307.856 1275.19 -299C1254.15 -290.282 1231.61 -285.729 1208.84 -285.589V-408.582C1208.84 -429.649 1204.69 -450.511 1196.63 -469.975C1188.56 -489.439 1176.75 -507.124 1161.85 -522.021C1146.95 -536.918 1129.27 -548.735 1109.8 -556.797C1099.69 -560.988 1089.19 -564.122 1078.48 -566.165ZM1206.84 -295.65V-285.585H1205.15C1205.81 -288.922 1206.37 -292.279 1206.84 -295.65ZM1029.34 -565.857H1063C1060.76 -555.315 1057.56 -544.974 1053.42 -534.97C1044.56 -513.588 1031.58 -494.161 1015.21 -477.797C998.849 -461.432 979.422 -448.451 958.041 -439.595C936.994 -430.877 914.459 -426.323 891.685 -426.183V-431.738C896.627 -465.19 912.189 -496.409 936.387 -520.607C961.566 -545.787 994.349 -561.615 1029.34 -565.857ZM889.674 -339.946C892.605 -326.673 899.269 -314.391 909.031 -304.629C922.506 -291.153 940.783 -283.583 959.841 -283.583H1028.19C1028.77 -278.079 1029.07 -272.524 1029.07 -266.939V-178.457C1029.07 -166.827 1027.92 -155.254 1025.65 -143.905H889.674V-339.946ZM1067.13 -285.585H1203.11C1205.38 -296.934 1206.53 -308.506 1206.53 -320.135V-408.617C1206.53 -450.635 1189.84 -490.932 1160.13 -520.643C1135.12 -545.651 1102.61 -561.435 1067.89 -565.805C1067.39 -560.673 1067.13 -555.499 1067.13 -550.298V-285.585ZM1230.87 -676.65C1235.08 -686.805 1238.32 -697.306 1240.55 -708.014C1235.59 -708.486 1230.59 -708.725 1225.56 -708.725C1183.54 -708.725 1143.24 -692.034 1113.53 -662.323C1089.82 -638.613 1074.4 -608.161 1069.14 -575.473V-567.863C1091.92 -568.004 1114.45 -572.557 1135.5 -581.275C1156.88 -590.131 1176.31 -603.112 1192.67 -619.477C1209.03 -635.841 1222.02 -655.269 1230.87 -676.65ZM1048.1 -569.045C1053.27 -569.045 1058.4 -568.796 1063.5 -568.305C1065.71 -579.511 1066.83 -590.933 1066.83 -602.41V-690.892C1066.83 -732.91 1050.14 -773.207 1020.43 -802.917C995.42 -827.925 962.913 -843.709 928.193 -848.08C927.688 -842.948 927.432 -837.773 927.432 -832.573V-567.86H1028.64C1035.06 -568.645 1041.56 -569.045 1048.1 -569.045ZM676.463 139.452C699.237 139.312 721.771 134.759 742.818 126.041C764.199 117.184 783.627 104.203 799.991 87.8387C816.356 71.4742 829.337 52.0469 838.193 30.6656C842.337 20.6605 845.54 10.3192 847.776 -0.224121H675.593C676.171 5.30762 676.463 10.876 676.463 16.4589V139.452ZM674.463 129.417V139.455H672.776C673.433 136.127 673.996 132.779 674.463 129.417ZM359.311 -6.71008C364.255 -40.1572 379.816 -71.3716 404.011 -95.5663C429.179 -120.734 461.943 -136.56 496.915 -140.811H530.623C528.388 -130.27 525.185 -119.93 521.041 -109.926C512.185 -88.5452 499.204 -69.1178 482.84 -52.7533C466.475 -36.3888 447.048 -23.4078 425.666 -14.5514C404.619 -5.83337 382.085 -1.28021 359.311 -1.14001V-6.71008ZM675.371 -2.22412C673.653 -16.8755 669.919 -31.2501 664.251 -44.9341C656.189 -64.398 644.372 -82.0834 629.475 -96.9805C614.578 -111.878 596.892 -123.695 577.429 -131.757C567.318 -135.945 556.83 -139.077 546.132 -141.12C565.965 -142.285 585.489 -146.759 603.888 -154.381C625.512 -163.338 645.16 -176.466 661.71 -193.016C678.261 -209.566 691.389 -229.214 700.346 -250.838C704.592 -261.089 707.861 -271.689 710.125 -282.497H710.968C710.466 -277.348 710.212 -272.157 710.212 -266.939V-2.22412H675.371ZM357.302 85.1127C360.235 98.3788 366.897 110.654 376.655 120.412C390.13 133.887 408.407 141.458 427.465 141.458H495.805C496.397 147.015 496.698 152.625 496.698 158.266V246.748C496.698 258.321 495.558 269.838 493.311 281.134H357.302V85.1127ZM495.578 139.458H427.465C408.938 139.458 391.17 132.098 378.069 118.997C364.968 105.897 357.608 88.1285 357.608 69.6013V16.4589C357.608 11.3132 357.859 6.19342 358.353 1.11566C392.963 5.53772 425.358 21.3031 450.296 46.2406C475.539 71.4839 491.384 104.369 495.578 139.458ZM497.921 139.458C496.203 124.805 492.469 110.429 486.8 96.7441C478.738 77.2802 466.921 59.5948 452.024 44.6978C437.127 29.8007 419.441 17.9837 399.978 9.92145C389.865 5.73267 379.375 2.60004 368.675 0.556824C388.508 -0.607849 408.032 -5.08209 426.432 -12.7036C448.056 -21.6605 467.704 -34.7889 484.254 -51.3391C500.804 -67.8893 513.932 -87.5372 522.889 -109.161C527.134 -119.409 530.403 -130.006 532.667 -140.811H533.509C533.007 -135.664 532.753 -130.473 532.753 -125.257V139.458H497.921ZM498.142 141.458H670.324C668.089 152 664.886 162.34 660.742 172.344C651.886 193.725 638.905 213.152 622.54 229.517C606.176 245.881 586.748 258.863 565.367 267.719C544.32 276.437 521.786 280.99 499.012 281.13V158.137C499.012 152.556 498.721 146.988 498.142 141.458ZM851.921 -2.22668H850.227C850.888 -5.57202 851.453 -8.93634 851.921 -12.3155V-2.22668ZM851.608 -125.257C851.608 -130.843 851.313 -136.398 850.731 -141.902H782.386C763.329 -141.902 745.052 -149.473 731.576 -162.949C721.805 -172.719 715.139 -185.014 712.212 -198.3V-2.22668H848.188C850.457 -13.5748 851.608 -25.1462 851.608 -36.7748V-125.257ZM805.206 -237.282C780.275 -262.213 747.89 -277.977 713.289 -282.404C712.785 -277.274 712.53 -272.101 712.53 -266.901V-213.759C712.53 -195.232 719.889 -177.464 732.99 -164.363C746.091 -151.262 763.859 -143.902 782.386 -143.902H850.507C846.342 -179.053 830.488 -212 805.206 -237.282ZM533.736 -142.993C534.02 -145.542 534.364 -148.08 534.768 -150.605V-152.893C534.311 -149.601 533.763 -146.322 533.123 -143.061C533.328 -143.039 533.532 -143.016 533.736 -142.993ZM579.741 -238.696C602.213 -261.168 630.665 -276.285 661.357 -282.497H535.898C536.476 -276.964 536.768 -271.394 536.768 -265.81V-160.924C543.432 -190.145 558.211 -217.165 579.741 -238.696ZM693.181 -285.685C698.345 -285.685 703.485 -285.435 708.582 -284.944C710.792 -296.149 711.913 -307.568 711.913 -319.044V-407.526C711.913 -413.114 711.617 -418.671 711.036 -424.177H642.687C623.63 -424.177 605.353 -431.748 591.877 -445.224C582.109 -454.992 575.443 -467.284 572.515 -480.566V-284.5H673.714C680.14 -285.285 686.64 -285.685 693.181 -285.685ZM710.648 -284.731L710.759 -284.719L710.783 -284.716L711.026 -284.69L711.194 -284.671C711.477 -287.218 711.821 -289.753 712.225 -292.275V-294.571C711.768 -291.278 711.22 -287.999 710.58 -284.738L710.648 -284.731ZM534.753 139.455H670.736C673.006 128.106 674.157 116.533 674.157 104.903V16.4212C674.157 10.8354 673.862 5.28003 673.28 -0.224121H604.924C585.866 -0.224121 567.589 -7.79468 554.113 -21.2704C544.347 -31.0367 537.683 -43.3246 534.753 -56.6038V139.455ZM1029.38 -154.027V-143.905H1027.69C1028.35 -147.261 1028.91 -150.637 1029.38 -154.027ZM714.225 -290.018C719.16 -323.485 734.725 -354.719 758.932 -378.927C784.112 -404.106 816.894 -419.935 851.884 -424.177H885.537C883.302 -413.635 880.099 -403.294 875.955 -393.29C867.098 -371.908 854.117 -352.481 837.753 -336.116C821.388 -319.752 801.961 -306.771 780.58 -297.914C759.533 -289.196 736.998 -284.643 714.225 -284.503V-290.018ZM852.83 -143.902C851.113 -158.555 847.378 -172.931 841.71 -186.616C833.647 -206.08 821.83 -223.766 806.933 -238.663C792.036 -253.56 774.351 -265.377 754.887 -273.439C744.771 -277.629 734.278 -280.762 723.575 -282.805C743.412 -283.969 762.941 -288.443 781.345 -296.067C802.969 -305.024 822.617 -318.152 839.167 -334.702C855.717 -351.252 868.846 -370.9 877.802 -392.524C882.048 -402.773 885.317 -413.371 887.581 -424.177H888.43C887.929 -419.028 887.674 -413.836 887.674 -408.617V-143.902H852.83ZM853.052 -141.902H1025.23C1023 -131.36 1019.8 -121.02 1015.65 -111.017C1006.8 -89.6353 993.814 -70.2079 977.45 -53.8434C961.085 -37.4789 941.658 -24.4978 920.277 -15.6415C899.23 -6.92346 876.695 -2.37024 853.921 -2.23004V-125.223C853.921 -130.805 853.63 -136.372 853.052 -141.902ZM888.657 -426.352C888.94 -428.894 889.283 -431.425 889.685 -433.943V-436.287C889.228 -432.983 888.678 -429.693 888.036 -426.421L888.317 -426.39L888.657 -426.352ZM891.685 -549.176V-444.269C898.347 -473.495 913.128 -500.522 934.662 -522.057C957.134 -544.529 985.586 -559.645 1016.28 -565.857H890.816C891.394 -560.326 891.685 -554.759 891.685 -549.176ZM181.854 135.007C186.792 101.545 202.356 70.316 226.56 46.1119C241.506 31.1655 259.131 19.5139 278.307 11.6247C291.674 6.15875 305.79 2.51898 320.273 0.863342H353.166C350.931 11.4053 347.728 21.7452 343.585 31.749C334.728 53.1304 321.747 72.5577 305.383 88.9222C289.018 105.287 269.591 118.268 248.21 127.124C227.163 135.842 204.628 140.395 181.854 140.536V135.007ZM306.928 0.863342C296.849 2.89227 287.01 5.88135 277.545 9.77576C258.006 17.7664 240.048 29.6102 224.832 44.8264C203.297 66.3616 188.516 93.3887 181.854 122.616V17.5424C181.854 11.9601 181.563 6.3924 180.985 0.861328H215.602V0.863342H216.602H306.928ZM353.666 -1.5799C348.662 -2.05249 343.629 -2.29041 338.585 -2.29041C332.136 -2.29041 325.728 -1.90216 319.391 -1.13867H217.602V-197.182C220.532 -183.906 227.196 -171.621 236.96 -161.857C250.435 -148.382 268.712 -140.811 287.77 -140.811H356.124C356.705 -135.31 356.999 -129.757 356.999 -124.174V-35.6913C356.999 -24.2118 355.878 -12.7881 353.666 -1.5799ZM356.285 -1.31097C356.078 -1.33392 355.872 -1.35645 355.665 -1.37854C356.305 -4.64191 356.854 -7.92322 357.311 -11.2187V-8.89093C356.909 -6.37665 356.567 -3.8493 356.285 -1.31097ZM179.844 226.756C182.773 240.036 189.438 252.324 199.204 262.09C212.68 275.566 230.956 283.136 250.014 283.136H318.655C319.252 288.721 319.553 294.344 319.553 299.982V422.978H179.844V226.756ZM318.428 281.136H250.014C231.487 281.136 213.719 273.776 200.618 260.676C187.517 247.575 180.158 229.807 180.158 211.28V158.137C180.158 152.991 180.408 147.871 180.902 142.793C194.912 144.556 208.653 148.188 221.754 153.614C240.975 161.576 258.44 173.245 273.151 187.957C287.862 202.668 299.532 220.133 307.494 239.354C313.04 252.744 316.711 266.804 318.428 281.136ZM320.666 283.136C321.256 288.721 321.553 294.344 321.553 299.982V422.975C344.327 422.835 366.861 418.281 387.909 409.563C409.29 400.707 428.717 387.726 445.082 371.362C461.446 354.997 474.427 335.57 483.283 314.188C487.449 304.132 490.664 293.736 492.9 283.136H320.666ZM355.302 281.136H320.443C318.716 266.541 314.989 252.222 309.341 238.589C301.279 219.125 289.462 201.439 274.565 186.542C259.668 171.645 241.983 159.828 222.519 151.766C212.19 147.487 201.467 144.311 190.528 142.272C210.598 141.171 230.362 136.682 248.975 128.972C270.599 120.015 290.247 106.887 306.797 90.3364C323.347 73.7863 336.475 54.1383 345.432 32.5144C349.677 22.2658 352.946 11.6685 355.21 0.863342H356.058C355.557 6.01202 355.302 11.2036 355.302 16.4212V281.136ZM497.012 281.134H495.35C495.997 277.842 496.551 274.532 497.012 271.207V281.134ZM627.755 -95.6039C602.821 -120.538 570.432 -136.302 535.827 -140.727C535.323 -135.597 535.067 -130.423 535.067 -125.223V-72.0807C535.067 -53.5536 542.427 -35.7853 555.528 -22.6847C568.628 -9.58398 586.396 -2.22412 604.924 -2.22412H673.056C668.891 -37.3744 653.037 -70.3218 627.755 -95.6039ZM515.73 -144.006C520.893 -144.006 526.03 -143.757 531.125 -143.266C533.335 -154.471 534.456 -165.891 534.456 -177.367V-265.849C534.456 -271.436 534.161 -276.992 533.579 -282.497H465.227C446.169 -282.497 427.892 -290.068 414.416 -303.543C404.652 -313.307 397.989 -325.592 395.058 -338.868V-142.814H496.199C502.646 -143.604 509.167 -144.006 515.73 -144.006ZM402.29 -97.0182C424.753 -119.481 453.191 -134.594 483.868 -140.811H358.442C359.02 -135.283 359.311 -129.717 359.311 -124.138V-19.2207C365.972 -48.451 380.753 -75.4811 402.29 -97.0182ZM536.768 -148.379C541.71 -181.831 557.272 -213.051 581.469 -237.248C606.645 -262.424 639.422 -278.252 674.405 -282.497H708.082C705.846 -271.952 702.643 -261.61 698.498 -251.604C689.642 -230.222 676.661 -210.795 660.296 -194.43C643.932 -178.066 624.504 -165.085 603.123 -156.228C582.076 -147.51 559.542 -142.957 536.768 -142.817V-148.379ZM757.2 -380.379C779.669 -402.848 808.118 -417.964 838.806 -424.177H713.355C713.933 -418.646 714.225 -413.078 714.225 -407.496V-302.598C720.888 -331.822 735.667 -358.846 757.2 -380.379ZM870.639 -427.367C875.803 -427.367 880.941 -427.118 886.038 -426.626C888.248 -437.832 889.369 -449.253 889.369 -460.73V-549.212C889.369 -554.798 889.074 -560.353 888.493 -565.857H820.144C801.087 -565.857 782.81 -573.428 769.334 -586.904C759.57 -596.668 752.906 -608.953 749.976 -622.229V-426.18H851.157C857.588 -426.967 864.093 -427.367 870.639 -427.367ZM143.462 142.542H178.616C178.103 147.745 177.844 152.992 177.844 158.266V422.981H72.5554C54.0283 422.981 36.26 415.621 23.1594 402.52C10.0587 389.42 2.69885 371.651 2.69885 353.124V299.982C2.69885 257.964 19.3902 217.667 49.1011 187.957C74.6183 162.439 107.944 146.526 143.462 142.542ZM178.826 140.534C179.109 137.991 179.452 135.46 179.854 132.942V17.5424C179.854 11.9598 179.559 6.39185 178.974 0.861328H110.313C91.2558 0.861328 72.9788 -6.70929 59.5031 -20.185C49.7389 -29.9492 43.075 -42.2339 40.1449 -55.51V140.539H143.373C149.24 139.886 155.166 139.554 161.126 139.554C167.051 139.554 172.96 139.882 178.826 140.534ZM926.206 -848.316C925.693 -843.106 925.432 -837.853 925.432 -832.573V-567.857H890.594C888.876 -582.51 885.142 -596.885 879.473 -610.569C871.411 -630.033 859.594 -647.719 844.697 -662.616C829.8 -677.513 812.115 -689.33 792.651 -697.392C779.377 -702.89 765.452 -706.569 751.256 -708.353C755.209 -743.934 771.132 -777.324 796.69 -802.882C826.401 -832.593 866.697 -849.284 908.715 -849.284C914.57 -849.284 920.409 -848.96 926.206 -848.316ZM888.269 -567.857H820.144C801.617 -567.857 783.849 -575.217 770.748 -588.318C757.647 -601.419 750.288 -619.187 750.288 -637.714V-690.857C750.288 -696.056 750.543 -701.229 751.047 -706.359C785.649 -701.933 818.035 -686.169 842.967 -661.237C868.249 -635.955 884.104 -603.008 888.269 -567.857ZM218.883 -283.314C222.837 -318.892 238.76 -352.28 264.316 -377.835C294.027 -407.546 334.323 -424.238 376.341 -424.238C382.196 -424.238 388.035 -423.913 393.832 -423.269C393.319 -418.06 393.058 -412.806 393.058 -407.526V-142.811H358.221C356.503 -157.466 352.769 -171.844 347.099 -185.531C339.037 -204.995 327.22 -222.68 312.323 -237.577C297.426 -252.474 279.741 -264.291 260.277 -272.353C247.003 -277.852 233.079 -281.53 218.883 -283.314ZM535.676 -284.497C533.958 -299.147 530.224 -313.52 524.556 -327.203C516.494 -346.667 504.677 -364.353 489.78 -379.25C474.883 -394.147 457.197 -405.964 437.734 -414.026C424.459 -419.524 410.535 -423.203 396.338 -424.986C400.289 -460.57 416.214 -493.962 441.772 -519.521C471.483 -549.232 511.78 -565.924 553.797 -565.924C558.878 -565.924 563.946 -565.679 568.985 -565.194C569.754 -565.118 570.522 -565.037 571.288 -564.951C570.775 -559.743 570.515 -554.491 570.515 -549.212V-284.497H535.676ZM355.9 -142.811H287.77C269.243 -142.811 251.475 -150.171 238.374 -163.272C225.273 -176.372 217.913 -194.141 217.913 -212.668V-265.81C217.913 -271.012 218.169 -276.188 218.674 -281.321C253.277 -276.895 285.664 -261.131 310.597 -236.199C335.881 -210.915 351.736 -177.964 355.9 -142.811ZM665.51 -519.551C640.578 -544.483 608.192 -560.247 573.59 -564.673C573.086 -559.545 572.831 -554.374 572.831 -549.176V-496.034C572.831 -477.507 580.191 -459.739 593.291 -446.638C606.392 -433.537 624.16 -426.177 642.687 -426.177H710.812C706.646 -461.325 690.791 -494.27 665.51 -519.551ZM748.75 -706.635C748.236 -701.426 747.976 -696.173 747.976 -690.892V-426.177H713.133C711.415 -440.829 707.681 -455.205 702.013 -468.889C693.951 -488.353 682.134 -506.039 667.237 -520.936C652.339 -535.833 634.654 -547.65 615.19 -555.712C601.917 -561.21 587.994 -564.888 573.799 -566.672C577.752 -602.253 593.675 -635.644 619.233 -661.202C648.944 -690.913 689.241 -707.604 731.258 -707.604C737.113 -707.604 742.953 -707.279 748.75 -706.635ZM41.4253 -141.634C45.3778 -177.215 61.3015 -210.605 86.859 -236.163C116.57 -265.874 156.866 -282.565 198.884 -282.565C204.74 -282.565 210.579 -282.241 216.376 -281.597C215.862 -276.386 215.602 -271.131 215.602 -265.849V-1.13867H180.763C179.045 -15.7908 175.311 -30.1661 169.643 -43.8506C161.58 -63.3146 149.763 -80.9999 134.866 -95.897C119.969 -110.794 102.284 -122.611 82.82 -130.673C69.5458 -136.172 55.6216 -139.85 41.4253 -141.634ZM178.749 -1.13867H110.313C91.7862 -1.13867 74.0179 -8.49854 60.9173 -21.5992C47.8166 -34.6999 40.4568 -52.4682 40.4568 -70.9954V-124.138C40.4568 -129.339 40.7125 -134.513 41.217 -139.644C55.2221 -137.881 68.9587 -134.25 82.0547 -128.826C101.276 -120.864 118.741 -109.194 133.452 -94.4828C148.163 -79.7714 159.833 -62.3065 167.795 -43.0852C173.362 -29.6438 177.041 -15.5275 178.749 -1.13867ZM465.227 -284.497H533.355C529.19 -319.646 513.335 -352.593 488.054 -377.874C463.121 -402.807 430.733 -418.571 396.13 -422.997C395.626 -417.867 395.37 -412.695 395.37 -407.496V-354.354C395.37 -335.827 402.73 -318.058 415.831 -304.958C428.931 -291.857 446.7 -284.497 465.227 -284.497ZM38.1449 140.542H-67.1435C-85.6706 140.542 -103.439 133.182 -116.539 120.081C-129.64 106.98 -137 89.2119 -137 70.6848V17.5424C-137 -24.4752 -120.309 -64.7719 -90.5978 -94.4828C-60.8869 -124.194 -20.5903 -140.885 21.4272 -140.885C27.2826 -140.885 33.1218 -140.561 38.9187 -139.917C38.4052 -134.707 38.1449 -129.454 38.1449 -124.174V140.542Z" fill="url(#paint0_radial_1709_9666)"/>
</g>
<defs>
<radialGradient id="paint0_radial_1709_9666" cx="0" cy="0" r="1" gradientUnits="userSpaceOnUse" gradientTransform="translate(99 229) rotate(-4.15337) scale(1325.48 1421.49)">
<stop stop-color="#64E6FC"/>
<stop offset="1" stop-color="#F4F6FA" stop-opacity="0"/>
</radialGradient>
</defs>
</svg>
