<svg width="200" height="172" viewBox="0 0 200 172" fill="none" xmlns="http://www.w3.org/2000/svg">
<path d="M135.715 0C152.765 0 169.116 6.77293 181.172 18.8288C193.228 30.8847 200.001 47.236 200.001 64.2857V99.9642C200.001 109.349 198.152 118.642 194.561 127.312C190.969 135.983 185.705 143.861 179.069 150.497C172.433 157.133 164.555 162.397 155.885 165.989C147.214 169.58 137.921 171.428 128.537 171.428H71.4297V64.2857C71.4297 47.236 78.2026 30.8847 90.2585 18.8288C102.314 6.77293 118.666 0 135.715 0Z" fill="#4B5CFA"/>
<path d="M64.2855 57.1426C72.7276 57.1426 81.087 58.8054 88.8865 62.036C96.686 65.2667 103.773 70.0019 109.742 75.9714C115.712 81.9409 120.447 89.0277 123.678 96.8272C126.908 104.627 128.571 112.986 128.571 121.428V171.428H28.5713C20.9937 171.428 13.7265 168.418 8.36835 163.06C3.01019 157.702 0 150.434 0 142.857V121.428C0 104.379 6.77292 88.0273 18.8288 75.9714C30.8847 63.9155 47.2359 57.1426 64.2855 57.1426Z" fill="#19D4EE"/>
<path fill-rule="evenodd" clip-rule="evenodd" d="M128.572 171.429C128.56 171.429 128.549 171.429 128.537 171.429H71.4297V64.2865C71.4297 62.0368 71.5476 59.7992 71.78 57.582C77.6487 58.2708 83.4065 59.7669 88.8878 62.0373C96.6872 65.2679 103.774 70.0032 109.743 75.9726C115.713 81.9421 120.448 89.0289 123.679 96.8284C126.909 104.628 128.572 112.987 128.572 121.429V171.429Z" fill="#002CD9"/>
</svg>
