<svg width="1281" height="671" viewBox="0 0 1281 671" fill="none" xmlns="http://www.w3.org/2000/svg">
<g clip-path="url(#clip0_1901_9661)">
<mask id="mask0_1901_9661" style="mask-type:alpha" maskUnits="userSpaceOnUse" x="0" y="0" width="1440" height="671">
<path d="M0 0H1440V671H0V0Z" fill="#F4F6FA"/>
</mask>
<g mask="url(#mask0_1901_9661)">
<path fill-rule="evenodd" clip-rule="evenodd" d="M1085.86 -560C1043.84 -560 1003.54 -543.309 973.834 -513.598C948.277 -488.041 932.353 -454.651 928.4 -419.071C942.705 -417.302 956.736 -413.61 970.107 -408.071C989.571 -400.009 1007.26 -388.192 1022.15 -373.295C1037.05 -358.398 1048.87 -340.713 1056.93 -321.249C1064.99 -301.785 1069.14 -280.923 1069.14 -259.856V-154.956C1075.8 -184.18 1090.58 -211.204 1112.12 -232.736C1142.2 -262.822 1183.01 -279.725 1225.56 -279.725C1230.72 -279.725 1235.86 -279.476 1240.95 -278.984C1243.16 -290.191 1244.29 -301.613 1244.29 -313.09V-401.573C1244.29 -443.59 1227.59 -483.887 1197.88 -513.598C1168.17 -543.309 1127.88 -560 1085.86 -560ZM1066.11 -137.031C1066.39 -139.577 1066.74 -142.112 1067.14 -144.633V-146.935C1066.68 -143.641 1066.14 -140.361 1065.5 -137.1C1065.7 -137.077 1065.91 -137.054 1066.11 -137.031ZM1065.13 -119.297C1065.13 -124.515 1065.38 -129.707 1065.88 -134.857H1065.04C1062.78 -124.051 1059.51 -113.454 1055.26 -103.205C1046.31 -81.581 1033.18 -61.933 1016.63 -45.3828C1000.08 -28.8326 980.43 -15.7042 958.806 -6.74731C940.398 0.877502 920.865 5.35223 901.023 6.51459C911.731 8.55768 922.229 11.6918 932.349 15.8837C951.813 23.9459 969.499 35.7629 984.396 50.66C999.293 65.5571 1011.11 83.2424 1019.17 102.706C1024.84 116.391 1028.57 130.767 1030.29 145.419H1065.13V-119.297ZM1208.84 147.412C1231.88 147.272 1254.67 142.667 1275.96 133.848C1297.58 124.891 1317.23 111.763 1333.78 95.2129C1350.33 78.6627 1363.46 59.0147 1372.42 37.3909C1381.37 15.767 1385.98 -7.40942 1385.98 -30.8149V-119.297C1385.98 -161.845 1369.08 -202.651 1339 -232.736C1313.04 -258.693 1279.1 -274.837 1242.95 -278.779C1245.16 -290.055 1246.29 -301.545 1246.29 -313.09V-401.573C1246.29 -444.121 1229.38 -484.926 1199.3 -515.012C1169.21 -545.098 1128.41 -562 1085.86 -562C1043.31 -562 1002.51 -545.098 972.42 -515.012C946.544 -489.136 930.42 -455.33 926.414 -419.307C920.463 -419.979 914.45 -420.32 908.403 -420.32C865.855 -420.32 825.05 -403.418 794.964 -373.332C769.087 -347.456 752.963 -313.649 748.958 -277.624C743.005 -278.297 736.991 -278.639 730.942 -278.639C688.394 -278.639 647.589 -261.737 617.503 -231.651C591.626 -205.774 575.502 -171.967 571.497 -135.943C570.951 -136.003 570.404 -136.061 569.857 -136.116C564.442 -136.671 558.978 -136.953 553.485 -136.953C510.937 -136.953 470.132 -120.051 440.046 -89.965C414.171 -64.0898 398.047 -30.2859 394.041 5.73639C388.089 5.06409 382.077 4.72266 376.029 4.72266C333.481 4.72266 292.676 21.6248 262.59 51.7108C236.714 77.586 220.591 111.39 216.585 147.412C210.633 146.74 204.62 146.398 198.572 146.398C156.024 146.398 115.218 163.301 85.1326 193.387C59.2558 219.263 43.132 253.07 39.1269 289.095C33.261 288.443 27.3522 288.115 21.4272 288.115C-21.1208 288.115 -61.926 305.017 -92.012 335.103C-122.098 365.189 -139 405.995 -139 448.543V501.685C-139 520.743 -131.429 539.02 -117.954 552.495C-104.478 565.971 -86.201 573.542 -67.1435 573.542H130.309C99.2329 579.625 70.4044 594.826 47.6873 617.543C17.6013 647.629 0.699219 688.434 0.699219 730.982V784.125C0.699219 803.182 8.26979 821.459 21.7455 834.935C35.2212 848.411 53.4982 855.981 72.5558 855.981H320.554H321.554V855.974C344.59 855.834 367.384 851.229 388.674 842.411C410.298 833.454 429.946 820.326 446.496 803.775C463.046 787.225 476.174 767.577 485.131 745.953C489.398 735.653 492.678 725 494.944 714.138H498.012H499.012V714.131C522.048 713.99 544.842 709.386 566.132 700.567C587.756 691.61 607.404 678.482 623.954 661.932C640.504 645.381 653.632 625.733 662.589 604.11C666.834 593.861 670.103 583.265 672.367 572.46H675.463H676.463V572.453C699.499 572.313 722.294 567.708 743.583 558.889C765.207 549.932 784.855 536.804 801.405 520.254C817.955 503.704 831.083 484.056 840.04 462.432C844.286 452.182 847.555 441.583 849.819 430.776H852.922H853.922V430.769C876.958 430.629 899.752 426.024 921.042 417.206C942.666 408.249 962.314 395.12 978.864 378.57C995.414 362.02 1008.54 342.372 1017.5 320.748C1021.74 310.5 1025.01 299.903 1027.28 289.099H1030.38H1031.38V289.092C1054.42 288.951 1077.21 284.346 1098.5 275.528C1120.13 266.571 1139.78 253.443 1156.33 236.893C1172.88 220.342 1186 200.694 1194.96 179.071C1199.21 168.822 1202.48 158.224 1204.74 147.419H1207.84H1208.84V147.412ZM1202.7 147.419H1030.51C1031.09 152.95 1031.38 158.517 1031.38 164.099V287.092C1054.16 286.951 1076.69 282.398 1097.74 273.68C1119.12 264.824 1138.55 251.843 1154.91 235.478C1171.28 219.114 1184.26 199.686 1193.11 178.305C1197.26 168.301 1200.46 157.961 1202.7 147.419ZM1027.97 145.419C1023.8 110.267 1007.95 77.3182 982.664 52.0352C957.732 27.1033 925.346 11.3394 890.745 6.91315C890.24 12.0444 889.984 17.2189 889.984 22.4197V75.5621C889.984 94.0893 897.344 111.858 910.445 124.958C923.546 138.059 941.314 145.419 959.841 145.419H1027.97ZM1078.48 -135.165C1098.32 -136.327 1117.85 -140.802 1136.26 -148.427C1157.89 -157.384 1177.53 -170.512 1194.08 -187.062C1210.63 -203.613 1223.76 -223.261 1232.72 -244.885C1237 -255.22 1240.29 -265.91 1242.55 -276.811C1278.32 -272.952 1311.9 -256.999 1337.58 -231.322C1367.29 -201.611 1383.98 -161.315 1383.98 -119.297V-30.8149C1383.98 -7.672 1379.43 15.2443 1370.57 36.6255C1361.71 58.0067 1348.73 77.4342 1332.37 93.7987C1316 110.163 1296.57 123.144 1275.19 132.001C1254.15 140.719 1231.61 145.272 1208.84 145.412V22.4197C1208.84 1.35205 1204.69 -19.5093 1196.63 -38.9733C1188.56 -58.4373 1176.75 -76.1227 1161.85 -91.0197C1146.95 -105.917 1129.27 -117.734 1109.8 -125.796C1099.68 -129.988 1089.19 -133.122 1078.48 -135.165ZM1206.84 135.347V145.415H1205.15C1205.81 142.077 1206.37 138.719 1206.84 135.347ZM1029.34 -134.857H1063C1060.76 -124.314 1057.56 -113.974 1053.42 -103.97C1044.56 -82.589 1031.58 -63.1615 1015.21 -46.797C998.849 -30.4326 979.422 -17.4515 958.04 -8.59509C936.993 0.122803 914.459 4.67596 891.685 4.81622V-0.738525C896.628 -34.1898 912.189 -65.4083 936.387 -89.6055C961.567 -114.786 994.351 -130.615 1029.34 -134.857ZM889.674 91.0535C892.605 104.327 899.268 116.61 909.031 126.372C922.506 139.848 940.783 147.419 959.841 147.419H1028.19C1028.77 152.922 1029.07 158.476 1029.07 164.06V252.543C1029.07 264.173 1027.92 275.745 1025.65 287.095H889.674V91.0535ZM1067.13 145.415H1203.11C1205.38 134.066 1206.53 122.494 1206.53 110.865V22.3826C1206.53 -19.635 1189.84 -59.9317 1160.13 -89.6426C1135.12 -114.651 1102.61 -130.435 1067.89 -134.805C1067.38 -129.673 1067.13 -124.498 1067.13 -119.297V145.415ZM1230.87 -245.65C1235.08 -255.805 1238.31 -266.306 1240.55 -277.014C1235.59 -277.486 1230.59 -277.725 1225.56 -277.725C1183.54 -277.725 1143.24 -261.033 1113.53 -231.322C1089.82 -207.612 1074.4 -177.161 1069.14 -144.474V-136.863C1091.92 -137.004 1114.45 -141.557 1135.5 -150.275C1156.88 -159.131 1176.31 -172.112 1192.67 -188.477C1209.03 -204.841 1222.01 -224.269 1230.87 -245.65ZM1048.1 -138.045C1053.26 -138.045 1058.4 -137.796 1063.5 -137.305C1065.71 -148.511 1066.83 -159.933 1066.83 -171.411V-259.893C1066.83 -301.91 1050.14 -342.207 1020.43 -371.918C995.42 -396.926 962.913 -412.71 928.192 -417.08C927.688 -411.949 927.432 -406.774 927.432 -401.573V-136.86H1028.63C1035.06 -137.645 1041.56 -138.045 1048.1 -138.045ZM676.463 570.453C699.236 570.313 721.771 565.76 742.818 557.042C764.199 548.185 783.626 535.204 799.991 518.84C816.355 502.475 829.336 483.048 838.193 461.667C842.337 451.661 845.54 441.32 847.775 430.776H675.593C676.171 436.308 676.463 441.877 676.463 447.461V570.453ZM674.463 560.414V570.456H672.775C673.433 567.126 673.996 563.778 674.463 560.414ZM535.827 290.274C535.955 290.29 536.083 290.307 536.211 290.323C570.671 294.815 602.913 310.555 627.754 335.396C653.036 360.679 668.891 393.626 673.056 428.776H604.924C586.397 428.776 568.629 421.416 555.528 408.316C542.427 395.215 535.067 377.447 535.067 358.92V305.777C535.067 300.578 535.323 295.404 535.827 290.274ZM359.311 424.289C364.256 390.843 379.817 359.63 404.011 335.436C429.18 310.267 461.945 294.441 496.918 290.19H530.622C528.387 300.731 525.185 311.07 521.041 321.073C512.185 342.454 499.204 361.881 482.839 378.246C466.475 394.61 447.047 407.591 425.666 416.448C404.619 425.166 382.085 429.719 359.311 429.859V424.289ZM675.371 428.776C673.653 414.125 669.919 399.751 664.251 386.068C656.189 366.604 644.372 348.918 629.475 334.021C614.578 319.124 596.892 307.307 577.428 299.245C567.316 295.056 556.826 291.924 546.126 289.88C565.961 288.716 585.486 284.242 603.888 276.62C625.512 267.663 645.16 254.535 661.71 237.984C678.26 221.434 691.388 201.786 700.345 180.162C704.591 169.912 707.86 159.312 710.124 148.505H710.967C710.466 153.653 710.212 158.843 710.212 164.06V428.776H675.371ZM357.302 516.112C360.235 529.379 366.896 541.655 376.655 551.413C390.13 564.889 408.407 572.46 427.465 572.46H495.805C496.397 578.016 496.698 583.625 496.698 589.265V677.748C496.698 689.321 495.558 700.838 493.311 712.134H357.302V516.112ZM495.579 570.46H427.465C408.938 570.46 391.17 563.1 378.069 549.999C364.968 536.899 357.608 519.13 357.608 500.603V447.461C357.608 442.314 357.859 437.194 358.353 432.115C392.964 436.537 425.358 452.303 450.296 477.24C475.54 502.484 491.385 535.37 495.579 570.46ZM497.921 570.46C496.203 555.807 492.468 541.431 486.8 527.745C478.738 508.281 466.921 490.596 452.024 475.699C437.127 460.802 419.441 448.985 399.977 440.923C389.862 436.733 379.369 433.6 368.666 431.557C388.502 430.393 408.029 425.918 426.432 418.296C448.056 409.339 467.703 396.21 484.254 379.66C500.804 363.11 513.932 343.462 522.889 321.838C527.134 311.591 530.402 300.994 532.666 290.19H533.508C533.007 295.338 532.753 300.528 532.753 305.744V570.46H497.921ZM498.142 572.46H670.323C668.088 583.001 664.885 593.341 660.741 603.344C651.885 624.725 638.904 644.153 622.54 660.517C606.175 676.882 586.748 689.863 565.367 698.719C544.32 707.437 521.785 711.99 499.012 712.131V589.138C499.012 583.557 498.72 577.99 498.142 572.46ZM851.922 428.773H850.227C850.888 425.426 851.453 422.061 851.922 418.68V428.773ZM851.607 305.744C851.607 300.158 851.312 294.603 850.731 289.099H782.386C763.328 289.099 745.051 281.528 731.576 268.052C721.805 258.282 715.139 245.988 712.212 232.702V428.773H848.188C850.457 417.425 851.607 405.854 851.607 394.226V305.744ZM805.205 193.719C780.274 168.788 747.89 153.024 713.289 148.597C712.785 153.727 712.529 158.9 712.529 164.099V217.242C712.529 235.769 719.889 253.537 732.99 266.638C746.09 279.739 763.859 287.099 782.386 287.099H850.507C846.342 251.948 830.487 219.001 805.205 193.719ZM533.736 288.007C534.019 285.458 534.363 282.92 534.767 280.396V278.108C534.311 281.4 533.763 284.679 533.123 287.939C533.327 287.962 533.532 287.984 533.736 288.007ZM579.741 192.305C602.212 169.834 630.662 154.717 661.352 148.505H535.897C536.476 154.038 536.767 159.607 536.767 165.191V270.077C543.431 240.856 558.21 213.835 579.741 192.305ZM693.18 145.316C698.345 145.316 703.484 145.565 708.581 146.057C710.791 134.852 711.912 123.432 711.912 111.957V23.4744C711.912 17.8865 711.617 12.3292 711.035 6.82312H642.688C623.63 6.82312 605.353 -0.747498 591.877 -14.2233C582.108 -23.9924 575.442 -36.2849 572.515 -49.5688V146.501H673.714C680.14 145.716 686.639 145.316 693.18 145.316ZM534.753 570.456H670.736C673.005 559.107 674.156 547.534 674.156 535.904V447.422C674.156 441.836 673.861 436.28 673.28 430.776H604.924C585.866 430.776 567.589 423.206 554.114 409.73C544.347 399.963 537.682 387.674 534.753 374.393V570.456ZM1029.38 276.976V287.095H1027.69C1028.35 283.74 1028.91 280.365 1029.38 276.976ZM714.224 140.981C719.16 107.515 734.725 76.281 758.932 52.0742C784.112 26.8937 816.896 11.0649 851.887 6.82312H885.537C883.301 17.366 880.098 27.7067 875.954 37.7114C867.098 59.0927 854.117 78.5201 837.753 94.8846C821.388 111.249 801.961 124.23 780.579 133.087C759.533 141.804 736.998 146.358 714.224 146.498V140.981ZM852.831 287.099C851.113 272.446 847.379 258.069 841.71 244.384C833.648 224.92 821.831 207.235 806.934 192.338C792.037 177.441 774.351 165.624 754.887 157.561C744.772 153.372 734.28 150.238 723.577 148.195C743.414 147.032 762.941 142.557 781.345 134.934C802.969 125.977 822.617 112.849 839.167 96.2988C855.717 79.7487 868.845 60.1006 877.802 38.4768C882.048 28.2274 885.316 17.6292 887.581 6.82312H888.43C887.928 11.9724 887.674 17.1644 887.674 22.3826V287.099H852.831ZM853.052 289.099H1025.23C1023 299.64 1019.8 309.979 1015.65 319.983C1006.8 341.364 993.814 360.792 977.45 377.156C961.085 393.521 941.658 406.502 920.277 415.358C899.23 424.076 876.695 428.629 853.922 428.769V305.777C853.922 300.196 853.63 294.629 853.052 289.099ZM888.657 4.64728C888.939 2.104 889.283 -0.428162 889.685 -2.94733V-5.289C889.228 -1.98444 888.678 1.30597 888.036 4.57831C888.156 4.59143 888.276 4.60468 888.396 4.61804L888.524 4.63232L888.657 4.64728ZM891.685 -118.176V-13.2718C898.348 -42.4973 913.128 -69.5228 934.662 -91.0568C957.133 -113.528 985.583 -128.644 1016.27 -134.857H890.816C891.394 -129.326 891.685 -123.758 891.685 -118.176ZM181.854 566.007C186.793 532.546 202.356 501.317 226.559 477.113C241.674 461.999 259.528 450.253 278.955 442.361C292.131 437.041 306.026 433.491 320.277 431.863H353.166C350.931 442.405 347.728 452.745 343.584 462.749C334.728 484.13 321.747 503.557 305.382 519.922C289.018 536.286 269.59 549.267 248.209 558.124C227.162 566.842 204.628 571.395 181.854 571.535V566.007ZM306.938 431.863C297.092 433.844 287.476 436.741 278.212 440.504C258.415 448.497 240.221 460.437 224.832 475.826C203.297 497.361 188.516 524.388 181.854 553.615V448.543C181.854 442.961 181.563 437.393 180.985 431.862L215.602 431.863H216.602H306.938ZM353.666 429.421C348.661 428.949 343.629 428.711 338.584 428.711C332.136 428.711 325.728 429.099 319.392 429.863H217.602V233.821C220.532 247.096 227.196 259.38 236.959 269.144C250.435 282.62 268.712 290.19 287.77 290.19H356.124C356.704 295.691 356.999 301.243 356.999 306.826V395.308C356.999 406.788 355.877 418.213 353.666 429.421ZM356.284 429.69C356.078 429.667 355.871 429.645 355.664 429.623C356.305 426.357 356.854 423.074 357.311 419.776V422.104C356.909 424.62 356.567 427.15 356.284 429.69ZM179.844 657.759C182.773 671.038 189.438 683.325 199.204 693.091C212.679 706.567 230.956 714.138 250.014 714.138H318.656C319.253 719.722 319.554 725.344 319.554 730.982V853.978H179.844V657.759ZM318.429 712.138H250.014C231.487 712.138 213.718 704.778 200.618 691.677C187.517 678.576 180.157 660.808 180.157 642.281V589.138C180.157 583.992 180.408 578.872 180.902 573.794C194.912 575.556 208.653 579.188 221.754 584.614C240.975 592.576 258.44 604.246 273.151 618.957C287.863 633.668 299.532 651.133 307.494 670.355C313.041 683.745 316.712 697.805 318.429 712.138ZM320.667 714.138C321.256 719.722 321.554 725.345 321.554 730.982V853.974C344.327 853.834 366.862 849.281 387.909 840.563C409.29 831.707 428.717 818.726 445.082 802.361C461.446 785.997 474.427 766.569 483.283 745.188C487.449 735.132 490.663 724.737 492.9 714.138H320.667ZM355.302 712.138H320.443C318.717 697.542 314.989 683.223 309.342 669.589C301.28 650.125 289.463 632.44 274.566 617.543C259.669 602.646 241.983 590.829 222.519 582.766C212.188 578.487 201.464 575.31 190.524 573.271C210.595 572.171 230.36 567.682 248.975 559.971C270.599 551.015 290.246 537.886 306.797 521.336C323.347 504.786 336.475 485.138 345.432 463.514C349.677 453.265 352.946 442.668 355.21 431.863H356.058C355.556 437.012 355.302 442.204 355.302 447.422V712.138ZM497.012 712.134H495.35C495.997 708.843 496.551 705.533 497.012 702.209V712.134ZM515.729 286.994C520.892 286.994 526.029 287.243 531.125 287.734C533.335 276.529 534.456 265.109 534.456 253.632V165.15C534.456 159.564 534.161 154.009 533.58 148.505H465.227C446.169 148.505 427.892 140.934 414.416 127.458C404.652 117.694 397.987 105.408 395.058 92.1306V288.187H496.199C502.645 287.396 509.166 286.994 515.729 286.994ZM402.29 333.982C424.751 311.521 453.187 296.408 483.862 290.19H358.443C359.02 295.719 359.311 301.284 359.311 306.863V411.776C365.973 382.547 380.754 355.518 402.29 333.982ZM711.194 146.329C710.989 146.306 710.784 146.284 710.579 146.262C711.219 143 711.768 139.719 712.224 136.425V138.724C711.821 141.247 711.477 143.782 711.194 146.329ZM536.767 282.626C541.709 249.172 557.271 217.951 581.47 193.752C606.642 168.579 639.414 152.752 674.393 148.505H708.081C705.845 159.049 702.642 169.391 698.497 179.397C689.641 200.778 676.66 220.206 660.295 236.57C643.931 252.935 624.504 265.916 603.122 274.772C582.076 283.49 559.541 288.043 536.767 288.183V282.626ZM757.2 50.6209C779.668 28.1525 808.115 13.037 838.801 6.82312H713.355C713.933 12.3547 714.224 17.9229 714.224 23.5056V128.402C720.887 99.1779 735.667 72.1539 757.2 50.6209ZM870.639 3.63281C875.803 3.63281 880.941 3.88184 886.038 4.37311C888.248 -6.83209 889.369 -18.2527 889.369 -29.7289V-118.211C889.369 -123.797 889.074 -129.352 888.493 -134.857H820.144C801.086 -134.857 782.809 -142.427 769.333 -155.903C759.57 -165.667 752.906 -177.951 749.976 -191.226V4.81958H851.157C857.588 4.0329 864.093 3.63281 870.639 3.63281ZM143.463 573.542H178.616C178.103 578.745 177.844 583.992 177.844 589.265V853.981H72.5558C54.0286 853.981 36.2604 846.621 23.1597 833.521C10.0591 820.42 2.69922 802.652 2.69922 784.125V730.982C2.69922 688.965 19.3906 648.668 49.1015 618.957C74.6189 593.439 107.945 577.526 143.463 573.542ZM178.826 571.534C179.109 568.992 179.452 566.46 179.854 563.942V448.543C179.854 442.96 179.559 437.393 178.974 431.862H110.314C91.256 431.862 72.979 424.292 59.5033 410.816C49.7385 401.051 43.0743 388.765 40.1445 375.488V571.538H143.383C149.247 570.886 155.17 570.555 161.126 570.555C167.051 570.555 172.96 570.883 178.826 571.534ZM926.205 -417.315C925.692 -412.106 925.432 -406.852 925.432 -401.573V-136.857H890.594C888.876 -151.509 885.142 -165.884 879.474 -179.569C871.411 -199.033 859.594 -216.718 844.697 -231.615C829.8 -246.512 812.115 -258.329 792.651 -266.392C779.377 -271.89 765.452 -275.569 751.256 -277.352C755.208 -312.933 771.132 -346.323 796.689 -371.881C826.4 -401.592 866.697 -418.283 908.714 -418.283C914.57 -418.283 920.409 -417.959 926.205 -417.315ZM888.269 -136.857H820.144C801.617 -136.857 783.848 -144.216 770.748 -157.317C757.647 -170.418 750.287 -188.186 750.287 -206.713V-259.856C750.287 -265.055 750.543 -270.228 751.047 -275.358C785.649 -270.932 818.035 -255.168 842.967 -230.236C868.249 -204.954 884.104 -172.007 888.269 -136.857ZM396.13 8.00452C396.478 8.0484 396.827 8.09338 397.175 8.13959C431.385 12.7464 463.372 28.4432 488.054 53.125C513.336 78.4072 529.191 111.354 533.355 146.505H465.227C446.7 146.505 428.931 139.145 415.831 126.044C402.73 112.944 395.37 95.1752 395.37 76.6481V23.5056C395.37 18.3066 395.626 13.134 396.13 8.00452ZM218.883 147.687C222.837 112.109 238.76 78.7216 264.315 53.166C294.026 23.4551 334.323 6.76367 376.34 6.76367C382.195 6.76367 388.035 7.08826 393.831 7.73218C393.318 12.9413 393.058 18.1944 393.058 23.4744V288.19H358.221C356.504 273.535 352.769 259.157 347.1 245.47C339.037 226.006 327.22 208.321 312.323 193.424C297.426 178.527 279.741 166.71 260.277 158.647C247.003 153.149 233.079 149.47 218.883 147.687ZM535.675 146.505C533.957 131.855 530.223 117.481 524.556 103.798C516.493 84.3342 504.677 66.6489 489.779 51.7518C474.882 36.8547 457.197 25.0377 437.733 16.9755C424.8 11.6183 411.25 7.98877 397.432 6.15619C397.068 6.10718 396.703 6.05939 396.338 6.01282C400.29 -29.5693 416.214 -62.9612 441.772 -88.5196C471.483 -118.23 511.78 -134.922 553.797 -134.922C559.104 -134.922 564.397 -134.655 569.657 -134.126C570.201 -134.07 570.745 -134.012 571.288 -133.95C570.775 -128.742 570.515 -123.49 570.515 -118.211V146.505H535.675ZM355.9 288.19H287.77C269.243 288.19 251.474 280.83 238.374 267.73C225.273 254.629 217.913 236.861 217.913 218.334V165.191C217.913 159.988 218.169 154.812 218.674 149.678C253.277 154.104 285.664 169.868 310.597 194.801C335.881 220.085 351.737 253.036 355.9 288.19ZM665.51 -88.5508C640.578 -113.483 608.192 -129.247 573.59 -133.673C573.086 -128.545 572.831 -123.374 572.831 -118.176V-65.0336C572.831 -46.5064 580.191 -28.7381 593.292 -15.6375C606.392 -2.53674 624.16 4.82312 642.688 4.82312H710.811C706.645 -30.325 690.79 -63.27 665.51 -88.5508ZM748.749 -275.635C748.236 -270.426 747.976 -265.173 747.976 -259.893V4.82312H713.133C711.415 -9.82849 707.681 -24.2032 702.013 -37.8873C693.95 -57.3513 682.134 -75.0367 667.236 -89.9338C652.339 -104.831 634.654 -116.648 615.19 -124.71C601.917 -130.208 587.994 -133.886 573.799 -135.67C577.752 -171.252 593.675 -204.643 619.233 -230.201C648.944 -259.912 689.241 -276.604 731.258 -276.604C737.113 -276.604 742.953 -276.279 748.749 -275.635ZM41.4256 289.367C45.3782 253.786 61.3019 220.395 86.8593 194.838C116.57 165.127 156.867 148.436 198.884 148.436C204.74 148.436 210.579 148.76 216.376 149.404C215.862 154.615 215.602 159.869 215.602 165.15V429.862H180.763C179.045 415.21 175.311 400.834 169.643 387.15C161.58 367.686 149.763 350 134.866 335.103C119.969 320.206 102.284 308.389 82.82 300.327C69.5459 294.829 55.6218 291.15 41.4256 289.367ZM178.749 429.862H110.314C91.7865 429.862 74.0182 422.502 60.9175 409.402C47.8169 396.301 40.457 378.533 40.457 360.005V306.863C40.457 301.662 40.7128 296.488 41.2173 291.356C55.2223 293.119 68.9588 296.75 82.0547 302.175C101.276 310.137 118.741 321.806 133.452 336.518C148.163 351.229 159.833 368.694 167.795 387.915C173.362 401.357 177.041 415.473 178.749 429.862ZM38.1445 571.542H-67.1435C-85.6706 571.542 -103.439 564.182 -116.539 551.081C-129.64 537.981 -137 520.212 -137 501.685V448.543C-137 406.525 -120.309 366.228 -90.5978 336.518C-60.8869 306.807 -20.5903 290.115 21.4272 290.115C27.2824 290.115 33.1215 290.44 38.9183 291.084C38.4048 296.293 38.1445 301.546 38.1445 306.826V571.542Z" fill="url(#paint0_radial_1901_9661)"/>
</g>
</g>
<defs>
<radialGradient id="paint0_radial_1901_9661" cx="0" cy="0" r="1" gradientUnits="userSpaceOnUse" gradientTransform="translate(98.9999 660) rotate(-4.15337) scale(1325.48 1421.49)">
<stop stop-color="#64E6FC"/>
<stop offset="1" stop-color="#F4F6FA" stop-opacity="0"/>
</radialGradient>
<clipPath id="clip0_1901_9661">
<rect width="1281" height="671" fill="white"/>
</clipPath>
</defs>
</svg>
