<svg width="67" height="40" viewBox="0 0 67 40" fill="none" xmlns="http://www.w3.org/2000/svg">
<path fill-rule="evenodd" clip-rule="evenodd" d="M37.9824 24.9862C38.0376 24.9874 38.093 24.988 38.1485 24.988C42.2884 24.988 45.6445 21.6319 45.6445 17.492C45.6445 13.352 42.2884 9.99596 38.1485 9.99596C37.2709 9.99596 36.4285 10.1468 35.6458 10.4239C34.6598 4.50887 29.518 0 23.323 0C19.0335 0 15.2489 2.16179 12.9993 5.45533C12.0512 5.15696 11.0422 4.99609 9.99554 4.99609C4.47563 4.99609 0.000854492 9.47087 0.000854492 14.9908C0.000854492 20.4556 4.38682 24.8961 9.83071 24.9841V24.9882H37.9824V24.9862Z" fill="#FE3CEB"/>
<path fill-rule="evenodd" clip-rule="evenodd" d="M56.9199 39.9946C56.9873 39.996 57.0549 39.9968 57.1227 39.9968C62.1075 39.9968 66.1484 35.9558 66.1484 30.9711C66.1484 25.9863 62.1075 21.9453 57.1227 21.9453C56.0657 21.9453 55.0511 22.127 54.1085 22.4609C52.9203 15.3399 46.7297 9.91211 39.2714 9.91211C34.106 9.91211 29.5486 12.5156 26.84 16.482C25.6991 16.1231 24.4848 15.9297 23.2254 15.9297C16.5791 15.9297 11.1911 21.3176 11.1911 27.964C11.1911 34.5428 16.4701 39.8887 23.0233 39.9967V39.9984H56.9199V39.9946Z" fill="#19D4EE"/>
<path fill-rule="evenodd" clip-rule="evenodd" d="M38.1505 24.9862C38.095 24.9862 38.0396 24.9856 37.9844 24.9844V24.9864H11.5628C12.8887 19.7812 17.6075 15.9316 23.2254 15.9316C24.4848 15.9316 25.6991 16.1251 26.84 16.4839C28.8914 13.4799 32.0033 11.2577 35.6366 10.3562C35.6404 10.3781 35.6441 10.4001 35.6478 10.4221C36.0082 10.2945 36.3812 10.1937 36.7646 10.122C36.9461 10.0916 37.1287 10.0644 37.3123 10.0405C37.5875 10.0099 37.8671 9.99414 38.1505 9.99414C42.2904 9.99414 45.6465 13.3502 45.6465 17.4902C45.6465 21.6301 42.2904 24.9862 38.1505 24.9862Z" fill="#002CD9"/>
</svg>
