<svg width="18" height="18" viewBox="0 0 18 18" fill="none" xmlns="http://www.w3.org/2000/svg">
<g clip-path="url(#clip0_1423_16399)">
<path d="M15.3366 15.3373H12.6697V11.1594C12.6697 10.1632 12.6518 8.88049 11.2824 8.88049C9.89339 8.88049 9.6807 9.96572 9.6807 11.0862V15.337H7.01383V6.74767H9.57401V7.92164H9.60854C9.86481 7.48352 10.2351 7.12311 10.68 6.8788C11.1249 6.63449 11.6277 6.51543 12.1349 6.53429C14.838 6.53429 15.3366 8.3125 15.3366 10.6256V15.3373ZM4.00445 5.57336C3.6983 5.57343 3.39901 5.48271 3.14442 5.31266C2.88983 5.14262 2.69138 4.90089 2.57418 4.61805C2.45697 4.33522 2.42627 4.02397 2.48596 3.72369C2.54564 3.4234 2.69303 3.14755 2.90949 2.93104C3.12595 2.71453 3.40175 2.56707 3.70201 2.50731C4.00227 2.44756 4.31351 2.47819 4.59636 2.59534C4.87921 2.71249 5.12097 2.91089 5.29107 3.16545C5.46116 3.42001 5.55195 3.71929 5.55195 4.02545C5.55195 4.43593 5.38892 4.82959 5.09872 5.11987C4.80852 5.41015 4.41491 5.57327 4.00445 5.57336ZM5.33789 15.337H2.66825V6.74767H5.33823L5.33789 15.337ZM16.6648 0.00116998H1.32791C1.15538 -0.000927298 0.984129 0.0310283 0.823964 0.0952074C0.663799 0.159386 0.517865 0.254529 0.394519 0.375186C0.271172 0.495843 0.172835 0.639646 0.105138 0.798361C0.0374408 0.957076 0.0017127 1.12759 0 1.30013V16.6998C0.00409804 17.0481 0.146291 17.3806 0.395342 17.6241C0.644393 17.8677 0.979934 18.0024 1.32826 17.9988H16.6648C17.0141 18.0035 17.3509 17.8693 17.6012 17.6257C17.8515 17.3821 17.9948 17.049 17.9997 16.6998V1.29737C17.9947 0.948332 17.8512 0.615577 17.6009 0.372301C17.3506 0.129025 17.0139 -0.00484652 16.6648 0.000134165" fill="#D2DDE8"/>
</g>
<defs>
<clipPath id="clip0_1423_16399">
<rect width="18" height="18" fill="white"/>
</clipPath>
</defs>
</svg>
